<svg width="105" height="105" viewBox="0 0 105 105" fill="none" xmlns="http://www.w3.org/2000/svg">
<path d="M52.4407 105C50.4214 105 48.3846 104.882 46.3915 104.651C43.8827 104.362 42.0294 102.159 42.178 99.6287C42.401 95.7256 40.1369 92.0935 36.5441 90.5899C33.1829 89.1781 28.6242 90.2053 26.1634 92.9283C24.4631 94.8034 21.5915 95.0306 19.6247 93.444C16.5389 90.9571 13.7415 88.1291 11.3157 85.039C9.78159 83.0983 10.0089 80.2529 11.8402 78.5702C14.6944 75.9521 15.6297 71.8129 14.1786 68.2682C12.7363 64.7628 9.31391 62.455 5.65117 62.5643H5.60309C3.28656 62.5643 0.615999 60.864 0.336267 58.3289C-0.109556 54.3428 -0.100814 50.326 0.358121 46.3923C0.664077 43.8747 2.72273 42.1176 5.2578 42.1701C9.38822 42.1613 12.981 39.9541 14.4146 36.5448C15.9182 32.9564 14.9829 28.7823 12.0806 26.1554C10.2143 24.4552 9.98702 21.5879 11.5649 19.6254C14.0475 16.5265 16.906 13.703 20.0574 11.2291C22.0199 9.69931 24.8653 9.93533 26.5393 11.7711C28.9826 14.4591 33.5107 15.4906 36.85 14.1269C40.3947 12.6758 42.6851 9.10051 42.5496 5.23671C42.4665 2.74972 44.3328 0.594908 46.8024 0.319547C50.7142 -0.113164 54.6873 -0.104422 58.6123 0.350142C61.1299 0.642987 62.9831 2.85025 62.8301 5.3722C62.6072 9.27097 64.8669 12.9031 68.4554 14.4154C71.8209 15.8184 76.384 14.7957 78.836 12.077C80.5319 10.202 83.3992 9.97467 85.366 11.5482C88.4256 14.0002 91.2273 16.8281 93.688 19.9489C95.2309 21.9026 94.9993 24.748 93.1636 26.4308C90.3182 29.0401 89.3828 33.1793 90.8339 36.7284C92.2544 40.1901 95.6462 42.4279 99.475 42.4279C101.757 42.4279 104.392 44.1282 104.681 46.6633C105.126 50.6494 105.122 54.6662 104.659 58.6043C104.362 61.1088 102.106 62.9839 99.6498 62.8178L99.0991 62.8047C95.4233 62.8134 92.014 65.0819 90.6023 68.4474C89.0987 72.0358 90.0384 76.2056 92.9406 78.8324C94.8113 80.5283 95.0386 83.3999 93.452 85.3668C90.9519 88.4788 88.0934 91.3024 84.9595 93.7631C82.9621 95.3104 80.1822 95.0744 78.482 93.2255C75.9906 90.4894 71.5543 89.4797 68.1581 90.8696C64.6134 92.3207 62.3231 95.8917 62.463 99.7555C62.546 102.242 60.6797 104.402 58.2146 104.677C56.3001 104.896 54.3639 105 52.4407 105ZM33.2616 86.0312C34.9181 86.0312 36.5615 86.3327 38.0607 86.9621C43.1833 89.1082 46.4177 94.2876 46.103 99.856C46.0768 100.306 46.4002 100.691 46.8417 100.743C50.452 101.163 54.1672 101.176 57.7687 100.774C58.2145 100.726 58.538 100.35 58.5205 99.8997C58.3238 94.4013 61.5932 89.3093 66.6546 87.2375C71.5849 85.2269 77.7696 86.63 81.3711 90.5812C81.6683 90.9046 82.171 90.9439 82.5294 90.6686C85.4185 88.4045 88.0628 85.7908 90.375 82.9104C90.6547 82.5607 90.6154 82.0581 90.2876 81.7565C86.1528 78.0107 84.8153 72.0533 86.9657 66.9351C88.9851 62.1184 93.8673 58.8797 99.1166 58.8797L99.899 58.9015C100.284 58.9365 100.694 58.5781 100.747 58.1497C101.175 54.5132 101.18 50.798 100.769 47.1091C100.743 46.8774 100.1 46.366 99.475 46.366C94.0421 46.366 89.2211 43.171 87.193 38.2189C85.1213 33.1487 86.4544 27.2481 90.5105 23.5286C90.8383 23.2313 90.8776 22.7287 90.6023 22.3834C88.3251 19.4943 85.7375 16.8805 82.9096 14.6165C82.5643 14.3367 82.0573 14.3804 81.7601 14.7126C78.2023 18.6507 71.834 20.08 66.9387 18.0388C61.8161 15.884 58.5904 10.7002 58.9051 5.14055C58.9314 4.69473 58.6036 4.30573 58.1621 4.25328C54.53 3.83368 50.8541 3.82494 47.2351 4.22705C46.798 4.27513 46.4702 4.65976 46.4833 5.10121C46.6756 10.6041 43.4062 15.6961 38.3448 17.7678C33.4146 19.7828 27.2299 18.3754 23.6327 14.4198C23.3398 14.0963 22.8328 14.057 22.4832 14.328C19.5722 16.6139 16.9279 19.2233 14.6332 22.0906C14.3535 22.4402 14.3928 22.9472 14.725 23.2444C18.8554 26.9859 20.1885 32.9433 18.0424 38.0702C15.9925 42.9524 10.9661 46.1082 5.23158 46.1082H5.17038C4.46668 46.0907 4.30059 46.5715 4.26563 46.8599C3.84166 50.4877 3.83292 54.2029 4.24814 57.8962C4.27437 58.1017 4.93436 58.6262 5.58998 58.6349C10.8568 58.5169 15.7696 61.7819 17.8239 66.7777C19.9 71.8435 18.5669 77.7485 14.5064 81.4724C14.183 81.7696 14.1437 82.2679 14.4146 82.6088C16.6612 85.4717 19.2444 88.0854 22.0985 90.3845C22.4438 90.6642 22.9552 90.6205 23.2568 90.2883C25.7132 87.5566 29.5289 86.0312 33.2616 86.0312ZM52.4975 83.601C35.3508 83.601 21.3992 69.6494 21.3992 52.5027C21.3992 35.356 35.3508 21.4043 52.4975 21.4043C69.6442 21.4043 83.5958 35.356 83.5958 52.5027C83.5958 58.1279 82.0748 63.6439 79.1944 68.4518L77.9007 70.6153L62.4236 55.1383L62.9394 53.9188C63.7742 51.9563 64.1938 49.8671 64.1938 47.7123C64.1938 43.4682 62.5417 39.4776 59.5389 36.4749C56.5362 33.4721 52.5456 31.82 48.3015 31.82C46.8854 31.82 45.4736 32.0079 44.1099 32.3794C44.0925 32.3707 44.1099 32.3969 44.1449 32.4319C44.1493 32.4363 50.4432 38.7783 52.55 40.885C53.5072 41.8423 53.3323 43.254 53.2886 43.5294L53.2843 43.5731C53.0745 45.8328 52.6592 48.7525 52.2615 50.055C52.1304 50.5227 51.772 51.257 50.7885 51.6285L50.6967 51.6591C49.3986 52.0743 46.3828 52.5027 44.0531 52.7125L43.9876 52.7212C43.887 52.7343 43.7778 52.7431 43.6291 52.7431C42.7462 52.7431 41.907 52.3934 41.2689 51.7553C39.0748 49.5611 33.0299 43.56 33.0299 43.56C33.0081 43.5381 32.9906 43.5206 32.9731 43.5075C32.9687 43.5163 32.9644 43.5294 32.96 43.5469C31.4783 49.0279 33.0518 54.9328 37.0642 58.9452C40.0669 61.948 44.0575 63.6001 48.3015 63.6001C50.4564 63.6001 52.5456 63.1762 54.5081 62.3457L55.7276 61.83L71.292 77.3901L69.2334 78.71C64.2332 81.9095 58.4462 83.601 52.4975 83.601ZM52.4975 25.3337C37.5188 25.3337 25.3329 37.5195 25.3329 52.4983C25.3329 67.4771 37.5188 79.6629 52.4975 79.6629C56.864 79.6629 61.1299 78.6183 64.9718 76.6252L54.7922 66.4455C52.7117 67.1667 50.5394 67.5295 48.3059 67.5295C43.0085 67.5295 38.0301 65.4665 34.2844 61.7207C29.2798 56.7161 27.3173 49.3557 29.1661 42.511C29.6426 40.7583 31.1986 39.5345 32.9469 39.5345C33.9959 39.5345 35.0099 39.9715 35.8054 40.7627C35.8054 40.7627 41.5224 46.436 43.8564 48.77C45.6353 48.6039 47.5323 48.3373 48.6905 48.1013C48.9266 46.9342 49.1976 45.0198 49.3637 43.2453C46.951 40.8282 41.3607 35.1942 41.3607 35.1942C40.3336 34.1671 39.9314 32.7335 40.2942 31.3742C40.657 30.0148 41.7235 28.944 43.0784 28.5725C44.7787 28.1092 46.5401 27.8731 48.3059 27.8731C53.6033 27.8731 58.5817 29.9362 62.3231 33.6776C66.0689 37.4234 68.1319 42.4017 68.1319 47.6991C68.1319 49.9283 67.7691 52.1049 67.048 54.1854L77.0309 64.1684C78.7617 60.5406 79.6665 56.55 79.6665 52.4939C79.6665 37.5195 67.4807 25.3337 52.4975 25.3337ZM49.4074 42.9306C49.4074 42.935 49.4074 42.9393 49.4074 42.9437V42.9306Z" fill="#636569"/>
</svg>
