<svg width="152" height="149" viewBox="0 0 152 149" fill="none" xmlns="http://www.w3.org/2000/svg">
<g clip-path="url(#clip0)">
<path d="M140.484 23.4808C138.384 23.5534 136.285 23.5292 134.185 23.511V23.505H132.455C132.376 23.505 132.291 23.505 132.213 23.505C131.402 23.505 130.597 23.505 129.665 23.505H127.475C127.469 23.505 127.463 23.505 127.457 23.505H113.509C111.561 23.505 109.612 23.505 107.664 23.505C107.228 23.505 106.89 23.4808 106.817 22.8878C106.405 19.5719 105.371 16.4436 103.67 13.5815C99.1322 5.9392 92.5004 1.35261 83.6117 0.227138C77.6818 -0.523174 72.0786 0.578091 66.9354 3.63985C59.6985 7.95415 55.3902 14.3137 53.9925 22.6276C53.8775 23.2993 53.6657 23.5171 52.9941 23.5171C43.2702 23.4989 33.5464 23.4989 23.8226 23.5171C23.1752 23.5171 22.921 23.2751 22.8061 22.6881C22.5096 21.1996 22.201 19.7171 21.8561 18.2346C21.1663 15.2273 20.4462 12.2321 19.7564 9.23089C19.4418 7.85128 18.3284 6.78027 16.9306 6.76817C12.2412 6.73792 7.54569 6.71976 2.85623 6.77422C0.423765 6.80448 -0.6775 9.75732 0.399562 11.5665C1.08331 12.7162 2.13012 13.1761 3.43107 13.1761C6.69856 13.17 9.96 13.1761 13.2275 13.1761C13.6511 13.1761 14.0202 13.1156 14.1533 13.763C14.831 16.964 15.5813 20.1528 16.3074 23.3477C17.0335 26.5425 17.7596 29.7374 18.4857 32.9263C19.2118 36.1211 19.9319 39.316 20.6641 42.5048C21.4628 45.9781 22.2736 49.4513 23.0663 52.9245C23.5806 55.1815 24.0647 57.4385 24.5729 59.6955C25.1599 62.3034 25.7529 64.9114 26.358 67.5132C26.4911 68.0881 27.1688 71.1014 27.1869 71.1922C27.9796 74.6412 28.8086 78.0842 29.5649 81.5453C30.2668 84.7704 30.8901 88.0137 31.5557 91.2449C32.2515 94.6213 32.9958 97.9856 33.6191 101.38C33.7945 102.33 34.569 103.298 34.9382 103.552C35.3073 103.801 35.4888 103.794 35.7127 103.794C35.9366 103.794 36.6385 103.819 37.8305 103.819C50.1925 103.819 62.5484 103.819 74.9105 103.819H102.339C103.937 103.819 105.534 103.819 107.132 103.819C112.692 103.819 118.259 103.819 123.82 103.813C125.744 103.813 127.251 102.366 127.263 100.551C127.269 99.0748 126.022 97.2958 123.765 97.3019C116.625 97.3382 109.485 97.3321 102.339 97.3261V97.32H94.2189C94.1766 97.32 94.1281 97.32 94.0858 97.32C93.3052 97.32 92.5247 97.32 91.6291 97.32H89.0514C88.8941 97.32 88.7489 97.32 88.6037 97.32C84.0413 97.32 79.4728 97.32 74.9105 97.32C67.3589 97.32 59.8074 97.32 52.2559 97.32C48.2199 97.32 44.1779 97.314 40.1419 97.3261C39.6579 97.3261 39.3977 97.2777 39.2888 96.6665C38.7502 93.6774 38.1512 90.7003 37.5037 87.7354C37.3585 87.0758 37.54 86.9548 38.1028 87.0032C38.1512 87.0093 38.1996 87.0032 38.248 87.0032C56.7759 87.0032 75.3098 87.0032 93.8377 86.9669V86.9972H102.569C102.672 86.9972 102.775 86.9972 102.878 86.9972H107.095C107.144 86.9972 107.192 86.9972 107.234 86.9972C113.788 86.9972 120.341 86.9851 126.9 87.0093C128.933 87.0153 130.077 86.0835 130.476 84.6131C130.893 83.0822 131.244 81.5272 131.607 79.9842C132.243 77.2673 132.86 74.5384 133.495 71.8215C134.016 69.619 134.566 67.4225 135.081 65.22C135.861 61.892 136.606 58.5518 137.386 55.2238C138.052 52.386 138.766 49.5602 139.431 46.7284C140.23 43.352 140.998 39.9756 141.779 36.5992C142.469 33.6221 143.086 30.6209 143.879 27.6741C144.441 25.6349 143.001 23.3961 140.484 23.4808ZM80.3986 6.46563C91.4597 6.48378 100.627 15.2939 100.651 26.6999C100.675 37.9122 91.6836 46.9644 80.3502 46.9765C69.1318 46.9825 60.122 37.7791 60.1341 26.6938C60.1462 15.6025 69.2287 6.43537 80.3986 6.46563ZM136.4 31.3772C135.474 35.3164 134.542 39.2494 133.604 43.1886C132.678 47.0793 131.741 50.964 130.815 54.8487C130.083 57.9165 129.363 60.9904 128.649 64.0582C127.838 67.5314 127.039 71.0046 126.234 74.4718C125.817 76.275 125.363 78.0781 124.97 79.8874C124.849 80.4319 124.582 80.6195 124.068 80.5651C123.923 80.553 123.778 80.5651 123.632 80.5651C94.7998 80.5651 65.9733 80.5651 37.1407 80.5651C36.0636 80.5651 36.0394 80.5711 35.7913 79.5182C35.0652 76.402 34.3573 73.2737 33.6493 70.1514C33.3468 68.8142 33.0503 67.4709 32.7417 66.1336C32.7175 66.0247 32.4149 64.6996 32.3 64.2276C31.9006 62.5152 31.4831 60.8088 31.0837 59.0964C30.6662 57.2872 30.2668 55.478 29.8614 53.6688C29.0869 50.2137 28.3245 46.7586 27.5439 43.3036C27.0296 41.0224 26.485 38.7533 25.9647 36.4781C25.6137 34.9291 25.293 33.374 24.9481 31.8189C24.9118 31.6616 24.8089 30.8871 24.7303 30.4575C24.6577 30.0279 24.9784 29.9432 25.2991 29.9613C25.8981 29.9976 26.5092 29.9371 27.1083 29.9371C35.6945 29.9371 44.2808 29.9432 52.867 29.925C53.5628 29.925 53.8533 30.0763 53.9864 30.8447C55.4386 39.4673 60.0313 45.9418 67.6312 50.2137C71.7821 52.5493 76.3143 53.5598 81.1005 53.4086C89.1724 53.1484 95.7619 49.8446 100.978 43.7574C103.592 40.7017 105.292 37.1377 106.327 33.2591C106.551 32.424 106.714 31.5587 106.793 30.6995C106.847 30.0823 107.101 29.9311 107.658 29.9311C110.296 29.9492 112.928 29.9311 115.567 29.9432C115.621 29.9432 115.669 29.9371 115.724 29.9371H119.826C119.881 29.9674 119.941 29.9976 119.996 30.0279C120.02 29.9976 120.044 29.9674 120.062 29.9371H121.92C121.95 29.9371 121.974 29.9492 122.011 29.9492C123.747 29.9432 125.484 29.9432 127.221 29.9371H134.167C134.712 29.9371 135.25 29.9371 135.795 29.9371C136.049 29.9371 136.309 29.9371 136.642 29.9371C136.557 30.4938 136.503 30.9416 136.4 31.3772Z" fill="#636569"/>
<path d="M46.9009 114.106C39.543 114.057 33.5102 119.981 33.5284 127.436C33.5465 134.836 39.5369 140.736 46.8222 140.681C54.2769 140.687 60.2673 134.715 60.1403 127.194C60.0192 119.903 54.1862 114.16 46.9009 114.106ZM46.792 134.189C43.0041 134.183 39.9484 131.109 39.9786 127.339C40.0089 123.636 43.0948 120.574 46.8222 120.574C50.6343 120.574 53.6718 123.612 53.6718 127.412C53.6718 131.06 50.7553 134.243 46.792 134.189Z" fill="#636569"/>
<path d="M114.017 114.106C106.659 114.057 100.626 119.981 100.645 127.436C100.663 134.836 106.653 140.736 113.938 140.681C121.393 140.687 127.384 134.715 127.256 127.194C127.142 119.903 121.308 114.16 114.017 114.106ZM113.914 134.189C110.126 134.183 107.071 131.109 107.101 127.339C107.131 123.636 110.217 120.574 113.944 120.574C117.757 120.574 120.794 123.612 120.794 127.412C120.794 131.06 117.878 134.243 113.914 134.189Z" fill="#636569"/>
<path d="M74.7705 35.7455C76.0049 36.9617 78.0803 36.9556 79.2845 35.7576C83.7742 31.2799 88.264 26.7901 92.7417 22.3003C94.0184 21.0175 94.0245 18.9844 92.7961 17.7319C91.5436 16.4552 89.4258 16.4552 88.1248 17.7561C85.7529 20.1341 83.3809 22.5061 81.0211 24.8962C79.7262 26.2032 78.4676 27.5465 77.1545 28.9079C76.8217 28.6114 76.6221 28.442 76.4405 28.2605C75.1456 26.9716 73.8628 25.6586 72.5498 24.3879C71.2912 23.1717 69.246 23.208 68.054 24.4182C66.8075 25.6828 66.7651 27.6977 68.0116 28.9624C70.2383 31.2436 72.4953 33.5066 74.7705 35.7455Z" fill="#636569"/>
</g>
<defs>
<clipPath id="clip0">
<rect width="152" height="149" fill="white"/>
</clipPath>
</defs>
</svg>
