<svg width="75" height="75" viewBox="0 0 75 75" fill="none" xmlns="http://www.w3.org/2000/svg">
<circle cx="37.5" cy="37.5" r="37" fill="white" stroke="#3FB7A9"/>
<path d="M51.1824 52.0747H24.8176C24.5157 52.0747 24.3145 51.8734 24.3145 51.5714V40.2982C24.3145 39.9962 24.5157 39.7949 24.8176 39.7949C25.1195 39.7949 25.3207 39.9962 25.3207 40.2982V51.0681H50.6792V40.2982C50.6792 39.9962 50.8805 39.7949 51.1824 39.7949C51.4843 39.7949 51.6855 39.9962 51.6855 40.2982V51.5714C51.6855 51.8734 51.4843 52.0747 51.1824 52.0747Z" fill="#3FB7A9"/>
<path d="M39.6102 33.2522C39.3083 33.2522 39.1071 33.0509 39.1071 32.749V26.2065H36.8933V32.749C36.8933 33.0509 36.692 33.2522 36.3901 33.2522C36.0882 33.2522 35.887 33.0509 35.887 32.749V26.2065C35.887 25.7032 36.2895 25.2 36.8933 25.2H39.2077C39.7109 25.2 40.214 25.6026 40.214 26.2065V32.749C40.1134 33.0509 39.9121 33.2522 39.6102 33.2522Z" fill="#3FB7A9"/>
<path d="M37.9998 24.7975C36.9936 24.7975 36.0879 23.9922 36.0879 22.885C36.0879 22.0798 37.1948 19.9661 37.4967 19.2615C37.698 18.9595 37.9998 18.9595 38.2011 19.0602C38.3017 19.0602 38.3017 19.1609 38.4024 19.2615C38.7042 19.8654 39.8112 22.0798 39.8112 22.885C39.9118 23.9922 39.0061 24.7975 37.9998 24.7975ZM37.9998 20.6707C37.5973 21.3752 37.2954 22.0798 37.0942 22.885C37.0942 23.3883 37.4967 23.7909 37.9998 23.7909C38.503 23.7909 38.9055 23.3883 38.9055 22.885C38.7042 22.1805 38.4024 21.3752 37.9998 20.6707Z" fill="#3FB7A9"/>
<path d="M38 26.2067C37.6981 26.2067 37.4968 26.0054 37.4968 25.7034V24.2943C37.4968 23.9923 37.6981 23.791 38 23.791C38.3019 23.791 38.5031 23.9923 38.5031 24.2943V25.7034C38.5031 26.0054 38.3019 26.2067 38 26.2067Z" fill="#3FB7A9"/>
<path d="M43.0315 40.8014C42.0252 40.8014 41.0189 40.3988 40.2139 39.7949C39.0064 38.6877 37.0944 38.6877 35.7862 39.7949C34.1762 41.204 31.7611 41.204 30.151 39.7949C28.9435 38.6877 27.0315 38.6877 25.7233 39.7949C25.3208 40.1975 24.7171 40.4994 24.2139 40.7008C23.8114 40.8014 23.3082 40.8014 23.0064 40.4994C22.6038 40.1975 22.4026 39.7949 22.4026 39.3923V35.1648C22.4026 33.5543 23.7108 32.3465 25.3208 32.2458H50.6793C52.2894 32.2458 53.5976 33.5543 53.5976 35.1648V39.3923C53.5976 39.7949 53.3963 40.2981 52.9938 40.4994C52.5913 40.8014 52.1888 40.8014 51.7862 40.7008C51.1825 40.4994 50.6793 40.1975 50.2768 39.7949C49.0693 38.6877 47.1573 38.6877 45.8491 39.7949C45.0441 40.3988 44.0378 40.8014 43.0315 40.8014ZM38.0001 37.8825C39.0064 37.8825 40.0127 38.2851 40.8177 38.889C42.0252 39.9962 43.9372 39.9962 45.2454 38.889C46.8554 37.4798 49.2705 37.4798 50.8806 38.889C51.2831 39.1909 51.6856 39.3923 52.0881 39.5936C52.1888 39.5936 52.2894 39.5936 52.39 39.4929C52.4906 39.3923 52.4906 39.2916 52.4906 39.1909V35.1648C52.4906 34.1583 51.6856 33.353 50.6793 33.353H25.3208C24.3145 33.353 23.5095 34.1583 23.5095 35.1648V39.3923C23.5095 39.4929 23.6101 39.5936 23.6101 39.6942C23.7108 39.7949 23.8114 39.7949 23.912 39.7949C24.3145 39.5936 24.7171 39.3923 25.1196 39.0903C25.9246 38.3857 26.9309 38.0838 27.9372 38.0838C28.9435 38.0838 29.9498 38.4864 30.7548 39.0903C31.9623 40.1975 33.8743 40.1975 35.1825 39.0903C35.9875 38.2851 36.9938 37.8825 38.0001 37.8825Z" fill="#3FB7A9"/>
<path d="M51.1823 47.1426C50.0754 47.1426 49.0691 46.8406 48.2641 46.136C46.9559 45.0288 44.9433 45.0288 43.6351 46.136C41.9244 47.5452 39.5093 47.5452 37.7986 46.136C36.4905 45.0288 34.4779 45.0288 33.1697 46.136C32.3647 46.8406 31.2578 47.1426 30.2515 47.1426C29.1446 47.1426 28.1383 46.8406 27.3332 46.136C26.7295 45.5321 25.8238 45.2301 25.0188 45.3308C24.7169 45.3308 24.5156 45.1295 24.5156 44.8275C24.5156 44.5256 24.7169 44.3243 25.0188 44.3243C26.1257 44.3243 27.132 44.6262 27.937 45.3308C29.2452 46.438 31.2578 46.438 32.5659 45.3308C34.2766 43.9216 36.6917 43.9216 38.4024 45.3308C39.7106 46.438 41.7232 46.438 43.0313 45.3308C44.742 43.9216 47.1571 43.9216 48.8678 45.3308C49.4716 45.9347 50.3773 46.2367 51.1823 46.136C51.4842 46.136 51.6854 46.3373 51.6854 46.6393C51.6854 46.9412 51.4842 47.1426 51.1823 47.1426Z" fill="#3FB7A9"/>
<path d="M53.4969 55.2956H22.5031C22.2013 55.2956 22 55.0943 22 54.7923V52.6786C22 51.7727 22.7044 51.0681 23.6101 51.0681H52.3899C53.2956 51.0681 54 51.7727 54 52.6786V54.7923C54 55.0943 53.6981 55.2956 53.4969 55.2956ZM23.0063 54.289H52.8931V52.6786C52.8931 52.3766 52.6918 52.1753 52.3899 52.1753H23.6101C23.3082 52.1753 23.1069 52.3766 23.1069 52.6786V54.289H23.0063Z" fill="#3FB7A9"/>
</svg>
