<svg width="75" height="75" viewBox="0 0 75 75" fill="none" xmlns="http://www.w3.org/2000/svg">
<circle cx="37.5" cy="37.5" r="37" fill="white" stroke="#3FB7A9"/>
<g clip-path="url(#clip0)">
<path d="M48.4632 47.3709C48.6681 47.1645 48.7706 46.855 48.873 46.5454L50.0001 41.0761C50.1025 40.3537 50.0001 39.6314 49.4878 39.1154L46.5165 35.6068V35.4004C46.8238 32.3046 46.5165 29.1056 45.6968 26.6289C44.1599 21.6756 40.8812 18.167 39.0369 16.5159C38.6271 16.1031 38.0124 15.8967 37.5001 15.8967C36.9878 15.8967 36.373 16.1031 35.9632 16.5159C34.1189 18.167 30.8402 21.6756 29.3033 26.6289C28.4837 29.1056 28.1763 32.4078 28.4837 35.4004V35.5036L25.5124 38.909C25.0001 39.425 24.8976 40.1473 25.0001 40.8697L26.1271 46.339C26.2296 46.855 26.6394 47.2677 27.0492 47.4741C27.5615 47.6805 28.0738 47.5773 28.4837 47.2677L31.6599 44.8943L31.7624 44.9975C31.7624 45.1007 31.8648 45.1007 31.8648 45.2039C32.2746 45.823 32.9919 46.1326 33.7091 46.1326H41.1886C41.8033 46.1326 42.4181 45.9262 42.8279 45.5134C42.9304 45.4102 43.0328 45.3071 43.0328 45.2039L43.2378 44.8943L43.3402 44.9975L46.414 47.2677C46.8238 47.5773 47.3361 47.6805 47.8484 47.4741C48.0533 47.5773 48.2583 47.4741 48.4632 47.3709ZM30.8402 43.8623L27.664 46.1326L26.6394 40.7665C26.6394 40.5601 26.6394 40.3537 26.7419 40.1473L28.791 37.7739V37.9803C29.2009 40.0442 29.9181 42.0048 30.8402 43.7591V43.8623ZM43.1353 42.108C42.7255 42.9336 42.2132 43.7591 41.7009 44.4815C41.5984 44.6879 41.3935 44.7911 41.1886 44.7911H33.8115C33.6066 44.7911 33.4017 44.6879 33.2992 44.4815C32.7869 43.7591 32.2746 42.9336 31.8648 42.108L31.7624 42.0048H43.2378L43.1353 42.108ZM43.8525 40.3537H31.1476V40.2505C30.6353 38.7026 30.3279 37.0515 30.123 35.2972C29.8156 32.4078 30.123 29.4152 30.8402 27.1449C32.2746 22.6043 35.3484 19.3021 37.0902 17.7542C37.3976 17.5478 37.705 17.5478 38.0124 17.7542C39.7542 19.3021 42.8279 22.6043 44.2624 27.1449C44.9796 29.4152 45.2869 32.4078 44.9796 35.2972C44.7747 37.0515 44.4673 38.7026 43.8525 40.3537ZM47.3361 46.1326L47.2337 46.0294L44.1599 43.7591V43.6559C45.082 41.9016 45.7992 40.0442 46.2091 37.8771V37.6707L48.2583 40.0442C48.3607 40.2505 48.4632 40.4569 48.3607 40.6633L47.3361 46.1326Z" fill="#3FB7A9"/>
<path d="M40.5737 25.4939C39.7541 24.6683 38.627 24.1523 37.5 24.1523C36.3729 24.1523 35.2459 24.5651 34.4262 25.4939C33.6065 26.3194 33.0942 27.4546 33.0942 28.5897C33.0942 29.7248 33.5041 30.86 34.4262 31.6855C35.2459 32.5111 36.3729 33.027 37.5 33.027C38.627 33.027 39.7541 32.6143 40.5737 31.6855C41.3934 30.86 41.9057 29.7248 41.9057 28.5897C41.9057 27.4546 41.3934 26.3194 40.5737 25.4939ZM37.5 31.3759C36.7828 31.3759 36.0656 31.0663 35.5533 30.5504C35.041 30.0344 34.7336 29.312 34.7336 28.5897C34.7336 27.8673 35.041 27.145 35.5533 26.629C36.0656 26.113 36.7828 25.8034 37.5 25.8034C38.2172 25.8034 38.9344 26.113 39.4467 26.629C39.959 27.145 40.2664 27.8673 40.2664 28.5897C40.2664 30.1376 39.0369 31.3759 37.5 31.3759Z" fill="#3FB7A9"/>
<path d="M34.5287 49.2284C34.5287 48.8156 34.2214 48.4028 33.7091 48.4028C33.1968 48.4028 32.8894 48.7124 32.8894 49.2284V53.3561C32.8894 53.7689 33.1968 54.1817 33.7091 54.1817C33.914 54.1817 34.1189 54.0785 34.2214 53.9753C34.3238 53.8721 34.4263 53.6657 34.4263 53.4593V49.2284H34.5287Z" fill="#3FB7A9"/>
<path d="M36.6804 49.2285V57.2776C36.6804 57.6904 36.9878 58.1032 37.5001 58.1032C37.705 58.1032 37.9099 58 38.0124 57.8968C38.1148 57.7936 38.2173 57.5872 38.2173 57.3808V49.3317C38.2173 48.9189 37.9099 48.5061 37.3976 48.5061C36.8853 48.5061 36.6804 48.7125 36.6804 49.2285Z" fill="#3FB7A9"/>
<path d="M41.2911 48.4028C40.8813 48.4028 40.4714 48.7124 40.4714 49.2284V53.3561C40.4714 53.7689 40.7788 54.1817 41.2911 54.1817C41.496 54.1817 41.7009 54.0785 41.8034 53.9753C41.9059 53.8721 42.0083 53.6657 42.0083 53.4593V49.3316C42.1108 48.7124 41.7009 48.4028 41.2911 48.4028Z" fill="#3FB7A9"/>
</g>
<defs>
<clipPath id="clip0">
<rect width="25" height="42" fill="white" transform="translate(25 16)"/>
</clipPath>
</defs>
</svg>
