<svg width="1808" height="411" viewBox="0 0 1808 411" fill="none" xmlns="http://www.w3.org/2000/svg">
<path fill-rule="evenodd" clip-rule="evenodd" d="M1383.85 195.149V32.8388C1383.85 18.4545 1374.25 5.83939 1360.38 2.00615C1346.51 -1.82069 1331.8 4.0702 1324.41 16.4097L1145.17 315.864L965.928 16.4161C958.537 4.0702 943.839 -1.82069 929.955 2.00615C916.089 5.83939 906.487 18.4545 906.487 32.8388V378.151C906.487 395.818 920.807 410.144 938.474 410.144C956.14 410.144 970.46 395.818 970.46 378.151V148.567L1117.58 394.35C1117.62 394.427 1117.67 394.504 1117.71 394.574C1118.37 395.683 1119.12 396.734 1119.92 397.76C1120.12 398.016 1120.33 398.273 1120.54 398.523C1121.17 399.279 1121.83 400.01 1122.54 400.715C1122.64 400.81 1122.73 400.908 1122.82 401.004C1122.96 401.149 1123.1 401.292 1123.24 401.427C1124.13 402.26 1125.07 403.067 1126.07 403.811C1126.31 403.991 1126.57 404.144 1126.82 404.317L1126.97 404.425C1127.55 404.826 1128.12 405.228 1128.73 405.593C1128.85 405.67 1128.99 405.721 1129.12 405.792C1129.9 406.241 1130.7 406.625 1131.5 407.003C1131.67 407.082 1131.83 407.164 1132 407.245C1132.33 407.409 1132.65 407.572 1132.99 407.708C1133.56 407.944 1134.15 408.135 1134.74 408.326C1134.89 408.374 1135.03 408.422 1135.18 408.471C1135.3 408.509 1135.41 408.548 1135.53 408.587C1135.61 408.617 1135.7 408.648 1135.79 408.678C1136.19 408.819 1136.6 408.961 1137.01 409.067C1137.43 409.179 1137.86 409.256 1138.29 409.333L1138.29 409.334L1138.5 409.372C1138.56 409.383 1138.63 409.395 1138.69 409.406C1138.77 409.421 1138.85 409.436 1138.92 409.452C1139.08 409.484 1139.25 409.517 1139.41 409.551L1139.58 409.588L1139.58 409.588C1140.08 409.694 1140.57 409.8 1141.07 409.862C1141.69 409.944 1142.31 409.972 1142.94 409.999L1142.94 409.999L1142.94 410L1143.16 410.009C1143.29 410.015 1143.43 410.022 1143.56 410.029C1143.61 410.031 1143.65 410.034 1143.7 410.037C1143.76 410.041 1143.81 410.045 1143.87 410.049L1143.99 410.059L1144.06 410.065L1144.18 410.076L1144.18 410.076C1144.49 410.104 1144.81 410.131 1145.12 410.131H1145.15H1145.18C1145.22 410.131 1145.26 410.131 1145.3 410.13C1145.34 410.129 1145.37 410.128 1145.4 410.127C1145.47 410.125 1145.53 410.122 1145.59 410.118C1145.77 410.107 1145.94 410.091 1146.12 410.076C1146.33 410.057 1146.54 410.039 1146.74 410.029C1146.95 410.018 1147.15 410.009 1147.36 410L1147.37 409.999C1147.99 409.972 1148.61 409.944 1149.23 409.862C1149.72 409.801 1150.2 409.696 1150.69 409.591C1150.93 409.541 1151.16 409.491 1151.39 409.446C1151.6 409.403 1151.81 409.365 1152.02 409.327C1152.45 409.25 1152.87 409.173 1153.29 409.061C1153.91 408.894 1154.51 408.664 1155.12 408.458C1155.2 408.433 1155.28 408.407 1155.35 408.382L1155.63 408.29L1155.63 408.29C1156.2 408.107 1156.76 407.923 1157.31 407.702C1157.63 407.57 1157.95 407.414 1158.26 407.258L1158.26 407.257L1158.27 407.256C1158.44 407.17 1158.61 407.085 1158.79 407.003C1159.6 406.625 1160.4 406.234 1161.18 405.785C1161.21 405.768 1161.24 405.753 1161.27 405.738C1161.3 405.72 1161.34 405.703 1161.37 405.687L1161.38 405.686L1161.42 405.666L1161.45 405.649C1161.48 405.636 1161.51 405.623 1161.53 405.608C1161.55 405.601 1161.56 405.594 1161.57 405.587C1162.22 405.196 1162.83 404.766 1163.44 404.337C1163.7 404.151 1163.98 403.991 1164.24 403.798C1165.24 403.061 1166.17 402.266 1167.05 401.433C1167.22 401.281 1167.37 401.119 1167.53 400.959C1167.61 400.868 1167.7 400.777 1167.79 400.689C1168.47 399.997 1169.13 399.292 1169.74 398.548L1169.84 398.428L1169.91 398.345L1169.97 398.263L1170.1 398.111L1170.21 397.965C1170.28 397.888 1170.34 397.812 1170.4 397.734C1171.17 396.747 1171.88 395.728 1172.52 394.67C1172.54 394.638 1172.56 394.606 1172.59 394.574L1172.62 394.516C1172.65 394.472 1172.67 394.433 1172.7 394.388L1319.84 148.56V195.143C1319.84 212.809 1334.16 227.136 1351.83 227.136C1369.52 227.136 1383.85 212.815 1383.85 195.149ZM1803.16 361.716L1596.48 16.4093C1590.69 6.76211 1580.27 0.851987 1569.03 0.851987C1557.78 0.851987 1547.36 6.76211 1541.58 16.4157L1334.89 361.722C1325.82 376.876 1330.75 396.522 1345.91 405.599C1361.08 414.669 1380.72 409.74 1389.79 394.574L1569.03 95.1255L1748.27 394.58C1754.27 404.593 1764.88 410.144 1775.75 410.144C1781.34 410.144 1787.01 408.676 1792.15 405.599C1807.3 396.522 1812.24 376.882 1803.16 361.716ZM238.68 0.851252C249.93 0.851252 260.353 6.76137 266.129 16.415L472.816 361.715C481.887 376.875 476.957 396.515 461.797 405.592C456.656 408.669 450.99 410.137 445.4 410.137C434.522 410.137 423.913 404.586 417.92 394.573L238.68 95.1248L59.441 394.573C50.3643 409.739 30.7301 414.669 15.5638 405.599C0.403844 396.522 -4.52553 376.875 4.54478 361.721L211.232 16.415C217.014 6.76137 227.431 0.851252 238.68 0.851252ZM593.037 0.851987H407.688C390.022 0.851987 375.702 15.1722 375.702 32.8384V118.926C375.702 136.592 390.022 150.913 407.688 150.913C425.355 150.913 439.675 136.592 439.675 118.926V64.8313H593.037C631.702 64.8313 663.163 96.2857 663.163 134.958C663.163 173.399 632.081 204.706 593.722 205.078C593.319 205.065 592.928 205.059 592.569 205.059H503.795C503.734 205.059 503.672 205.064 503.609 205.068C503.591 205.07 503.574 205.071 503.556 205.072C503.544 205.073 503.533 205.074 503.521 205.075C503.488 205.077 503.456 205.078 503.423 205.078C503.372 205.078 503.327 205.072 503.276 205.072C502.205 205.072 501.141 205.129 500.077 205.238C499.447 205.301 498.821 205.409 498.191 205.517L498.191 205.517L497.949 205.559L497.894 205.568C497.425 205.648 496.95 205.73 496.488 205.834C495.75 205.995 495.02 206.174 494.295 206.392C493.925 206.499 493.559 206.629 493.193 206.758L493.192 206.758L492.999 206.826C492.948 206.844 492.897 206.862 492.847 206.879C491.789 207.245 490.744 207.668 489.712 208.155C489.065 208.456 488.424 208.764 487.795 209.11C487.677 209.177 487.555 209.233 487.433 209.29C487.296 209.353 487.158 209.417 487.026 209.495C486.949 209.54 486.872 209.585 486.794 209.631C486.718 209.676 486.641 209.722 486.565 209.77C486.562 209.77 486.56 209.774 486.558 209.778C486.555 209.783 486.551 209.789 486.547 209.789C486.545 209.789 486.542 209.788 486.539 209.783C486.495 209.811 486.453 209.84 486.413 209.871C486.364 209.907 486.317 209.944 486.27 209.982C486.217 210.024 486.164 210.066 486.11 210.106C486.082 210.126 486.054 210.146 486.025 210.164C486.017 210.17 486.009 210.175 486.001 210.181C484.815 210.937 483.68 211.777 482.603 212.7C482.203 213.037 481.823 213.395 481.441 213.755L481.302 213.886C481.207 213.978 481.107 214.065 481.007 214.152C480.892 214.252 480.777 214.353 480.667 214.462C479.937 215.187 479.251 215.943 478.597 216.732C478.349 217.032 478.123 217.345 477.897 217.658C477.795 217.798 477.694 217.939 477.59 218.078C476.975 218.911 476.398 219.776 475.866 220.667L475.735 220.887L475.735 220.887C475.465 221.337 475.199 221.781 474.956 222.244C474.385 223.334 473.892 224.469 473.45 225.616C473.398 225.751 473.334 225.881 473.271 226.012C473.193 226.171 473.115 226.331 473.059 226.501V226.494C472.475 228.161 472.039 229.86 471.738 231.577C470.475 238.814 471.693 246.519 475.719 253.333C475.725 253.34 475.732 253.346 475.732 253.353C475.744 253.365 475.751 253.378 475.757 253.397C475.764 253.41 475.77 253.417 475.776 253.43C475.776 253.436 475.783 253.436 475.783 253.442L475.802 253.481L560.262 394.587C566.255 404.599 576.864 410.15 587.742 410.15C593.331 410.15 598.998 408.682 604.139 405.606C614.145 399.612 619.696 389.016 619.703 378.145C619.703 372.549 618.241 366.876 615.158 361.722L559.678 269.038H591.78C592.216 269.051 592.639 269.064 593.03 269.064C666.977 269.064 727.136 208.905 727.136 134.964C727.142 61.0173 666.984 0.851987 593.037 0.851987ZM782.092 32.8384C782.092 15.1722 796.412 0.851987 814.078 0.851987C831.745 0.851987 846.065 15.1722 846.065 32.8384V378.151C846.065 395.817 831.745 410.144 814.078 410.144C796.412 410.144 782.092 395.817 782.092 378.151V32.8384ZM284.019 287.653H193.342C175.676 287.653 161.355 301.974 161.355 319.646C161.355 337.312 175.676 351.633 193.342 351.633H284.019C301.685 351.633 316.006 337.312 316.006 319.646C316.012 301.98 301.685 287.653 284.019 287.653ZM1523.69 287.653H1614.36C1632.02 287.653 1646.35 301.98 1646.35 319.646C1646.35 337.312 1632.03 351.633 1614.36 351.633H1523.69C1506.02 351.633 1491.7 337.312 1491.7 319.646C1491.7 301.974 1506.02 287.653 1523.69 287.653Z" fill="url(#paint0_linear)"/>
<defs>
<linearGradient id="paint0_linear" x1="903.856" y1="0.849609" x2="903.856" y2="410.15" gradientUnits="userSpaceOnUse">
<stop stop-color="#44C2B4"/>
<stop offset="1" stop-color="#44C3B4" stop-opacity="0"/>
</linearGradient>
</defs>
</svg>
