<?xml version="1.0" encoding="utf-8"?><svg xmlns="http://www.w3.org/2000/svg" xmlns:xlink="http://www.w3.org/1999/xlink"><symbol viewBox="0 0 57 57" id="banner-logo" xmlns="http://www.w3.org/2000/svg"><path d="M20.482 24.574S9.138 24.746 0 24.763v32.228h11.446c1.7-4.367 10.966-23.287 11.533-24.343 2.033-3.74 1.09-7.559-2.497-8.074zm9.952 13.575c-1.08-.223-1.793.96-2.213 1.596L19.1 57h15.667c-.909-5.783-3.08-16.74-3.166-17.281-.077-.498-.266-1.382-1.167-1.57zm-2.47-22.635c-1.313.514-4.857-.18-6.101-3.244-1.098-2.686-.137-5.586 2.145-6.478 2.274-.893 5.011.558 6.1 3.243 1.09 2.686.13 5.586-2.144 6.479zM48.952 0H0v19.006c6.959.085 22.712.18 23.922.146 8.152-.224 11-3.107 14.21-6.565 1.51-1.63 7.276-8.4 10.82-12.587zm-5.534 14.38c-2.394 2.592-5.268 5.115-5.989 8.633-.85 4.161-.712 7.224-.154 11.412 1.03 7.765 2.591 14.75 4.547 22.575h15.17V0c-4.281 4.256-12.184 12.88-13.574 14.38z"/></symbol><symbol viewBox="0 0 144 40" id="design" xmlns="http://www.w3.org/2000/svg"><path d="M76.624 6.729c.572 0 1.07-.1 1.492-.326a2.54 2.54 0 0 0 .995-.925c.224-.4.348-.876.348-1.401s-.124-1-.348-1.4c-.224-.401-.547-.701-.995-.926-.422-.226-.92-.326-1.492-.326H74.76v5.279h1.864v.025zM73.343.225h3.356c.82 0 1.542.15 2.188.475a3.504 3.504 0 0 1 1.467 1.35c.348.576.522 1.252.522 2.027 0 .776-.174 1.426-.522 2.026a3.658 3.658 0 0 1-1.467 1.351c-.646.325-1.367.475-2.188.475h-3.356V.225zM88.26 6.729v1.2h-5.768V.225h5.619v1.2h-4.177v2.002h3.705v1.175h-3.705V6.73h4.326zm2.361 1.076c-.547-.175-.994-.4-1.317-.675l.497-1.1c.323.25.696.45 1.144.6.447.15.92.225 1.367.225.572 0 .995-.1 1.268-.276.273-.175.423-.425.423-.725 0-.225-.075-.4-.224-.55-.15-.15-.348-.25-.597-.326-.249-.075-.572-.175-.994-.275-.572-.15-1.07-.275-1.417-.425a2.213 2.213 0 0 1-.92-.65c-.249-.3-.398-.7-.398-1.201 0-.425.124-.826.348-1.15.224-.351.572-.626 1.044-.826.472-.2 1.02-.3 1.716-.3.472 0 .92.05 1.392.175.447.125.845.275 1.168.5l-.447 1.1c-.348-.2-.696-.35-1.044-.45-.373-.1-.721-.15-1.07-.15-.571 0-.969.1-1.243.275-.273.2-.422.45-.422.75 0 .226.075.401.224.551.149.15.348.25.596.325.249.075.572.175.995.275a7.837 7.837 0 0 1 1.392.426c.373.15.671.35.945.65.248.3.398.7.398 1.2 0 .426-.125.801-.348 1.152-.224.35-.572.625-1.045.825-.472.2-1.044.3-1.715.3-.597 0-1.169-.1-1.716-.25zm7.733-7.58h-1.418v7.704h1.418V.225zm7.434 3.777h1.342V7.08c-.397.326-.845.55-1.392.726a5.073 5.073 0 0 1-1.616.25 4.54 4.54 0 0 1-2.113-.5 3.836 3.836 0 0 1-1.467-1.426 4.008 4.008 0 0 1-.547-2.052c0-.75.174-1.425.547-2.026.348-.6.845-1.075 1.492-1.426.621-.35 1.342-.5 2.138-.5.646 0 1.218.1 1.74.325s.97.526 1.318.926l-.895.875c-.597-.6-1.293-.875-2.113-.875a3 3 0 0 0-1.442.35c-.423.225-.746.55-.995.95-.248.4-.348.876-.348 1.401 0 .526.124.976.348 1.401.249.4.572.726.995.976.422.225.895.35 1.417.35.596 0 1.119-.125 1.566-.4V4.002h.025zM115.931.225v7.704h-1.168l-4.227-5.203V7.93h-1.417V.225h1.169l4.226 5.228V.225h1.417zm7.907 6.504v1.2h-5.743V.225h5.594v1.2h-4.177v2.002h3.704v1.175h-3.704V6.73h4.326zm4.997 0c.571 0 1.069-.1 1.491-.326a2.54 2.54 0 0 0 .995-.925c.223-.4.348-.876.348-1.401s-.125-1-.348-1.4c-.224-.401-.547-.701-.995-.926-.422-.226-.92-.326-1.491-.326h-1.865v5.279h1.865v.025zM125.553.225h3.356c.821 0 1.542.15 2.188.475a3.507 3.507 0 0 1 1.467 1.35c.348.576.522 1.252.522 2.027 0 .776-.174 1.426-.522 2.026a3.662 3.662 0 0 1-1.467 1.351c-.646.325-1.367.475-2.188.475h-3.356V.225zM78.738 21.663c0-.75-.547-1.1-1.666-1.1H74.76v2.226h2.312c1.094 0 1.666-.375 1.666-1.126zm-3.953-4.327v2.126h2.014c.497 0 .87-.1 1.143-.275.274-.175.398-.45.398-.8 0-.35-.124-.626-.398-.801-.273-.175-.646-.275-1.143-.275h-2.014v.025zm4.997 3.277c.249.325.373.725.373 1.226 0 .675-.249 1.175-.77 1.55-.523.376-1.269.55-2.238.55h-3.804V16.21h3.58c.895 0 1.591.175 2.088.525.498.35.746.85.746 1.476 0 .375-.1.726-.273 1.026a1.71 1.71 0 0 1-.721.675c.447.125.77.35 1.019.7zm5.146.575v2.727h-1.417v-2.702l-3.008-5.003h1.516l2.238 3.752 2.287-3.752h1.393l-3.009 4.978zm8.727-3.778H91.12v-1.2h6.514v1.2h-2.536v6.505h-1.442V17.41zm6.564-1.2h-1.417v7.705h1.417V16.21zm9.248 7.705l-.025-5.103-2.511 4.227h-.646l-2.511-4.177v5.053h-1.368V16.21h1.169l3.058 5.103 2.983-5.103h1.169l.025 7.705h-1.343zm8.901-2.252c0-.75-.547-1.1-1.666-1.1h-2.312v2.226h2.312c1.094 0 1.666-.375 1.666-1.126zm-3.953-4.327v2.126h2.013c.498 0 .871-.1 1.144-.275.274-.175.398-.45.398-.8 0-.35-.124-.626-.398-.801-.273-.175-.646-.275-1.144-.275h-2.013v.025zm4.997 3.277c.248.325.373.725.373 1.226 0 .675-.249 1.175-.771 1.55-.522.376-1.268.55-2.237.55h-3.804V16.21h3.58c.895 0 1.591.175 2.088.525.497.35.746.85.746 1.476 0 .375-.099.726-.273 1.026a1.71 1.71 0 0 1-.721.675c.447.125.77.35 1.019.7zm7.757 2.101v1.2h-5.743V16.21h5.594v1.2h-4.177v2.002h3.704v1.176h-3.704v2.126h4.326zm6.215-4.903c-.323-.275-.795-.4-1.417-.4h-1.666v3.077h1.666c.622 0 1.094-.125 1.417-.4.323-.276.473-.651.473-1.151 0-.476-.15-.876-.473-1.126zm.497 6.104l-1.566-2.252h-2.038v2.252h-1.418V16.21h3.158c.671 0 1.243.1 1.74.325.497.225.87.526 1.144.95.273.401.398.901.398 1.477 0 .575-.15 1.075-.423 1.5-.274.426-.696.726-1.218.926l1.765 2.527h-1.542zm5.744-3.227l-1.219 1.25v1.977h-1.417V16.21h1.417v3.952l3.804-3.952h1.591l-3.232 3.427L144 23.915h-1.665l-2.71-3.227zM78.638 35.447h1.343v3.077c-.398.325-.845.55-1.392.725a5.08 5.08 0 0 1-1.616.25c-.77 0-1.492-.175-2.114-.5a3.839 3.839 0 0 1-1.466-1.426 4.007 4.007 0 0 1-.547-2.051c0-.75.174-1.426.547-2.026a3.74 3.74 0 0 1 1.491-1.426c.622-.35 1.343-.5 2.138-.5.647 0 1.219.1 1.74.325.523.225.97.525 1.319.925l-.895.876c-.597-.6-1.293-.876-2.114-.876-.547 0-1.02.125-1.442.35a2.6 2.6 0 0 0-.994.95c-.249.401-.348.877-.348 1.402 0 .525.124.975.348 1.4.248.4.572.726.994.976.423.225.895.35 1.417.35.597 0 1.12-.125 1.567-.4v-2.401h.024zm7.832-2.152c-.323-.275-.795-.4-1.417-.4h-1.666v3.077h1.666c.622 0 1.094-.125 1.417-.4.323-.275.472-.65.472-1.151 0-.475-.149-.876-.472-1.126zm.497 6.104l-1.566-2.251h-2.038v2.251h-1.418v-7.705h3.158c.671 0 1.243.1 1.74.326.497.225.87.525 1.144.95.273.4.398.9.398 1.476a2.72 2.72 0 0 1-.423 1.501c-.274.425-.696.725-1.218.926l1.765 2.526h-1.542zm8.081-1.5c.397-.226.72-.55.97-.976a2.93 2.93 0 0 0 .347-1.4c0-.526-.124-.976-.348-1.402a2.288 2.288 0 0 0-.97-.975 2.807 2.807 0 0 0-1.392-.35c-.522 0-.97.125-1.392.35-.398.225-.72.55-.97.975a2.923 2.923 0 0 0-.348 1.401c0 .526.125.976.349 1.401.223.425.547.75.97.976.397.225.87.35 1.391.35.522 0 .97-.125 1.393-.35zm-3.506 1.1a3.84 3.84 0 0 1-1.467-1.425 3.983 3.983 0 0 1-.547-2.027c0-.75.174-1.426.547-2.026a3.84 3.84 0 0 1 1.467-1.426c.622-.35 1.343-.5 2.113-.5a4.55 4.55 0 0 1 2.114.5 3.84 3.84 0 0 1 1.466 1.426c.349.6.547 1.276.547 2.026 0 .75-.174 1.426-.546 2.027a3.84 3.84 0 0 1-1.467 1.425c-.622.35-1.343.5-2.114.5-.77 0-1.491-.15-2.113-.5zm8.676-.401c-.596-.6-.895-1.45-.895-2.576v-4.353h1.417v4.303c0 1.526.647 2.276 1.94 2.276 1.292 0 1.939-.75 1.939-2.276v-4.303h1.392v4.353c0 1.125-.298 1.976-.87 2.576-.597.6-1.417.9-2.461.9-1.045 0-1.865-.3-2.462-.9zm12.431-3.026c.324-.275.473-.65.473-1.126 0-.5-.149-.875-.473-1.126-.323-.275-.795-.4-1.417-.4h-1.665v3.052h1.665c.647-.025 1.119-.15 1.417-.4zm.398-3.553c.497.226.87.526 1.144.951.273.4.398.9.398 1.476 0 .55-.125 1.05-.398 1.451-.274.425-.647.725-1.144.95-.497.226-1.069.326-1.74.326h-1.74v2.226h-1.418v-7.705h3.158c.671 0 1.243.1 1.74.326zM11.685 14.11H0V40h11.685V14.11zm56.089-4.704V0H16.359v9.406h51.415zM11.685 0H0v9.406h11.685V0zm4.699 35.298h4.674L21.033 40h46.74V14.109H16.36l.025 21.189z"/></symbol><symbol viewBox="0 0 40 50" id="icon-360" xmlns="http://www.w3.org/2000/svg"><path d="M7.182 8.369c1.358.168 2.394.63 3.108 1.386.714.756 1.071 1.701 1.071 2.835 0 .854-.217 1.631-.651 2.331-.434.7-1.092 1.26-1.974 1.68-.868.406-1.932.609-3.192.609a10.54 10.54 0 0 1-3.045-.441c-.966-.308-1.792-.728-2.478-1.26l1.176-2.121c.532.448 1.176.805 1.932 1.071.77.252 1.561.378 2.373.378.966 0 1.722-.196 2.268-.588.56-.406.84-.952.84-1.638 0-.686-.266-1.218-.798-1.596-.518-.392-1.316-.588-2.394-.588H4.074V8.558l3.339-3.969H.735V2.3h10.017v1.827l-3.57 4.242zm12.643-.441c.966 0 1.834.189 2.604.567.77.364 1.372.889 1.806 1.575.434.686.65 1.477.65 2.373 0 .952-.237 1.792-.713 2.52a4.753 4.753 0 0 1-1.932 1.659c-.812.392-1.722.588-2.73.588-2.016 0-3.584-.63-4.704-1.89-1.106-1.26-1.66-3.066-1.66-5.418 0-1.652.302-3.059.904-4.221.602-1.176 1.442-2.065 2.52-2.667 1.092-.616 2.352-.924 3.78-.924.756 0 1.463.084 2.12.252.673.154 1.254.385 1.744.693l-1.008 2.058c-.728-.476-1.66-.714-2.793-.714-1.414 0-2.52.434-3.318 1.302-.798.868-1.197 2.121-1.197 3.759v.021a3.995 3.995 0 0 1 1.659-1.134c.672-.266 1.428-.399 2.268-.399zm-.462 7.14c.854 0 1.547-.224 2.079-.672.532-.462.798-1.071.798-1.827 0-.77-.266-1.379-.798-1.827-.532-.448-1.246-.672-2.142-.672-.882 0-1.603.238-2.163.714a2.293 2.293 0 0 0-.82 1.806c0 .714.267 1.309.799 1.785.546.462 1.295.693 2.247.693zm13.082 2.142c-1.176 0-2.226-.294-3.15-.882-.924-.602-1.652-1.47-2.184-2.604-.532-1.148-.798-2.506-.798-4.074s.266-2.919.798-4.053c.532-1.148 1.26-2.016 2.184-2.604.924-.602 1.974-.903 3.15-.903s2.226.301 3.15.903c.938.588 1.673 1.456 2.205 2.604.532 1.134.798 2.485.798 4.053s-.266 2.926-.798 4.074c-.532 1.134-1.267 2.002-2.205 2.604-.924.588-1.974.882-3.15.882zm0-2.373c1.05 0 1.876-.434 2.478-1.302.616-.868.924-2.163.924-3.885s-.308-3.017-.924-3.885c-.602-.868-1.428-1.302-2.478-1.302-1.036 0-1.862.434-2.478 1.302-.602.868-.903 2.163-.903 3.885s.3 3.017.903 3.885c.616.868 1.442 1.302 2.478 1.302zM19.995 26C8.596 26 0 30.258 0 35.916c0 4.748 6.177 8.636 15.363 9.666l1.032.12-1.603 1.59a1.575 1.575 0 0 0-.452 1.119c0 .21.04.42.118.61.079.19.197.37.344.51.148.15.325.27.511.349.384.16.817.16 1.2 0 .187-.08.364-.2.512-.35l4.101-4.168c.138-.14.246-.32.315-.51.157-.4.157-.83 0-1.21a1.467 1.467 0 0 0-.334-.53l-4.092-4.157c-.59-.6-1.623-.6-2.213 0a1.6 1.6 0 0 0-.462 1.13c0 .419.167.829.462 1.129l1.397 1.3-1.564-.22c-6.56-.94-11.507-3.68-11.507-6.368 0-3.189 7.219-6.747 16.887-6.747s16.867 3.548 16.867 6.737c0 2.299-3.708 4.728-9.009 5.897-.216.04-.413.12-.58.24-.177.12-.325.27-.433.44a1.57 1.57 0 0 0-.226 1.21c.04.2.128.4.236.57.118.17.265.32.442.43.178.11.364.19.561.23.207.04.413.04.61-.01C35.693 43.312 40 39.943 40 35.915 40 30.258 31.404 26 19.995 26z"/></symbol><symbol viewBox="0 0 36 36" id="icon-bay" xmlns="http://www.w3.org/2000/svg"><path fill-rule="evenodd" clip-rule="evenodd" d="M7.8 2.1A1.5 1.5 0 0 1 9 1.5h18a1.5 1.5 0 0 1 1.2.6l4.5 6c.195.26.3.575.3.9v21a4.5 4.5 0 0 1-4.5 4.5h-21A4.5 4.5 0 0 1 3 30V9c0-.325.105-.64.3-.9l4.5-6zm1.95 2.4L6 9.5V30a1.5 1.5 0 0 0 1.5 1.5h21A1.5 1.5 0 0 0 30 30V9.5l-3.75-5H9.75z"/><path fill-rule="evenodd" clip-rule="evenodd" d="M12 13.5a1.5 1.5 0 0 1 1.5 1.5 4.5 4.5 0 1 0 9 0 1.5 1.5 0 0 1 3 0 7.5 7.5 0 0 1-15 0 1.5 1.5 0 0 1 1.5-1.5zM3 9a1.5 1.5 0 0 1 1.5-1.5h27a1.5 1.5 0 0 1 0 3h-27A1.5 1.5 0 0 1 3 9z"/></symbol><symbol viewBox="0 0 38 38" id="icon-book" xmlns="http://www.w3.org/2000/svg"><path d="M36.921 9.066a71.062 71.062 0 0 0-3.693-.004V4.644c0-.65-.556-1.167-1.21-1.113C27.721 3.889 22.255 5.787 19 9.25c-3.256-3.463-8.722-5.36-13.017-5.72a1.118 1.118 0 0 0-1.21 1.114v4.537c-1.225-.046-2.383-.079-3.622-.115A1.118 1.118 0 0 0 0 10.183v20.354c0 .588.456 1.076 1.043 1.115 4.445.3 11.893.333 17.519 2.732.501.215.951-.032.877 0 5.625-2.4 13.071-2.433 17.519-2.732A1.118 1.118 0 0 0 38 30.537V10.183c0-.602-.477-1.096-1.079-1.117zm-5.928-3.164v19.155c-3.223.721-7.308 2.26-10.875 5.522V11.367c2.445-3.05 7.076-4.89 10.875-5.465zm-23.986 0c3.799.575 8.43 2.414 10.875 5.465V30.58c-3.567-3.262-7.652-4.8-10.875-5.522V5.902zM2.235 29.485V11.334c.8.024 1.657.05 2.537.084v14.55c0 .538.383 1 .912 1.099 2.552.479 5.87 1.518 8.963 3.757-4.412-.99-9.031-1.149-12.412-1.339zm33.53 0c-3.375.19-7.998.349-12.412 1.339 3.093-2.239 6.411-3.279 8.963-3.758.529-.099.912-.56.912-1.098v-14.67a81.543 81.543 0 0 1 2.537-.018v18.205z"/><path d="M14.984 13.942c-.865-.603-2.358-1.344-3.95-1.613a1.118 1.118 0 1 0-.373 2.204c1.23.208 2.41.8 3.045 1.243a1.118 1.118 0 0 0 1.278-1.834zm-.112 6.294c-.796-.486-2.354-1.34-3.838-1.59a1.118 1.118 0 1 0-.373 2.203c1.157.196 2.516.97 3.046 1.295a1.118 1.118 0 0 0 1.165-1.908zm9.422-4.46c.636-.443 1.815-1.035 3.045-1.243a1.118 1.118 0 0 0-.372-2.204c-1.593.27-3.085 1.01-3.951 1.613a1.118 1.118 0 0 0 1.278 1.834zm2.672 2.869c-1.485.251-3.043 1.105-3.839 1.591a1.118 1.118 0 1 0 1.165 1.908c.53-.324 1.89-1.1 3.046-1.295a1.118 1.118 0 0 0-.372-2.204z"/></symbol><symbol viewBox="0 0 24 24" id="icon-catalog" xmlns="http://www.w3.org/2000/svg"><rect x="3" y="3" width="4" height="4" rx="1"/><rect x="3" y="10" width="4" height="4" rx="1"/><rect x="3" y="17" width="4" height="4" rx="1"/><rect x="10" y="3" width="4" height="4" rx="1"/><rect x="10" y="10" width="4" height="4" rx="1"/><rect x="10" y="17" width="4" height="4" rx="1"/><rect x="17" y="3" width="4" height="4" rx="1"/><rect x="17" y="10" width="4" height="4" rx="1"/><rect x="17" y="17" width="4" height="4" rx="1"/></symbol><symbol viewBox="0 0 24 24" id="icon-close" xmlns="http://www.w3.org/2000/svg"><path fill-rule="evenodd" clip-rule="evenodd" d="M23.73.27c.36.36.36.945 0 1.306L1.576 23.73A.923.923 0 1 1 .27 22.424L22.424.27a.923.923 0 0 1 1.306 0z"/><path fill-rule="evenodd" clip-rule="evenodd" d="M.27.27a.923.923 0 0 1 1.306 0L23.73 22.424a.923.923 0 1 1-1.306 1.306L.27 1.576A.923.923 0 0 1 .27.27z"/></symbol><symbol viewBox="0 0 24 24" id="icon-compare" xmlns="http://www.w3.org/2000/svg"><path fill-rule="evenodd" clip-rule="evenodd" d="M18.115 22.4h3.815c.86 0 1.539-.743 1.539-1.63V5.343c0-.884-.68-1.627-1.54-1.627h-3.814c-.86 0-1.54.74-1.54 1.627v15.43c0 .885.68 1.628 1.54 1.628zm.013-17.058c0-.04.011-.069.022-.085h3.745c.01.016.021.046.021.085v15.429c0 .04-.01.069-.021.085H18.15a.166.166 0 0 1-.022-.085V5.342zM10.137 22.4h4.197c.86 0 1.54-.743 1.54-1.63V3.628c0-.884-.68-1.627-1.54-1.627h-4.197c-.86 0-1.54.741-1.54 1.627v17.146c0 .884.68 1.627 1.54 1.627zm.013-18.773c0-.039.011-.068.022-.085h4.127c.01.017.021.046.021.085v17.144c0 .04-.01.069-.02.085h-4.128a.165.165 0 0 1-.022-.085V3.627zM2.539 22.4h3.989c.658-.091 1.367-.904 1.365-1.628V10.486c0-.884-.679-1.627-1.539-1.627H2.54C1.679 8.859 1 9.6 1 10.486v10.287c0 .884.679 1.627 1.539 1.627zm.014-11.916c0-.038.01-.066.02-.083h3.746c.01.017.022.046.022.085v10.285c0 .04-.011.069-.022.085H2.574a.166.166 0 0 1-.021-.085V10.484z"/></symbol><symbol viewBox="0 0 32 32" id="icon-compare1" xmlns="http://www.w3.org/2000/svg"><path d="M25.73 26h-3.815c-.738 0-1.34-.641-1.34-1.427V9.143c0-.789.602-1.428 1.34-1.428h3.815c.738 0 1.339.641 1.339 1.427v15.429c0 .788-.601 1.429-1.34 1.429zM21.915 8.857c-.089 0-.187.121-.187.285v15.429c0 .163.098.285.187.285h3.815c.088 0 .186-.122.186-.285V9.142c0-.164-.098-.285-.186-.285h-3.815zM18.134 26h-4.197c-.738 0-1.34-.641-1.34-1.427V7.427c0-.788.602-1.427 1.34-1.427h4.197c.738 0 1.34.641 1.34 1.427v17.144c0 .788-.602 1.429-1.34 1.429zM13.937 7.142c-.089 0-.187.122-.187.285v17.144c0 .163.098.285.187.285h4.197c.088 0 .186-.122.186-.285V7.427c0-.163-.098-.285-.186-.285h-4.197zM10.154 26H6.34C5.601 26 5 25.359 5 24.573V14.286c0-.788.601-1.427 1.339-1.427h3.815c.738 0 1.34.641 1.34 1.427v10.287c.001.786-.6 1.427-1.34 1.427zM6.34 13.999c-.088 0-.186.122-.186.285v10.287c0 .163.098.285.186.285h3.815c.088 0 .187-.122.187-.285V14.286c0-.163-.098-.285-.187-.285H6.34v-.002z"/></symbol><symbol viewBox="0 0 18 23" id="icon-confirm" xmlns="http://www.w3.org/2000/svg"><path d="M17.47 12.177c.026 2.293-1.004 6.841-8.733 9.903-7.73-3.062-8.76-7.61-8.732-9.903L0 3.677c.082 0 .205.004.287.004 3.851 0 7.137-1.527 8.45-3.681.843 1.38 2.493 2.497 4.576 3.129a.404.404 0 0 0-.041.044l-1.04 1.238c-1.221-.436-2.315-1.028-3.213-1.758l-.287-.232-.287.232C6.81 3.983 4.517 4.865 1.992 5.14l-.401.044v7.007c-.023 1.887.852 5.447 6.954 8.118l.183.08.182-.08c6.103-2.67 6.978-6.236 6.955-8.118v-1.834l1.595-1.9c.01 1.811.01 3.493.01 3.72z"/><path d="M3.59 10.455L5.214 8.74l3.519 3.151 6.166-7.357 1.85 1.482-7.78 9.28-5.377-4.842z"/></symbol><symbol viewBox="0 0 39 38" id="icon-download-photo" xmlns="http://www.w3.org/2000/svg"><path d="M16.839 16.124a2.34 2.34 0 1 0 0-4.68 2.34 2.34 0 0 0 0 4.68z"/><path d="M36.05 22.398a7.207 7.207 0 0 0-4.031-1.918V8.583c0-1.268-.52-2.405-1.333-3.25A4.542 4.542 0 0 0 27.436 4H8.583c-1.268 0-2.405.52-3.25 1.333A4.542 4.542 0 0 0 4 8.583v19.405c0 1.268.52 2.406 1.333 3.25a4.542 4.542 0 0 0 3.25 1.333h18.235c1.203.976 2.698 1.593 4.356 1.593a6.876 6.876 0 0 0 6.891-6.891c0-1.918-.78-3.64-2.016-4.876zM5.722 8.583c0-.78.325-1.495.845-1.983a2.852 2.852 0 0 1 2.015-.845h18.853c.78 0 1.495.325 2.015.845s.845 1.236.845 2.016v10.141l-4.81-4.81a.873.873 0 0 0-1.236 0l-7.248 7.28-4.908-4.94a.873.873 0 0 0-1.236 0l-5.135 5.2V8.583zM8.55 30.881v-.032c-.78 0-1.496-.325-2.016-.845a2.967 2.967 0 0 1-.812-2.016v-4.063l5.753-5.785 4.908 4.908c.325.325.878.325 1.235 0l7.249-7.281 4.745 4.778-.292.097c-.13.033-.26.065-.423.13-.13.033-.26.098-.39.13a.973.973 0 0 0-.26.13c-.13.065-.227.098-.325.163l-.487.292c-.098.065-.163.098-.26.163-.065.032-.098.065-.163.098a3.919 3.919 0 0 0-.78.682 6.876 6.876 0 0 0-2.015 4.876c0 .487.065.942.162 1.43.033.13.065.227.098.357.097.326.162.65.325.976v.032c.13.26.26.553.422.78H8.551zm26.23.033a5.08 5.08 0 0 1-3.64 1.495 5.127 5.127 0 0 1-3.543-1.43c-.13-.13-.26-.293-.39-.423a3.392 3.392 0 0 1-.292-.357 3.078 3.078 0 0 1-.325-.553c-.065-.13-.13-.227-.195-.358a2.746 2.746 0 0 1-.163-.552c-.032-.13-.097-.293-.13-.423a5.373 5.373 0 0 1-.098-1.04c0-1.43.586-2.698 1.496-3.64.91-.943 2.21-1.495 3.64-1.495 1.43 0 2.698.585 3.64 1.495a5.08 5.08 0 0 1 1.496 3.64c0 1.43-.585 2.698-1.495 3.64z"/><path d="M32.538 27.5l-.52.52v-3.575a.874.874 0 0 0-.877-.877.874.874 0 0 0-.878.877v3.576l-.52-.52c-.325-.325-.877-.325-1.235 0-.325.325-.325.877 0 1.235l2.015 2.015c.065.065.163.13.293.195a.949.949 0 0 0 .292.065h.065a.938.938 0 0 0 .293-.065.767.767 0 0 0 .292-.195l2.016-2.015c.325-.325.325-.878 0-1.235-.358-.358-.91-.358-1.236 0z"/></symbol><symbol viewBox="0 0 60 72" id="icon-easy-slide360" xmlns="http://www.w3.org/2000/svg"><path d="M20.7 56.4V55h-6v6.6h6.2v-1.4h-4.7V59h4.1v-1.4h-4.1v-1.2h4.5zm4-1.4l-2.9 6.6h1.6l.4-1h4.1l.4 1h1.6L27.1 55h-2.4zm-.3 4.3l1.2-3h.6l1.2 3h-3zm13.2.2c0-1.2-.9-1.8-2.3-2l-2-.2c-.6 0-.9-.1-.9-.5s.3-.7 1.6-.7c1 0 1.8.3 2.6.8l.8-1.3c-1-.8-2.1-1-3.3-1-1.7 0-3.1.7-3.1 2.1 0 1.2.8 1.7 2.2 1.9l2.2.3c.6.1.8.2.8.6 0 .5-.7.8-1.8.8s-2-.3-2.9-.9l-.7 1.2c1 .8 2 1.1 3.4 1.1 1.9 0 3.4-.7 3.4-2.2zm5 2.2V60l3.1-5H44l-2.1 3.5h-.1L39.7 55H38l3.1 5v1.7h1.5zM5.5 67.5l-2-.2c-.6 0-.9-.1-.9-.5s.3-.7 1.6-.7c1 0 1.8.3 2.6.8l.8-1.3c-1-.8-2.1-1-3.3-1-1.7 0-3.1.7-3.1 2.1 0 1.2.8 1.7 2.2 1.9l2.2.3c.6.1.8.2.8.6 0 .5-.7.8-1.8.8s-2-.3-2.9-.9L1 70.6c1 .8 2 1.1 3.4 1.1 1.9 0 3.4-.7 3.4-2.2 0-1.2-.9-1.8-2.3-2zm4.7-2.5H8.7v6.6h6.1v-1.4h-4.6V65zm7 0h-1.5v6.6h1.5V65zm4.7 0h-3.4v6.6h3.4c1.8 0 3.6-1.3 3.6-3.3 0-2-1.8-3.3-3.6-3.3zm-.1 5.2h-1.9v-4h1.9c1.2 0 2.1.9 2.1 2 0 1.2-.9 2-2.1 2zM28 69h4.1v-1.4H28v-1.2h4.5V65h-6v6.6h6.2v-1.4H28V69zm14.7-1c.4-.3.6-.7.6-1.1 0-.7-.2-1.2-.7-1.5-.6-.4-1.3-.6-2.4-.6-1 0-1.8.2-2.8.9l.7 1c.7-.4 1.3-.6 2.2-.6 1.1 0 1.5.2 1.5.7 0 .3-.2.5-.6.5l-2.4.1v1.3h2.3c.7 0 1 .3 1 .8 0 .7-.7 1-2 1-.9 0-1.6-.2-2.4-.8l-.7 1.1c.9.7 1.9 1 3.1 1 1.2 0 2.1-.1 2.7-.6.6-.4.9-1 .9-1.7s-.3-1.2-1-1.5zm5.7-.9c-.8 0-1.4.1-2.1.4.2-1 .9-1.4 2-1.4.9 0 1.5.1 2.3.5l.6-1.2c-.9-.5-1.8-.7-2.9-.7-2.1 0-3.5 1.5-3.5 3.5 0 2.1 1 3.5 3.3 3.5 1.9 0 3.2-.9 3.2-2.3 0-1.7-1.3-2.3-2.9-2.3zm-.2 3.3c-1.4 0-1.9-.5-2-1.7.8-.1 1.3-.2 2-.2 1.1 0 1.6.2 1.6.9s-.5 1-1.6 1zm7.6-5.6c-2 0-3.6 1.3-3.6 3.5s1.6 3.5 3.6 3.5 3.6-1.3 3.6-3.5-1.6-3.5-3.6-3.5zm0 5.7c-1.4 0-2.2-.8-2.2-2.2 0-1.4.8-2.2 2.2-2.2 1.4 0 2.1.8 2.1 2.2 0 1.4-.7 2.2-2.1 2.2zM44.5 30.4c4.5 1.3 7.3 3.1 7.3 4.9 0 1.3-1.5 2.6-4.2 3.8-2.9 1.3-9.3 2.6-11.7 2.6-2.3.1-2.9.1-4 .1-.5 0-1 .4-1 1 0 .5.4 1 1 1 0 0 1.1 0 4.2-.1s9.2-1.4 12.3-2.8c4.4-1.9 5.4-4.1 5.4-5.6-.1-2.8-3.2-5.2-8.8-6.8-.5-.1-1.1.2-1.2.7-.1.5.2 1.1.7 1.2zM24.7 43.7l-2 2.2c-.4.4-.3 1 .1 1.4.2.2.4.3.7.3.3 0 .5-.1.7-.3l3.6-4c.2-.2.3-.4.3-.7v-.1c0-.2-.1-.5-.2-.6l-3.4-4.1c-.4-.4-1-.5-1.4-.1-.4.4-.5 1-.1 1.4l2.2 2.6c-4.6-.4-8.8-1.2-11.9-2.4-3-1.2-4.8-2.7-4.8-4 0-1.6 2.3-3.3 6.2-4.5.5-.2.8-.7.6-1.2-.2-.5-.7-.8-1.2-.6-2.3.7-4.1 1.6-5.4 2.6-1.5 1.2-2.2 2.4-2.2 3.8 0 2.3 2.1 4.3 6 5.8 3.2 1.3 7.5 2.1 12.2 2.5z"/><path d="M17.9 35.4h.2c.4 0 .8-.3.9-.6l3.2-11.1c.6.5 1.3.7 2 .7H36c.8 0 1.5-.3 2-.7l3.2 11c.1.4.5.7.9.7 0 0 .1-.1.2-.1.5-.1.7-.6.6-1.1l-3.6-12.6v-.4c0-1.8-1.5-3.2-3.2-3.2H24.2c-1.8 0-3.2 1.4-3.2 3.2v.2l-3.7 12.9c-.2.5.1 1 .6 1.1zm6.3-15.5h11.9c.7 0 1.2.4 1.3 1-.1.2-.1.4 0 .6v.1c-.1.6-.7 1.1-1.3 1.1H24.2c-.7 0-1.3-.5-1.4-1.3v-.3c.1-.7.7-1.2 1.4-1.2zM21.9 8.8c-.5.5-1.3 1.1-1.3 2.4 0 1.3.7 2 1.3 2.5.5.4.7.6.7 1 0 .5.4.9.9.9s.9-.4.9-1c0-1.3-.7-1.9-1.3-2.4-.5-.4-.7-.6-.7-1 0-.5.2-.7.7-1.1.5-.5 1.3-1.1 1.3-2.4 0-1.3-.7-1.9-1.3-2.4-.5-.4-.7-.6-.7-1s.2-.6.7-1c.5-.5 1.3-1.1 1.3-2.4 0-.5-.4-.9-.9-.9s-.9.4-.9.9c0 .4-.2.6-.7 1-.5.5-1.3 1.1-1.3 2.4 0 1.3.7 1.9 1.3 2.5.5.4.7.6.7 1s-.2.6-.7 1zm7 0c-.5.5-1.3 1.1-1.3 2.4 0 1.3.8 2 1.3 2.5.5.4.7.6.7 1 0 .5.4.9.9.9s.9-.4.9-1c0-1.3-.7-1.9-1.3-2.4-.5-.4-.7-.6-.7-1 0-.5.2-.7.7-1.1.5-.5 1.3-1.1 1.3-2.4 0-1.3-.7-1.9-1.3-2.4-.5-.4-.7-.6-.7-1s.2-.6.7-1c.5-.5 1.3-1.1 1.3-2.4 0-.5-.4-.9-.9-.9s-.9.4-.9.9c0 .4-.2.6-.7 1-.5.5-1.3 1.1-1.3 2.4 0 1.3.8 1.9 1.3 2.5.5.4.7.6.7 1s-.2.6-.7 1zm7.1.1c-.5.5-1.3 1.1-1.3 2.4 0 1.3.7 1.9 1.3 2.4.5.4.7.6.7 1 0 .5.4.9.9.9s.9-.4.9-.8c0-1.3-.7-1.9-1.3-2.4-.5-.4-.7-.6-.7-1 0-.5.2-.7.7-1.1.5-.5 1.3-1.1 1.3-2.4 0-1.3-.7-1.9-1.3-2.4-.5-.4-.7-.6-.7-1s.2-.6.7-1c.5-.5 1.3-1.1 1.3-2.4 0-.5-.4-.9-.9-.9s-.9.4-.9.9c0 .4-.2.6-.7 1-.5.5-1.3 1.1-1.3 2.4 0 1.3.7 1.9 1.3 2.4.5.4.7.6.7 1s-.2.6-.7 1z"/></symbol><symbol viewBox="0 0 24 24" id="icon-favorite" xmlns="http://www.w3.org/2000/svg"><path d="M20.16 5A6.29 6.29 0 0 0 12 4.36a6.27 6.27 0 0 0-8.16 9.48l6.21 6.22a2.78 2.78 0 0 0 3.9 0l6.21-6.22a6.27 6.27 0 0 0 0-8.84zm-1.41 7.46l-6.21 6.21a.76.76 0 0 1-1.08 0l-6.21-6.24a4.29 4.29 0 0 1 0-6 4.27 4.27 0 0 1 6 0 .999.999 0 0 0 1.42 0 4.27 4.27 0 0 1 6 0 4.29 4.29 0 0 1 .08 6v.03z"/></symbol><symbol viewBox="0 0 24 24" id="icon-humb" xmlns="http://www.w3.org/2000/svg"><path fill-rule="evenodd" clip-rule="evenodd" d="M2 18a1 1 0 0 1 1-1h18a1 1 0 1 1 0 2H3a1 1 0 0 1-1-1zm0-6a1 1 0 0 1 1-1h18a1 1 0 1 1 0 2H3a1 1 0 0 1-1-1zm0-6a1 1 0 0 1 1-1h18a1 1 0 1 1 0 2H3a1 1 0 0 1-1-1z"/></symbol><symbol viewBox="0 0 38 38" id="icon-instructions" xmlns="http://www.w3.org/2000/svg"><path d="M21.4 23.35h-3.3a.55.55 0 0 1-.55-.55v-2.064a7.427 7.427 0 0 1-.23-.096l-1.46 1.46a.55.55 0 0 1-.778 0l-2.332-2.332a.55.55 0 0 1 0-.778l1.46-1.46a6.151 6.151 0 0 1-.096-.23H12.05a.55.55 0 0 1-.55-.55v-3.3a.55.55 0 0 1 .55-.55h2.064c.032-.08.063-.156.096-.23l-1.46-1.46a.55.55 0 0 1 0-.778L15.082 8.1a.566.566 0 0 1 .778 0l1.46 1.46a7.68 7.68 0 0 1 .23-.096V7.4a.55.55 0 0 1 .55-.55h3.3a.55.55 0 0 1 .55.55v2.064c.08.032.156.063.23.096l1.46-1.46a.55.55 0 0 1 .778 0l2.332 2.332a.55.55 0 0 1 0 .778l-1.46 1.46c.033.074.065.15.096.23h2.064a.55.55 0 0 1 .55.55v3.3a.55.55 0 0 1-.55.55h-2.064a4.98 4.98 0 0 1-.096.23l1.46 1.46a.55.55 0 0 1 0 .778L24.418 22.1a.566.566 0 0 1-.778 0l-1.46-1.46a7.427 7.427 0 0 1-.23.096V22.8a.55.55 0 0 1-.55.55zm-2.75-1.1h2.2v-1.903a.55.55 0 0 1 .381-.524c.275-.085.542-.196.796-.332a.55.55 0 0 1 .653.093l1.35 1.35 1.553-1.555-1.349-1.35a.55.55 0 0 1-.093-.652 4.53 4.53 0 0 0 .333-.795.55.55 0 0 1 .523-.382H26.9V14h-1.903a.55.55 0 0 1-.523-.382 4.526 4.526 0 0 0-.333-.795.55.55 0 0 1 .093-.653l1.349-1.349-1.554-1.554-1.349 1.349a.55.55 0 0 1-.653.093 4.463 4.463 0 0 0-.796-.33.55.55 0 0 1-.38-.526V7.95h-2.2v1.903a.55.55 0 0 1-.382.524 4.463 4.463 0 0 0-.795.33.55.55 0 0 1-.654-.094l-1.349-1.346-1.55 1.554 1.348 1.35a.55.55 0 0 1 .093.652c-.136.254-.247.52-.333.795a.55.55 0 0 1-.526.382H12.6v2.2h1.903a.55.55 0 0 1 .524.382c.085.275.197.541.332.795a.55.55 0 0 1-.093.653l-1.346 1.35 1.554 1.553 1.349-1.349a.55.55 0 0 1 .653-.093c.254.136.52.247.796.332a.55.55 0 0 1 .378.524v1.903z"/><path d="M19.75 18.4a3.3 3.3 0 1 1 0-6.6 3.3 3.3 0 0 1 0 6.6zm0-5.5a2.2 2.2 0 1 0 0 4.4 2.2 2.2 0 0 0 0-4.4z"/><path d="M31.95 27.2a.55.55 0 0 0 .55-.55V3.55a.55.55 0 0 0-.55-.55H8.3A3.303 3.303 0 0 0 5 6.3v23.1a3.303 3.303 0 0 0 3.3 3.3h1.65v2.75a.55.55 0 0 0 .939.389l1.811-1.811 1.811 1.811a.55.55 0 0 0 .939-.389V32.7h16.5a.55.55 0 1 0 0-1.1 2.2 2.2 0 1 1 0-4.4zm-17.6 6.922l-1.261-1.26a.55.55 0 0 0-.778 0l-1.261 1.26V29.95h3.3v4.172zM29.497 31.6H15.45v-1.65H27a.55.55 0 0 0 0-1.1H7.75a.55.55 0 1 0 0 1.1h2.2v1.65H8.3a2.2 2.2 0 0 1 0-4.4h21.197a3.28 3.28 0 0 0 0 4.4zM8.3 26.1c-.812 0-1.595.3-2.2.842V6.3a2.2 2.2 0 0 1 2.2-2.2h23.1v22H8.3z"/></symbol><symbol viewBox="0 0 60 72" id="icon-itouch" xmlns="http://www.w3.org/2000/svg"><path d="M9.5 56.2H8v6.6h1.5v-6.6zm4.9 2.5h-3.8V60h3.8v-1.3zm-.3-1.2h2.7v5.3h1.5v-5.3H21v-1.3h-6.9v1.3zM25.4 56c-2 0-3.7 1.4-3.7 3.5s1.7 3.5 3.7 3.5 3.7-1.4 3.7-3.5-1.7-3.5-3.7-3.5zm0 5.7c-1.3 0-2.2-.8-2.2-2.2 0-1.4 1-2.2 2.2-2.2 1.2 0 2.2.8 2.2 2.2 0 1.4-1 2.2-2.2 2.2zm10-2.1c0 1.3-.6 2.1-1.9 2.1-1.3 0-1.9-.8-1.9-2.1v-3.4h-1.5v3.4c0 2.2 1.3 3.4 3.4 3.4 2.1 0 3.4-1.2 3.4-3.4v-3.4h-1.5v3.4zm6.2-2.3c1 0 1.7.4 2.2 1.1l1.2-.7c-.7-1.2-1.9-1.8-3.4-1.8-2.1 0-3.7 1.4-3.7 3.5 0 2.2 1.6 3.5 3.7 3.5 1.6 0 2.7-.6 3.4-1.8l-1.2-.7c-.5.7-1.1 1.1-2.2 1.1-1.3 0-2.2-.8-2.2-2.1s.9-2.1 2.2-2.1zm9.7-1.1v2.5h-3.7v-2.5h-1.5v6.6h1.5V60h3.7v2.8h1.5v-6.6h-1.5zM27.7 7.6c.5 0 .9-.4.9-.9V.9c0-.5-.4-.9-.9-.9s-.9.4-.9.9v5.8c-.1.5.4.9.9.9zm5.6 5.6c0 .5.4.9.9.9H40c.5 0 .9-.4.9-.9s-.4-.9-.9-.9h-5.8c-.5 0-.9.4-.9.9zm-17.9.9h5.8c.5 0 .9-.4.9-.9s-.4-.9-.9-.9h-5.8c-.5 0-.9.4-.9.9s.4.9.9.9zm6.3-5.6c.2.2.4.3.7.3.3 0 .5-.1.7-.3.4-.4.4-1 0-1.3l-2.7-2.7c-.4-.4-1-.4-1.3 0-.4.4-.4 1 0 1.3l2.6 2.7zm11.3.3c.2 0 .5-.1.7-.3l2.7-2.7c.4-.4.4-1 0-1.3-.4-.4-1-.4-1.3 0l-2.7 2.7c-.4.4-.4 1 0 1.3.1.2.4.3.6.3z"/><path d="M18 26.8c-1.6.9-2.3 3-1.4 4.7l4.3 9c1.1 2.3 2.8 4.2 4.9 5.5 2.1 1.3 4.6 2.1 7.1 2.1 3.4 0 6.7-1.3 9.1-3.6 3.8-4.1 4.1-7.6 4.2-8 0-.4.1-1.5.1-1.8v-9.9h.1c0-1.9-1.6-3.5-3.5-3.5-.6 0-1.2.2-1.7.5-.4-1.4-1.8-2.5-3.3-2.5-1 0-1.9.4-2.5 1.1-.6-.7-1.5-1.1-2.5-1.1-.6 0-1.1.1-1.6.4v-6.5c0-1.9-1.6-3.5-3.5-3.5s-3.5 1.6-3.5 3.5v17L22.9 28c-1-1.7-3.2-2.2-4.9-1.2zm6.4 7.3c.2.4.7.5 1.1.4.4-.1.7-.5.7-.9V13.2c0-.9.7-1.6 1.6-1.6.9 0 1.6.7 1.6 1.6v15.7c0 .5.4.9.9.9s.9-.4.9-.9v-6.1c0-.9.7-1.6 1.6-1.6.9 0 1.6.7 1.6 1.6v6.1c0 .5.4.9.9.9s.9-.4.9-.9v-6.1c0-.9.7-1.6 1.6-1.6.9 0 1.6.7 1.6 1.6v6.1c0 .5.4.9.9.9s.9-.4.9-.9v-4.1c0-.9.7-1.6 1.6-1.6.9 0 1.6.7 1.6 1.6v9.8c0 .7-.1 1.2-.2 2.2-.1 1-1 3.6-3.3 6.2 0 0-.1 0-.1.1-2.1 2-4.9 3.1-7.8 3.1-4.4 0-8.5-2.6-10.4-6.5l-4.3-9c-.4-.8-.1-1.8.7-2.2.8-.5 1.8-.2 2.3.6l3.1 5z"/></symbol><symbol viewBox="0 0 38 38" id="icon-play" xmlns="http://www.w3.org/2000/svg"><path d="M26.566 15.974l-9.683-5.598a3.513 3.513 0 0 0-1.75-.465 3.513 3.513 0 0 0-3.037 1.74 3.523 3.523 0 0 0-.475 1.751v11.196c0 .614.168 1.217.475 1.751.306.534.752.98 1.286 1.276a3.562 3.562 0 0 0 3.5 0l9.684-5.598a3.513 3.513 0 0 0 1.74-3.036c0-.614-.158-1.217-.464-1.751a3.557 3.557 0 0 0-1.276-1.266zm-11.81 9.267V12.76L25.557 19l-10.8 6.241z"/><path d="M36.556 11.73a18.922 18.922 0 0 0-4.114-6.162 18.94 18.94 0 0 0-6.172-4.124A18.913 18.913 0 0 0 19 0 18.923 18.923 0 0 0 8.447 3.205a18.888 18.888 0 0 0-6.993 8.525A18.879 18.879 0 0 0 .376 22.71a18.842 18.842 0 0 0 5.202 9.723 19.064 19.064 0 0 0 9.723 5.202c3.7.742 7.497.366 10.979-1.078a19.015 19.015 0 0 0 8.525-6.993A18.922 18.922 0 0 0 38.01 19.01a19.085 19.085 0 0 0-1.454-7.28zm-6.34 18.486A15.765 15.765 0 0 1 19 34.865c-3.145 0-6.201-.92-8.813-2.67a15.826 15.826 0 0 1-5.845-7.122 15.815 15.815 0 0 1-.9-9.169 15.809 15.809 0 0 1 4.342-8.12 15.809 15.809 0 0 1 8.12-4.342 15.815 15.815 0 0 1 9.169.9 15.825 15.825 0 0 1 7.121 5.845A15.81 15.81 0 0 1 34.864 19c0 4.233-1.651 8.22-4.648 11.216z"/></symbol><symbol viewBox="0 0 24 24" id="icon-print" xmlns="http://www.w3.org/2000/svg"><path d="M7 10a1 1 0 1 0 0 2 1 1 0 0 0 0-2zm12-4h-1V3a1 1 0 0 0-1-1H7a1 1 0 0 0-1 1v3H5a3 3 0 0 0-3 3v6a3 3 0 0 0 3 3h1v3a1 1 0 0 0 1 1h10a1 1 0 0 0 1-1v-3h1a3 3 0 0 0 3-3V9a3 3 0 0 0-3-3zM8 4h8v2H8V4zm8 16H8v-4h8v4zm4-5a1 1 0 0 1-1 1h-1v-1a1 1 0 0 0-1-1H7a1 1 0 0 0-1 1v1H5a1 1 0 0 1-1-1V9a1 1 0 0 1 1-1h14a1 1 0 0 1 1 1v6z"/></symbol><symbol viewBox="0 0 24 24" id="icon-search" xmlns="http://www.w3.org/2000/svg"><path d="M21.71 20.29L18 16.61A9 9 0 1 0 16.61 18l3.68 3.68a1.002 1.002 0 0 0 1.42 0 1 1 0 0 0 0-1.39zM11 18a7 7 0 1 1 0-14 7 7 0 0 1 0 14z"/></symbol><symbol viewBox="0 0 24 24" id="icon-send" xmlns="http://www.w3.org/2000/svg"><path d="M12 1.5a10.5 10.5 0 1 0 5.25 19.593 1.051 1.051 0 0 0 .143-1.77 1.05 1.05 0 0 0-1.193-.047A8.4 8.4 0 1 1 20.4 12v.787a1.837 1.837 0 1 1-3.675 0V8.325a1.05 1.05 0 0 0-1.05-1.05 1.05 1.05 0 0 0-1.05.83A4.673 4.673 0 0 0 12 7.274a4.725 4.725 0 1 0 3.465 7.875 3.926 3.926 0 0 0 7.035-2.363V12A10.5 10.5 0 0 0 12 1.5zm0 13.125a2.625 2.625 0 1 1 0-5.25 2.625 2.625 0 0 1 0 5.25z"/></symbol><symbol viewBox="0 0 36 36" id="icon-services" xmlns="http://www.w3.org/2000/svg"><path d="M31.98 14.325l-2.835-.945 1.335-2.67A1.5 1.5 0 0 0 30.195 9L27 5.805a1.5 1.5 0 0 0-1.725-.285l-2.67 1.335-.945-2.835A1.5 1.5 0 0 0 20.25 3h-4.5a1.5 1.5 0 0 0-1.425 1.02l-.945 2.835-2.67-1.335A1.5 1.5 0 0 0 9 5.805L5.805 9a1.5 1.5 0 0 0-.285 1.725l1.335 2.67-2.835.945A1.5 1.5 0 0 0 3 15.75v4.5a1.5 1.5 0 0 0 1.02 1.425l2.835.945-1.335 2.67A1.5 1.5 0 0 0 5.805 27L9 30.195a1.5 1.5 0 0 0 1.725.285l2.67-1.335.945 2.835A1.5 1.5 0 0 0 15.765 33h4.5a1.5 1.5 0 0 0 1.425-1.02l.945-2.835 2.67 1.335A1.5 1.5 0 0 0 27 30.195L30.195 27a1.5 1.5 0 0 0 .285-1.725l-1.335-2.67 2.835-.945A1.5 1.5 0 0 0 33 20.25v-4.5a1.5 1.5 0 0 0-1.02-1.425zM30 19.17l-1.8.6A3 3 0 0 0 26.46 24l.855 1.71-1.65 1.65-1.665-.9a3 3 0 0 0-4.185 1.74l-.6 1.8H16.83l-.6-1.8A3.001 3.001 0 0 0 12 26.46l-1.71.855-1.65-1.65.9-1.665a3 3 0 0 0-1.74-4.23l-1.8-.6v-2.34l1.8-.6A3.002 3.002 0 0 0 9.54 12l-.855-1.665 1.65-1.65L12 9.54a3 3 0 0 0 4.23-1.74l.6-1.8h2.34l.6 1.8A3 3 0 0 0 24 9.54l1.71-.855 1.65 1.65-.9 1.665a3 3 0 0 0 1.74 4.185l1.8.6v2.385zM18 12a6 6 0 1 0 0 12 6 6 0 0 0 0-12zm0 9a3 3 0 1 1 0-5.999A3 3 0 0 1 18 21z"/></symbol><symbol viewBox="0 0 19 20" id="icon-services-all" xmlns="http://www.w3.org/2000/svg"><path d="M4.75 6a.75.75 0 0 0 0 1.5h1a.75.75 0 0 0 0-1.5h-1zm4 4.05h-4a.75.75 0 0 0 0 1.5h4a.75.75 0 0 0 0-1.5z"/><path d="M7.75 18h-5c-.33 0-.65-.13-.88-.37-.23-.24-.37-.55-.37-.88v-14c0-.33.13-.65.37-.88.24-.23.55-.37.88-.37H8v3.25c0 .73.29 1.43.81 1.94.52.52 1.21.81 1.94.81H14v.25c0 .2.08.39.22.53.28.28.78.28 1.06 0a.75.75 0 0 0 .22-.53v-1a.786.786 0 0 0-.05-.25l-.01-.11c-.03-.06-.08-.12-.12-.17l-6-5.99c-.05-.04-.1-.08-.16-.12h-.03L8.77 0H2.75C2.02 0 1.32.29.81.81.29 1.32 0 2.02 0 2.75v14c0 .73.29 1.42.81 1.94.51.51 1.22.81 1.94.81h5a.75.75 0 0 0 0-1.5zM9.5 2.56L12.94 6h-2.19c-.33 0-.65-.13-.88-.37-.23-.24-.37-.55-.37-.88V2.56z"/><path d="M7.75 14.05h-3a.75.75 0 0 0 0 1.5h3a.75.75 0 0 0 0-1.5zm10.47-2.25a.847.847 0 0 0-.3-.15.616.616 0 0 0-.33 0c-.42.09-.84.09-1.25 0-.42-.09-.8-.26-1.14-.51a.75.75 0 0 0-.88 0c-.35.25-.73.42-1.15.51-.42.09-.84.09-1.25 0a.875.875 0 0 0-.16-.02c-.06 0-.12.01-.18.02-.11.03-.21.08-.3.15-.09.07-.16.16-.21.27-.05.1-.07.21-.07.33v2.34c0 .67.16 1.35.46 1.95.3.6.74 1.13 1.28 1.54l1.55 1.11c.27.21.64.2.9 0l1.56-1.16c.53-.4.97-.92 1.27-1.52.3-.59.46-1.26.47-1.92v-2.37c0-.11-.03-.22-.07-.32a.672.672 0 0 0-.2-.25zM17 14.75c0 .44-.09.88-.28 1.27-.19.39-.47.75-.81 1.02l-1.15.83-1.15-.82c-.35-.28-.63-.63-.82-1.02-.19-.39-.29-.83-.28-1.27v-1.52l.24-.01c.66-.03 1.31-.21 1.89-.52l.12-.06.12.06c.58.31 1.23.49 1.89.52H17v1.52z"/></symbol><symbol viewBox="0 0 24 24" id="icon-share" xmlns="http://www.w3.org/2000/svg"><path d="M18 14a4 4 0 0 0-3.08 1.48l-5.1-2.35a3.64 3.64 0 0 0 0-2.26l5.1-2.35a4 4 0 1 0-.85-1.81L8.79 9.14a4 4 0 1 0 0 5.72l5.28 2.43A4.166 4.166 0 0 0 14 18a4 4 0 1 0 4-4zm0-10a2 2 0 1 1 0 4 2 2 0 0 1 0-4zM6 14a2 2 0 1 1 0-4 2 2 0 0 1 0 4zm12 6a2 2 0 1 1 0-4 2 2 0 0 1 0 4z"/></symbol><symbol viewBox="0 0 36 36" id="icon-why" xmlns="http://www.w3.org/2000/svg"><path d="M16.935 22.935a2.374 2.374 0 0 0-.18.225 1.137 1.137 0 0 0-.135.27.96.96 0 0 0-.09.27c-.007.1-.007.2 0 .3a1.26 1.26 0 0 0 .12.57 1.352 1.352 0 0 0 .81.81 1.41 1.41 0 0 0 1.14 0 1.35 1.35 0 0 0 .81-.81 1.5 1.5 0 0 0 .09-.57 1.502 1.502 0 0 0-1.5-1.509 1.5 1.5 0 0 0-1.065.444zM18 3a15 15 0 1 0 0 30 15 15 0 0 0 0-30zm0 27a12 12 0 1 1 0-24 12 12 0 0 1 0 24zm0-19.5a4.5 4.5 0 0 0-3.9 2.25 1.5 1.5 0 1 0 2.595 1.5A1.5 1.5 0 0 1 18 13.5a1.5 1.5 0 1 1 0 3 1.5 1.5 0 0 0-1.5 1.5v1.5a1.5 1.5 0 1 0 3 0v-.27A4.5 4.5 0 0 0 18 10.5z"/></symbol><symbol viewBox="0 0 141 49" id="logotip" xmlns="http://www.w3.org/2000/svg"><path d="M53.155 12.23c1.328 1.566 1.988 3.907 1.988 7.038V31.41h-5.21V20.212c0-1.683-.297-2.938-.884-3.764-.593-.826-1.432-1.242-2.525-1.242-1.223 0-2.192.466-2.908 1.397-.717.932-1.069 2.317-1.069 4.162v10.64h-5.21V20.212c0-3.335-1.137-5.006-3.41-5.006-1.203 0-2.16.466-2.87 1.397-.71.932-1.068 2.317-1.068 4.162v10.64h-5.212V10.59h4.977v2.05a6.684 6.684 0 0 1 2.457-2.05c.97-.472 2.032-.708 3.193-.708 1.271 0 2.414.298 3.439.888 1.025.59 1.846 1.453 2.47 2.584a7.658 7.658 0 0 1 2.79-2.56c1.124-.602 2.36-.906 3.693-.906 2.241 0 4.032.776 5.36 2.342zm-42.35 13.881s-1.463.982-2.692 1.05c-1.068.056-1.525-.044-2.173-.777-.531-.596-.79-1.888-.71-3.49v-7.72h6.47v-4.597H5.237V4.322H0v18.603c0 1.366.105 2.602.321 3.67.216 1.081.593 2.02 1.124 2.783a5.146 5.146 0 0 0 2.18 1.777c.9.403 2.037.608 3.37.608 1.094 0 2.063-.13 2.878-.379.803-.248 2.538-1.111 2.538-1.111l-1.606-4.162zm62.856-5.39c0 2.08-.531 3.732-1.575 4.913-1.043 1.174-2.507 1.496-4.353 1.496-1.803 0-2.97-.633-3.402-.844V16.012c.439-.273 1.013-.527 1.723-.751a7.674 7.674 0 0 1 2.352-.354c1.816 0 3.155.59 3.99 1.745.839 1.162 1.265 2.062 1.265 4.069zm4.76-4.38c-.438-1.341-1.074-2.509-1.895-3.465-.821-.957-1.865-1.708-3.094-2.23-1.228-.516-2.636-.783-4.192-.783-2.482 0-4.353.994-4.921 1.423V2l-5.292.031v27.74s2.445 1.993 8.737 1.993c1.741 0 3.328-.255 4.711-.758 1.383-.503 2.581-1.248 3.557-2.205.975-.956 1.735-2.124 2.26-3.466.525-1.341.784-2.87.784-4.54.006-1.609-.216-3.112-.655-4.453zm39.61-5.97l-1.118 5.032c-.562-.218-1.074-.348-2.062-.348-2.266 0-4.637 2.782-4.637 4.857v11.49h-5.205l-.019-20.825h4.958l.019 2.652c1.735-2.205 4.421-3.596 8.064-2.857zm13.436 10.207l8.039-9.994h-6.069l-7.336 9.1V2h-5.242v29.41h5.242v-9.615l8.25 9.615h6.464l-9.348-10.832zm-39.77-6.428c2.637 0 4.81 2.056 5.07 4.696H86.629c.259-2.634 2.426-4.696 5.069-4.696zm10.077 8.416c.087-.571.13-1.155.13-1.758 0-.118-.006-.236-.006-.354a11.46 11.46 0 0 0-.161-1.608c-.845-5.013-4.624-9.02-9.737-9.02-.117 0-.234-.012-.352-.012-5.915 0-10.255 4.92-10.255 10.988S85.986 31.79 91.648 31.79c.118 0 .235-.007.352-.013.13.006.254.013.383.013 3.26 0 6.187-1.416 8.2-3.671l-.735-.715-2.297-2.223c-2.198 2.267-5.57 2.888-8.267 1.292-1.5-.888-2.42-2.218-2.723-3.913h15.213v.006zM15.647 10.59h5.186v20.814h-5.186V10.59zM18.35 0c1.488 0 2.976 1.205 2.976 3.1 0 2.13-1.488 3.329-2.976 3.329-1.76 0-3.247-1.205-3.247-3.33C15.104 1.205 16.591 0 18.35 0zm117.68 46.18l1.444-3.441 1.445 3.44h-2.889zm3.964 2.559H141l-3.044-7.025h-.951l-3.038 7.025h.988l.735-1.758h3.563l.741 1.758zm-5.928-7.025h-5.526v.876h2.291v6.149h.938v-6.15h2.297v-.875zm-8.552 4.025h-1.63v-3.15h1.63c.606 0 1.069.137 1.39.404.321.274.481.659.481 1.168 0 .51-.16.9-.481 1.168-.321.273-.784.41-1.39.41zm.025-4.025h-2.612v7.025h.957v-2.13h1.655c.871 0 1.55-.218 2.05-.653.5-.435.747-1.03.747-1.795 0-.764-.247-1.36-.747-1.795-.494-.435-1.179-.652-2.05-.652zm-7.718 6.211a2.553 2.553 0 0 1-2.272-1.323c-.229-.41-.34-.87-.34-1.379s.111-.969.34-1.379c.228-.41.537-.733.938-.968a2.585 2.585 0 0 1 1.334-.355c.494 0 .932.118 1.328.355.395.236.703.559.926.968.228.41.339.87.339 1.38 0 .509-.111.968-.339 1.378-.229.41-.537.733-.926.97a2.532 2.532 0 0 1-1.328.353zm0 .895c.673 0 1.278-.156 1.822-.466.543-.31.969-.74 1.271-1.286.309-.546.457-1.161.457-1.845 0-.683-.154-1.298-.457-1.838a3.333 3.333 0 0 0-1.271-1.286 3.603 3.603 0 0 0-1.822-.466 3.61 3.61 0 0 0-1.828.466c-.543.31-.969.74-1.278 1.292a3.686 3.686 0 0 0-.463 1.839 3.7 3.7 0 0 0 .463 1.838c.309.547.735.981 1.278 1.292a3.67 3.67 0 0 0 1.828.46zm-11.571-3.603c0-.69.222-1.224.673-1.609.451-.378 1.105-.596 1.957-.652v4.516c-.845-.056-1.494-.273-1.951-.659-.45-.385-.679-.913-.679-1.596zm3.526 2.255v-4.516c.839.056 1.494.273 1.951.659.457.385.685.913.685 1.59 0 .69-.222 1.223-.673 1.608-.457.386-1.105.61-1.963.659zm3.556-2.255c0-.925-.308-1.652-.932-2.18-.624-.534-1.494-.82-2.618-.87v-.714h-.889v.714c-1.13.05-2.007.336-2.631.864-.623.528-.932 1.26-.932 2.186 0 .926.309 1.652.932 2.18.624.528 1.501.814 2.631.864v.745h.889v-.745c1.13-.038 2.007-.323 2.624-.851.611-.534.926-1.267.926-2.193zm-9.484 3.522l-.012-7.025h-.784l-2.76 4.938-2.797-4.938h-.784v7.025h.92v-5.087l2.42 4.236h.438l2.421-4.267.012 5.118h.926zm-12.237-.814a2.55 2.55 0 0 1-2.273-1.323c-.228-.41-.34-.87-.34-1.379s.112-.969.34-1.379a2.52 2.52 0 0 1 .939-.968 2.582 2.582 0 0 1 1.334-.355 2.52 2.52 0 0 1 2.253 1.323c.229.41.34.87.34 1.38 0 .509-.111.968-.34 1.378a2.58 2.58 0 0 1-.926.97c-.395.235-.84.353-1.328.353zm0 .895a3.6 3.6 0 0 0 1.821-.466c.543-.31.97-.74 1.272-1.286.309-.546.457-1.161.457-1.845a3.71 3.71 0 0 0-.457-1.838 3.338 3.338 0 0 0-1.272-1.286 3.6 3.6 0 0 0-1.822-.466c-.679 0-1.284.155-1.827.466-.543.31-.97.74-1.278 1.292a3.678 3.678 0 0 0-.463 1.839c0 .677.154 1.285.463 1.838a3.37 3.37 0 0 0 1.278 1.292 3.65 3.65 0 0 0 1.828.46zm-5.076-.081h1.093l-2.507-3.621 2.396-3.404h-1.025l-2.106 3.05h-1.42v-3.05h-.938v7.025h.938v-3.093h1.396l2.173 3.093zm-12.194-.814a2.55 2.55 0 0 1-2.273-1.323c-.228-.41-.34-.87-.34-1.379s.112-.969.34-1.379a2.52 2.52 0 0 1 .939-.968 2.583 2.583 0 0 1 1.334-.355 2.518 2.518 0 0 1 2.253 1.323c.229.41.34.87.34 1.38 0 .509-.111.968-.34 1.378a2.58 2.58 0 0 1-.926.97 2.528 2.528 0 0 1-1.328.353zm0 .895a3.6 3.6 0 0 0 1.821-.466c.543-.31.97-.74 1.272-1.286.309-.546.457-1.161.457-1.845 0-.683-.154-1.298-.457-1.838a3.338 3.338 0 0 0-1.272-1.286 3.6 3.6 0 0 0-1.822-.466c-.679 0-1.284.155-1.827.466-.544.31-.97.74-1.278 1.292a3.677 3.677 0 0 0-.463 1.839c0 .677.154 1.285.463 1.838a3.37 3.37 0 0 0 1.278 1.292c.543.304 1.148.46 1.828.46zm-7.126-.876h-2.1v-2.38h2.1c.513 0 .895.094 1.155.287.26.192.389.484.389.888 0 .801-.513 1.205-1.544 1.205zm-2.1-5.441h1.866c.457 0 .815.1 1.062.298.246.199.37.484.37.857s-.123.658-.37.851c-.247.193-.606.292-1.069.292H65.11v-2.298h.006zm3.23 2.59c.334-.137.587-.336.772-.603.179-.267.272-.59.272-.975 0-.584-.204-1.03-.618-1.341-.413-.31-.988-.466-1.716-.466H64.17v7.025h3.063c.809 0 1.426-.168 1.852-.503.426-.336.636-.808.636-1.417 0-.453-.117-.826-.352-1.118-.228-.285-.574-.484-1.025-.602zm-5.34-3.379h-5.527v.876h2.29v6.149h.94v-6.15h2.296v-.875zm-8.41 7.106a3.61 3.61 0 0 0 1.438-.28c.439-.186.81-.46 1.118-.82l-.624-.633c-.512.559-1.142.844-1.89.844-.5 0-.95-.118-1.351-.354a2.537 2.537 0 0 1-.945-.969c-.229-.41-.34-.87-.34-1.378 0-.51.111-.97.34-1.38.228-.41.543-.732.945-.968a2.617 2.617 0 0 1 1.352-.354c.753 0 1.383.28 1.89.832l.623-.634a3.023 3.023 0 0 0-1.112-.82 3.603 3.603 0 0 0-1.438-.273 3.6 3.6 0 0 0-1.822.466c-.543.31-.97.74-1.272 1.286-.308.546-.457 1.161-.457 1.838s.155 1.299.457 1.845c.31.547.729.975 1.272 1.286a3.56 3.56 0 0 0 1.816.466zm-7.107-.876h-2.1v-2.38h2.1c.512 0 .895.094 1.154.287.26.192.39.484.39.888-.007.801-.52 1.205-1.544 1.205zm-2.1-5.441h1.865c.457 0 .815.1 1.062.298.247.199.37.484.37.857s-.123.658-.37.851c-.247.193-.599.292-1.068.292h-1.865v-2.298h.007zm3.23 2.59c.333-.137.586-.336.771-.603.18-.267.272-.59.272-.975 0-.584-.204-1.03-.617-1.341-.414-.31-.988-.466-1.717-.466h-2.883v7.025h3.062c.81 0 1.427-.168 1.853-.503.426-.336.636-.808.636-1.417 0-.453-.118-.826-.352-1.118-.229-.285-.575-.484-1.025-.602zm-6.113-3.379l-2.229 4.453-2.173-4.453h-1.025l2.698 5.33-.155.248c-.271.465-.623.701-1.043.701a1.84 1.84 0 0 1-.63-.13l-.247.801c.309.143.605.212.902.212.376 0 .722-.112 1.043-.342.321-.23.6-.572.834-1.031l2.976-5.789h-.951zm-7.576 0v3.354a4.33 4.33 0 0 1-1.859.441c-.555 0-.987-.143-1.29-.422-.303-.28-.457-.684-.457-1.205v-2.168h-.939v2.28c0 .77.223 1.36.674 1.776.45.416 1.086.621 1.901.621.6 0 1.254-.143 1.964-.429v2.783h.95v-7.031h-.944zm-11.997 6.15v-2.268h3.359v-.85h-3.36V42.59h3.773v-.876h-4.73v7.025h4.866v-.876h-3.908zm-6.063.061a2.55 2.55 0 0 1-2.273-1.323c-.228-.41-.34-.87-.34-1.379s.112-.969.34-1.379a2.52 2.52 0 0 1 .939-.968 2.583 2.583 0 0 1 1.334-.355c.487 0 .932.118 1.327.355.395.236.704.559.926.968.229.41.34.87.34 1.38 0 .509-.111.968-.34 1.378-.228.41-.537.733-.926.97-.395.235-.84.353-1.327.353zm0 .895a3.6 3.6 0 0 0 1.821-.466c.543-.31.97-.74 1.272-1.286.309-.546.457-1.161.457-1.845 0-.683-.154-1.298-.457-1.838a3.338 3.338 0 0 0-1.272-1.286 3.6 3.6 0 0 0-1.821-.466 3.6 3.6 0 0 0-1.828.466c-.543.31-.97.74-1.278 1.292a3.678 3.678 0 0 0-.463 1.839c0 .677.154 1.285.463 1.838a3.37 3.37 0 0 0 1.278 1.292 3.65 3.65 0 0 0 1.828.46zm-7.126-.876H7.644v-2.38h2.1c.512 0 .895.094 1.154.287.26.192.389.484.389.888 0 .801-.519 1.205-1.544 1.205zm-2.099-5.441h1.865c.457 0 .815.1 1.062.298.247.199.37.484.37.857s-.123.658-.37.851c-.247.193-.6.292-1.069.292H7.638v-2.298h.006zm3.23 2.59c.333-.137.586-.336.771-.603.18-.267.272-.59.272-.975 0-.584-.204-1.03-.618-1.341-.413-.31-.988-.466-1.716-.466H6.699v7.025h3.063c.809 0 1.426-.168 1.852-.503.426-.336.636-.808.636-1.417 0-.453-.117-.826-.352-1.118-.228-.285-.574-.484-1.025-.602zm-5.348-3.379H0v.876h2.29v6.149h.94v-6.15h2.296v-.875z"/></symbol><symbol viewBox="0 0 10 20" id="soc-fb" xmlns="http://www.w3.org/2000/svg"><path d="M9.615 0H7.212C4.519 0 2.769 1.935 2.769 4.932v2.269H.385C.173 7.2 0 7.388 0 7.617v3.288c0 .23.173.417.385.417h2.403v8.303c0 .23.174.417.385.417h3.154c.211 0 .385-.188.385-.417v-8.324h2.826c.212 0 .385-.188.385-.417V7.596a.428.428 0 0 0-.115-.291.366.366 0 0 0-.27-.125H6.692V5.265c0-.915.212-1.394 1.308-1.394h1.615c.212 0 .385-.187.385-.416V.416C10 .187 9.827 0 9.615 0z"/></symbol><symbol viewBox="0 0 31 20" id="soc-g" xmlns="http://www.w3.org/2000/svg"><path d="M10.88 12.06h4.843c-.852 2.422-3.153 4.161-5.845 4.141-3.268-.027-5.974-2.66-6.103-5.955-.135-3.533 2.673-6.453 6.15-6.453 1.59 0 3.038.607 4.134 1.61.257.239.65.239.907 0l1.779-1.685a.676.676 0 0 0 0-.975A9.817 9.817 0 0 0 10.12.007C4.648-.109.041 4.414 0 9.932-.04 15.485 4.418 20 9.918 20c5.291 0 9.614-4.174 9.905-9.44.007-.068.014-2.292.014-2.292h-8.958c-.365 0-.663.3-.663.668v2.456c0 .375.298.668.663.668zm17.164-3.568v-2.4a.584.584 0 0 0-.582-.587h-2.003a.584.584 0 0 0-.582.586v2.401h-2.381a.584.584 0 0 0-.582.587v2.02c0 .327.264.586.582.586h2.381v2.4c0 .328.264.587.582.587h2.003a.584.584 0 0 0 .582-.586v-2.401h2.381a.584.584 0 0 0 .582-.587V9.08a.584.584 0 0 0-.582-.587h-2.381z"/></symbol><symbol viewBox="0 0 36 20" id="soc-vk" xmlns="http://www.w3.org/2000/svg"><path d="M35.81 18.057a3.557 3.557 0 0 0-.125-.23c-.624-1.093-1.819-2.442-3.578-4.033l-.04-.039-.019-.019-.02-.019h-.02c-.8-.741-1.306-1.24-1.516-1.496-.387-.485-.472-.978-.262-1.476.15-.377.715-1.176 1.687-2.39.512-.646.919-1.164 1.22-1.554 2.16-2.8 3.1-4.59 2.81-5.363l-.111-.179c-.072-.108-.27-.21-.578-.3-.315-.09-.715-.109-1.201-.045L28.66.953c-.085-.032-.21-.026-.374.006-.165.038-.243.058-.243.058l-.092.044-.072.058a.795.795 0 0 0-.204.192c-.072.09-.138.198-.184.32a29.354 29.354 0 0 1-2.008 4.103 38.4 38.4 0 0 1-1.274 1.962c-.387.556-.709.959-.972 1.22a5.828 5.828 0 0 1-.715.627c-.21.16-.374.224-.486.198-.111-.025-.216-.05-.322-.07a1.167 1.167 0 0 1-.42-.447 2.072 2.072 0 0 1-.216-.71 7.09 7.09 0 0 1-.066-.741c-.006-.205 0-.499.007-.876.013-.377.02-.633.02-.767 0-.46.006-.965.026-1.508.02-.544.033-.972.046-1.285.013-.313.02-.652.02-1.004 0-.351-.02-.626-.066-.83a3.043 3.043 0 0 0-.197-.582A1.022 1.022 0 0 0 20.48.48a2.37 2.37 0 0 0-.63-.25c-.663-.147-1.503-.223-2.527-.236C15-.032 13.51.115 12.847.434a2.393 2.393 0 0 0-.71.55c-.222.27-.255.416-.091.442.748.108 1.28.37 1.595.786l.112.217c.085.16.177.441.262.837.086.403.145.844.171 1.33.06.888.06 1.65 0 2.282a35.233 35.233 0 0 1-.177 1.476c-.06.352-.138.64-.256.857a5.49 5.49 0 0 1-.223.403.288.288 0 0 1-.092.089c-.165.058-.329.09-.506.09s-.387-.084-.637-.256a4.248 4.248 0 0 1-.774-.703c-.27-.3-.571-.716-.913-1.253a22.424 22.424 0 0 1-1.05-1.898l-.302-.53a34.04 34.04 0 0 1-.768-1.49 25.771 25.771 0 0 1-.86-1.892 1.179 1.179 0 0 0-.453-.582l-.092-.057a1.053 1.053 0 0 0-.302-.154 1.973 1.973 0 0 0-.433-.121L1.214.895c-.525 0-.88.115-1.07.345l-.072.109A.557.557 0 0 0 0 1.662c0 .134.04.3.112.492A59.638 59.638 0 0 0 2.56 7.121c.88 1.598 1.648 2.876 2.298 3.848a45.66 45.66 0 0 0 1.989 2.755c.676.862 1.122 1.418 1.339 1.661.217.243.394.429.519.55l.466.441c.302.294.741.64 1.32 1.048.583.41 1.227.812 1.93 1.208.708.397 1.529.716 2.46.966a8.7 8.7 0 0 0 2.738.3h2.153c.44-.038.769-.173.992-.403l.072-.09a1.01 1.01 0 0 0 .138-.338c.046-.153.065-.32.065-.505a5.56 5.56 0 0 1 .125-1.413c.092-.421.197-.735.322-.946.118-.21.256-.39.4-.536.151-.147.256-.237.322-.262a.894.894 0 0 1 .15-.064c.303-.096.65 0 1.058.28.407.288.787.64 1.142 1.062.355.422.781.888 1.287 1.413.498.524.938.913 1.313 1.17l.374.217c.25.146.577.28.978.402.4.122.748.154 1.05.09l4.799-.07c.472 0 .847-.077 1.103-.23.262-.154.42-.32.466-.506.052-.185.052-.39.006-.62a2.393 2.393 0 0 0-.124-.492z"/></symbol><symbol viewBox="0 0 28 20" id="soc-yb" xmlns="http://www.w3.org/2000/svg"><path d="M22.187 0H5.813C2.606 0 0 2.63 0 5.868v8.258c0 3.244 2.606 5.868 5.813 5.868H22.18c3.213 0 5.813-2.63 5.813-5.868V5.868C28 2.63 25.394 0 22.187 0zm-3.935 10.405l-7.66 3.684a.304.304 0 0 1-.437-.282V6.205c0-.233.243-.38.444-.276l7.659 3.918a.311.311 0 0 1-.006.558z"/></symbol></svg>