<?xml version="1.0" encoding="utf-8"?><svg xmlns="http://www.w3.org/2000/svg" xmlns:xlink="http://www.w3.org/1999/xlink"><symbol viewBox="0 0 144 40" id="design" xmlns="http://www.w3.org/2000/svg"><path d="M76.624 6.729c.572 0 1.07-.1 1.492-.326a2.54 2.54 0 0 0 .995-.925c.224-.4.348-.876.348-1.401s-.124-1-.348-1.4c-.224-.401-.547-.701-.995-.926-.422-.226-.92-.326-1.492-.326H74.76v5.279h1.864v.025zM73.343.225h3.356c.82 0 1.542.15 2.188.475a3.504 3.504 0 0 1 1.467 1.35c.348.576.522 1.252.522 2.027 0 .776-.174 1.426-.522 2.026a3.658 3.658 0 0 1-1.467 1.351c-.646.325-1.367.475-2.188.475h-3.356V.225zM88.26 6.729v1.2h-5.768V.225h5.619v1.2h-4.177v2.002h3.705v1.175h-3.705V6.73h4.326zm2.361 1.076c-.547-.175-.994-.4-1.317-.675l.497-1.1c.323.25.696.45 1.144.6.447.15.92.225 1.367.225.572 0 .995-.1 1.268-.276.273-.175.423-.425.423-.725 0-.225-.075-.4-.224-.55-.15-.15-.348-.25-.597-.326-.249-.075-.572-.175-.994-.275-.572-.15-1.07-.275-1.417-.425a2.213 2.213 0 0 1-.92-.65c-.249-.3-.398-.7-.398-1.201 0-.425.124-.826.348-1.15.224-.351.572-.626 1.044-.826.472-.2 1.02-.3 1.716-.3.472 0 .92.05 1.392.175.447.125.845.275 1.168.5l-.447 1.1c-.348-.2-.696-.35-1.044-.45-.373-.1-.721-.15-1.07-.15-.571 0-.969.1-1.243.275-.273.2-.422.45-.422.75 0 .226.075.401.224.551.149.15.348.25.596.325.249.075.572.175.995.275a7.837 7.837 0 0 1 1.392.426c.373.15.671.35.945.65.248.3.398.7.398 1.2 0 .426-.125.801-.348 1.152-.224.35-.572.625-1.045.825-.472.2-1.044.3-1.715.3-.597 0-1.169-.1-1.716-.25zm7.733-7.58h-1.418v7.704h1.418V.225zm7.434 3.777h1.342V7.08c-.397.326-.845.55-1.392.726a5.073 5.073 0 0 1-1.616.25 4.54 4.54 0 0 1-2.113-.5 3.836 3.836 0 0 1-1.467-1.426 4.008 4.008 0 0 1-.547-2.052c0-.75.174-1.425.547-2.026.348-.6.845-1.075 1.492-1.426.621-.35 1.342-.5 2.138-.5.646 0 1.218.1 1.74.325s.97.526 1.318.926l-.895.875c-.597-.6-1.293-.875-2.113-.875a3 3 0 0 0-1.442.35c-.423.225-.746.55-.995.95-.248.4-.348.876-.348 1.401 0 .526.124.976.348 1.401.249.4.572.726.995.976.422.225.895.35 1.417.35.596 0 1.119-.125 1.566-.4V4.002h.025zM115.931.225v7.704h-1.168l-4.227-5.203V7.93h-1.417V.225h1.169l4.226 5.228V.225h1.417zm7.907 6.504v1.2h-5.743V.225h5.594v1.2h-4.177v2.002h3.704v1.175h-3.704V6.73h4.326zm4.997 0c.571 0 1.069-.1 1.491-.326a2.54 2.54 0 0 0 .995-.925c.223-.4.348-.876.348-1.401s-.125-1-.348-1.4c-.224-.401-.547-.701-.995-.926-.422-.226-.92-.326-1.491-.326h-1.865v5.279h1.865v.025zM125.553.225h3.356c.821 0 1.542.15 2.188.475a3.507 3.507 0 0 1 1.467 1.35c.348.576.522 1.252.522 2.027 0 .776-.174 1.426-.522 2.026a3.662 3.662 0 0 1-1.467 1.351c-.646.325-1.367.475-2.188.475h-3.356V.225zM78.738 21.663c0-.75-.547-1.1-1.666-1.1H74.76v2.226h2.312c1.094 0 1.666-.375 1.666-1.126zm-3.953-4.327v2.126h2.014c.497 0 .87-.1 1.143-.275.274-.175.398-.45.398-.8 0-.35-.124-.626-.398-.801-.273-.175-.646-.275-1.143-.275h-2.014v.025zm4.997 3.277c.249.325.373.725.373 1.226 0 .675-.249 1.175-.77 1.55-.523.376-1.269.55-2.238.55h-3.804V16.21h3.58c.895 0 1.591.175 2.088.525.498.35.746.85.746 1.476 0 .375-.1.726-.273 1.026a1.71 1.71 0 0 1-.721.675c.447.125.77.35 1.019.7zm5.146.575v2.727h-1.417v-2.702l-3.008-5.003h1.516l2.238 3.752 2.287-3.752h1.393l-3.009 4.978zm8.727-3.778H91.12v-1.2h6.514v1.2h-2.536v6.505h-1.442V17.41zm6.564-1.2h-1.417v7.705h1.417V16.21zm9.248 7.705l-.025-5.103-2.511 4.227h-.646l-2.511-4.177v5.053h-1.368V16.21h1.169l3.058 5.103 2.983-5.103h1.169l.025 7.705h-1.343zm8.901-2.252c0-.75-.547-1.1-1.666-1.1h-2.312v2.226h2.312c1.094 0 1.666-.375 1.666-1.126zm-3.953-4.327v2.126h2.013c.498 0 .871-.1 1.144-.275.274-.175.398-.45.398-.8 0-.35-.124-.626-.398-.801-.273-.175-.646-.275-1.144-.275h-2.013v.025zm4.997 3.277c.248.325.373.725.373 1.226 0 .675-.249 1.175-.771 1.55-.522.376-1.268.55-2.237.55h-3.804V16.21h3.58c.895 0 1.591.175 2.088.525.497.35.746.85.746 1.476 0 .375-.099.726-.273 1.026a1.71 1.71 0 0 1-.721.675c.447.125.77.35 1.019.7zm7.757 2.101v1.2h-5.743V16.21h5.594v1.2h-4.177v2.002h3.704v1.176h-3.704v2.126h4.326zm6.215-4.903c-.323-.275-.795-.4-1.417-.4h-1.666v3.077h1.666c.622 0 1.094-.125 1.417-.4.323-.276.473-.651.473-1.151 0-.476-.15-.876-.473-1.126zm.497 6.104l-1.566-2.252h-2.038v2.252h-1.418V16.21h3.158c.671 0 1.243.1 1.74.325.497.225.87.526 1.144.95.273.401.398.901.398 1.477 0 .575-.15 1.075-.423 1.5-.274.426-.696.726-1.218.926l1.765 2.527h-1.542zm5.744-3.227l-1.219 1.25v1.977h-1.417V16.21h1.417v3.952l3.804-3.952h1.591l-3.232 3.427L144 23.915h-1.665l-2.71-3.227zM78.638 35.447h1.343v3.077c-.398.325-.845.55-1.392.725a5.08 5.08 0 0 1-1.616.25c-.77 0-1.492-.175-2.114-.5a3.839 3.839 0 0 1-1.466-1.426 4.007 4.007 0 0 1-.547-2.051c0-.75.174-1.426.547-2.026a3.74 3.74 0 0 1 1.491-1.426c.622-.35 1.343-.5 2.138-.5.647 0 1.219.1 1.74.325.523.225.97.525 1.319.925l-.895.876c-.597-.6-1.293-.876-2.114-.876-.547 0-1.02.125-1.442.35a2.6 2.6 0 0 0-.994.95c-.249.401-.348.877-.348 1.402 0 .525.124.975.348 1.4.248.4.572.726.994.976.423.225.895.35 1.417.35.597 0 1.12-.125 1.567-.4v-2.401h.024zm7.832-2.152c-.323-.275-.795-.4-1.417-.4h-1.666v3.077h1.666c.622 0 1.094-.125 1.417-.4.323-.275.472-.65.472-1.151 0-.475-.149-.876-.472-1.126zm.497 6.104l-1.566-2.251h-2.038v2.251h-1.418v-7.705h3.158c.671 0 1.243.1 1.74.326.497.225.87.525 1.144.95.273.4.398.9.398 1.476a2.72 2.72 0 0 1-.423 1.501c-.274.425-.696.725-1.218.926l1.765 2.526h-1.542zm8.081-1.5c.397-.226.72-.55.97-.976a2.93 2.93 0 0 0 .347-1.4c0-.526-.124-.976-.348-1.402a2.288 2.288 0 0 0-.97-.975 2.807 2.807 0 0 0-1.392-.35c-.522 0-.97.125-1.392.35-.398.225-.72.55-.97.975a2.923 2.923 0 0 0-.348 1.401c0 .526.125.976.349 1.401.223.425.547.75.97.976.397.225.87.35 1.391.35.522 0 .97-.125 1.393-.35zm-3.506 1.1a3.84 3.84 0 0 1-1.467-1.425 3.983 3.983 0 0 1-.547-2.027c0-.75.174-1.426.547-2.026a3.84 3.84 0 0 1 1.467-1.426c.622-.35 1.343-.5 2.113-.5a4.55 4.55 0 0 1 2.114.5 3.84 3.84 0 0 1 1.466 1.426c.349.6.547 1.276.547 2.026 0 .75-.174 1.426-.546 2.027a3.84 3.84 0 0 1-1.467 1.425c-.622.35-1.343.5-2.114.5-.77 0-1.491-.15-2.113-.5zm8.676-.401c-.596-.6-.895-1.45-.895-2.576v-4.353h1.417v4.303c0 1.526.647 2.276 1.94 2.276 1.292 0 1.939-.75 1.939-2.276v-4.303h1.392v4.353c0 1.125-.298 1.976-.87 2.576-.597.6-1.417.9-2.461.9-1.045 0-1.865-.3-2.462-.9zm12.431-3.026c.324-.275.473-.65.473-1.126 0-.5-.149-.875-.473-1.126-.323-.275-.795-.4-1.417-.4h-1.665v3.052h1.665c.647-.025 1.119-.15 1.417-.4zm.398-3.553c.497.226.87.526 1.144.951.273.4.398.9.398 1.476 0 .55-.125 1.05-.398 1.451-.274.425-.647.725-1.144.95-.497.226-1.069.326-1.74.326h-1.74v2.226h-1.418v-7.705h3.158c.671 0 1.243.1 1.74.326zM11.685 14.11H0V40h11.685V14.11zm56.089-4.704V0H16.359v9.406h51.415zM11.685 0H0v9.406h11.685V0zm4.699 35.298h4.674L21.033 40h46.74V14.109H16.36l.025 21.189z"/></symbol><symbol viewBox="0 0 36 36" id="icon-bay" xmlns="http://www.w3.org/2000/svg"><path fill-rule="evenodd" clip-rule="evenodd" d="M7.8 2.1A1.5 1.5 0 0 1 9 1.5h18a1.5 1.5 0 0 1 1.2.6l4.5 6c.195.26.3.575.3.9v21a4.5 4.5 0 0 1-4.5 4.5h-21A4.5 4.5 0 0 1 3 30V9c0-.325.105-.64.3-.9l4.5-6zm1.95 2.4L6 9.5V30a1.5 1.5 0 0 0 1.5 1.5h21A1.5 1.5 0 0 0 30 30V9.5l-3.75-5H9.75z"/><path fill-rule="evenodd" clip-rule="evenodd" d="M12 13.5a1.5 1.5 0 0 1 1.5 1.5 4.5 4.5 0 1 0 9 0 1.5 1.5 0 0 1 3 0 7.5 7.5 0 0 1-15 0 1.5 1.5 0 0 1 1.5-1.5zM3 9a1.5 1.5 0 0 1 1.5-1.5h27a1.5 1.5 0 0 1 0 3h-27A1.5 1.5 0 0 1 3 9z"/></symbol><symbol viewBox="0 0 24 24" id="icon-catalog" xmlns="http://www.w3.org/2000/svg"><rect x="3" y="3" width="4" height="4" rx="1"/><rect x="3" y="10" width="4" height="4" rx="1"/><rect x="3" y="17" width="4" height="4" rx="1"/><rect x="10" y="3" width="4" height="4" rx="1"/><rect x="10" y="10" width="4" height="4" rx="1"/><rect x="10" y="17" width="4" height="4" rx="1"/><rect x="17" y="3" width="4" height="4" rx="1"/><rect x="17" y="10" width="4" height="4" rx="1"/><rect x="17" y="17" width="4" height="4" rx="1"/></symbol><symbol viewBox="0 0 32 32" id="icon-compare" xmlns="http://www.w3.org/2000/svg"><path d="M25.73 26h-3.815c-.738 0-1.34-.641-1.34-1.427V9.143c0-.789.602-1.428 1.34-1.428h3.815c.738 0 1.339.641 1.339 1.427v15.429c0 .788-.601 1.429-1.34 1.429zM21.915 8.857c-.089 0-.187.121-.187.285v15.429c0 .163.098.285.187.285h3.815c.088 0 .186-.122.186-.285V9.142c0-.164-.098-.285-.186-.285h-3.815zM18.134 26h-4.197c-.738 0-1.34-.641-1.34-1.427V7.427c0-.788.602-1.427 1.34-1.427h4.197c.738 0 1.34.641 1.34 1.427v17.144c0 .788-.602 1.429-1.34 1.429zM13.937 7.142c-.089 0-.187.122-.187.285v17.144c0 .163.098.285.187.285h4.197c.088 0 .186-.122.186-.285V7.427c0-.163-.098-.285-.186-.285h-4.197zM10.154 26H6.34C5.601 26 5 25.359 5 24.573V14.286c0-.788.601-1.427 1.339-1.427h3.815c.738 0 1.34.641 1.34 1.427v10.287c.001.786-.6 1.427-1.34 1.427zM6.34 13.999c-.088 0-.186.122-.186.285v10.287c0 .163.098.285.186.285h3.815c.088 0 .187-.122.187-.285V14.286c0-.163-.098-.285-.187-.285H6.34v-.002z"/></symbol><symbol viewBox="0 0 24 24" id="icon-humb" xmlns="http://www.w3.org/2000/svg"><path fill-rule="evenodd" clip-rule="evenodd" d="M2 18a1 1 0 0 1 1-1h18a1 1 0 1 1 0 2H3a1 1 0 0 1-1-1zm0-6a1 1 0 0 1 1-1h18a1 1 0 1 1 0 2H3a1 1 0 0 1-1-1zm0-6a1 1 0 0 1 1-1h18a1 1 0 1 1 0 2H3a1 1 0 0 1-1-1z"/></symbol><symbol viewBox="0 0 24 24" id="icon-search" xmlns="http://www.w3.org/2000/svg"><path d="M21.71 20.29L18 16.61A9 9 0 1 0 16.61 18l3.68 3.68a1.002 1.002 0 0 0 1.42 0 1 1 0 0 0 0-1.39zM11 18a7 7 0 1 1 0-14 7 7 0 0 1 0 14z"/></symbol><symbol viewBox="0 0 36 36" id="icon-services" xmlns="http://www.w3.org/2000/svg"><path d="M31.98 14.325l-2.835-.945 1.335-2.67A1.5 1.5 0 0 0 30.195 9L27 5.805a1.5 1.5 0 0 0-1.725-.285l-2.67 1.335-.945-2.835A1.5 1.5 0 0 0 20.25 3h-4.5a1.5 1.5 0 0 0-1.425 1.02l-.945 2.835-2.67-1.335A1.5 1.5 0 0 0 9 5.805L5.805 9a1.5 1.5 0 0 0-.285 1.725l1.335 2.67-2.835.945A1.5 1.5 0 0 0 3 15.75v4.5a1.5 1.5 0 0 0 1.02 1.425l2.835.945-1.335 2.67A1.5 1.5 0 0 0 5.805 27L9 30.195a1.5 1.5 0 0 0 1.725.285l2.67-1.335.945 2.835A1.5 1.5 0 0 0 15.765 33h4.5a1.5 1.5 0 0 0 1.425-1.02l.945-2.835 2.67 1.335A1.5 1.5 0 0 0 27 30.195L30.195 27a1.5 1.5 0 0 0 .285-1.725l-1.335-2.67 2.835-.945A1.5 1.5 0 0 0 33 20.25v-4.5a1.5 1.5 0 0 0-1.02-1.425zM30 19.17l-1.8.6A3 3 0 0 0 26.46 24l.855 1.71-1.65 1.65-1.665-.9a3 3 0 0 0-4.185 1.74l-.6 1.8H16.83l-.6-1.8A3.001 3.001 0 0 0 12 26.46l-1.71.855-1.65-1.65.9-1.665a3 3 0 0 0-1.74-4.23l-1.8-.6v-2.34l1.8-.6A3.002 3.002 0 0 0 9.54 12l-.855-1.665 1.65-1.65L12 9.54a3 3 0 0 0 4.23-1.74l.6-1.8h2.34l.6 1.8A3 3 0 0 0 24 9.54l1.71-.855 1.65 1.65-.9 1.665a3 3 0 0 0 1.74 4.185l1.8.6v2.385zM18 12a6 6 0 1 0 0 12 6 6 0 0 0 0-12zm0 9a3 3 0 1 1 0-5.999A3 3 0 0 1 18 21z"/></symbol><symbol viewBox="0 0 36 36" id="icon-why" xmlns="http://www.w3.org/2000/svg"><path d="M16.935 22.935a2.374 2.374 0 0 0-.18.225 1.137 1.137 0 0 0-.135.27.96.96 0 0 0-.09.27c-.007.1-.007.2 0 .3a1.26 1.26 0 0 0 .12.57 1.352 1.352 0 0 0 .81.81 1.41 1.41 0 0 0 1.14 0 1.35 1.35 0 0 0 .81-.81 1.5 1.5 0 0 0 .09-.57 1.502 1.502 0 0 0-1.5-1.509 1.5 1.5 0 0 0-1.065.444zM18 3a15 15 0 1 0 0 30 15 15 0 0 0 0-30zm0 27a12 12 0 1 1 0-24 12 12 0 0 1 0 24zm0-19.5a4.5 4.5 0 0 0-3.9 2.25 1.5 1.5 0 1 0 2.595 1.5A1.5 1.5 0 0 1 18 13.5a1.5 1.5 0 1 1 0 3 1.5 1.5 0 0 0-1.5 1.5v1.5a1.5 1.5 0 1 0 3 0v-.27A4.5 4.5 0 0 0 18 10.5z"/></symbol><symbol viewBox="0 0 141 49" id="logotip" xmlns="http://www.w3.org/2000/svg"><path d="M53.155 12.23c1.328 1.566 1.988 3.907 1.988 7.038V31.41h-5.21V20.212c0-1.683-.297-2.938-.884-3.764-.593-.826-1.432-1.242-2.525-1.242-1.223 0-2.192.466-2.908 1.397-.717.932-1.069 2.317-1.069 4.162v10.64h-5.21V20.212c0-3.335-1.137-5.006-3.41-5.006-1.203 0-2.16.466-2.87 1.397-.71.932-1.068 2.317-1.068 4.162v10.64h-5.212V10.59h4.977v2.05a6.684 6.684 0 0 1 2.457-2.05c.97-.472 2.032-.708 3.193-.708 1.271 0 2.414.298 3.439.888 1.025.59 1.846 1.453 2.47 2.584a7.658 7.658 0 0 1 2.79-2.56c1.124-.602 2.36-.906 3.693-.906 2.241 0 4.032.776 5.36 2.342zm-42.35 13.881s-1.463.982-2.692 1.05c-1.068.056-1.525-.044-2.173-.777-.531-.596-.79-1.888-.71-3.49v-7.72h6.47v-4.597H5.237V4.322H0v18.603c0 1.366.105 2.602.321 3.67.216 1.081.593 2.02 1.124 2.783a5.146 5.146 0 0 0 2.18 1.777c.9.403 2.037.608 3.37.608 1.094 0 2.063-.13 2.878-.379.803-.248 2.538-1.111 2.538-1.111l-1.606-4.162zm62.856-5.39c0 2.08-.531 3.732-1.575 4.913-1.043 1.174-2.507 1.496-4.353 1.496-1.803 0-2.97-.633-3.402-.844V16.012c.439-.273 1.013-.527 1.723-.751a7.674 7.674 0 0 1 2.352-.354c1.816 0 3.155.59 3.99 1.745.839 1.162 1.265 2.062 1.265 4.069zm4.76-4.38c-.438-1.341-1.074-2.509-1.895-3.465-.821-.957-1.865-1.708-3.094-2.23-1.228-.516-2.636-.783-4.192-.783-2.482 0-4.353.994-4.921 1.423V2l-5.292.031v27.74s2.445 1.993 8.737 1.993c1.741 0 3.328-.255 4.711-.758 1.383-.503 2.581-1.248 3.557-2.205.975-.956 1.735-2.124 2.26-3.466.525-1.341.784-2.87.784-4.54.006-1.609-.216-3.112-.655-4.453zm39.61-5.97l-1.118 5.032c-.562-.218-1.074-.348-2.062-.348-2.266 0-4.637 2.782-4.637 4.857v11.49h-5.205l-.019-20.825h4.958l.019 2.652c1.735-2.205 4.421-3.596 8.064-2.857zm13.436 10.207l8.039-9.994h-6.069l-7.336 9.1V2h-5.242v29.41h5.242v-9.615l8.25 9.615h6.464l-9.348-10.832zm-39.77-6.428c2.637 0 4.81 2.056 5.07 4.696H86.629c.259-2.634 2.426-4.696 5.069-4.696zm10.077 8.416c.087-.571.13-1.155.13-1.758 0-.118-.006-.236-.006-.354a11.46 11.46 0 0 0-.161-1.608c-.845-5.013-4.624-9.02-9.737-9.02-.117 0-.234-.012-.352-.012-5.915 0-10.255 4.92-10.255 10.988S85.986 31.79 91.648 31.79c.118 0 .235-.007.352-.013.13.006.254.013.383.013 3.26 0 6.187-1.416 8.2-3.671l-.735-.715-2.297-2.223c-2.198 2.267-5.57 2.888-8.267 1.292-1.5-.888-2.42-2.218-2.723-3.913h15.213v.006zM15.647 10.59h5.186v20.814h-5.186V10.59zM18.35 0c1.488 0 2.976 1.205 2.976 3.1 0 2.13-1.488 3.329-2.976 3.329-1.76 0-3.247-1.205-3.247-3.33C15.104 1.205 16.591 0 18.35 0zm117.68 46.18l1.444-3.441 1.445 3.44h-2.889zm3.964 2.559H141l-3.044-7.025h-.951l-3.038 7.025h.988l.735-1.758h3.563l.741 1.758zm-5.928-7.025h-5.526v.876h2.291v6.149h.938v-6.15h2.297v-.875zm-8.552 4.025h-1.63v-3.15h1.63c.606 0 1.069.137 1.39.404.321.274.481.659.481 1.168 0 .51-.16.9-.481 1.168-.321.273-.784.41-1.39.41zm.025-4.025h-2.612v7.025h.957v-2.13h1.655c.871 0 1.55-.218 2.05-.653.5-.435.747-1.03.747-1.795 0-.764-.247-1.36-.747-1.795-.494-.435-1.179-.652-2.05-.652zm-7.718 6.211a2.553 2.553 0 0 1-2.272-1.323c-.229-.41-.34-.87-.34-1.379s.111-.969.34-1.379c.228-.41.537-.733.938-.968a2.585 2.585 0 0 1 1.334-.355c.494 0 .932.118 1.328.355.395.236.703.559.926.968.228.41.339.87.339 1.38 0 .509-.111.968-.339 1.378-.229.41-.537.733-.926.97a2.532 2.532 0 0 1-1.328.353zm0 .895c.673 0 1.278-.156 1.822-.466.543-.31.969-.74 1.271-1.286.309-.546.457-1.161.457-1.845 0-.683-.154-1.298-.457-1.838a3.333 3.333 0 0 0-1.271-1.286 3.603 3.603 0 0 0-1.822-.466 3.61 3.61 0 0 0-1.828.466c-.543.31-.969.74-1.278 1.292a3.686 3.686 0 0 0-.463 1.839 3.7 3.7 0 0 0 .463 1.838c.309.547.735.981 1.278 1.292a3.67 3.67 0 0 0 1.828.46zm-11.571-3.603c0-.69.222-1.224.673-1.609.451-.378 1.105-.596 1.957-.652v4.516c-.845-.056-1.494-.273-1.951-.659-.45-.385-.679-.913-.679-1.596zm3.526 2.255v-4.516c.839.056 1.494.273 1.951.659.457.385.685.913.685 1.59 0 .69-.222 1.223-.673 1.608-.457.386-1.105.61-1.963.659zm3.556-2.255c0-.925-.308-1.652-.932-2.18-.624-.534-1.494-.82-2.618-.87v-.714h-.889v.714c-1.13.05-2.007.336-2.631.864-.623.528-.932 1.26-.932 2.186 0 .926.309 1.652.932 2.18.624.528 1.501.814 2.631.864v.745h.889v-.745c1.13-.038 2.007-.323 2.624-.851.611-.534.926-1.267.926-2.193zm-9.484 3.522l-.012-7.025h-.784l-2.76 4.938-2.797-4.938h-.784v7.025h.92v-5.087l2.42 4.236h.438l2.421-4.267.012 5.118h.926zm-12.237-.814a2.55 2.55 0 0 1-2.273-1.323c-.228-.41-.34-.87-.34-1.379s.112-.969.34-1.379a2.52 2.52 0 0 1 .939-.968 2.582 2.582 0 0 1 1.334-.355 2.52 2.52 0 0 1 2.253 1.323c.229.41.34.87.34 1.38 0 .509-.111.968-.34 1.378a2.58 2.58 0 0 1-.926.97c-.395.235-.84.353-1.328.353zm0 .895a3.6 3.6 0 0 0 1.821-.466c.543-.31.97-.74 1.272-1.286.309-.546.457-1.161.457-1.845a3.71 3.71 0 0 0-.457-1.838 3.338 3.338 0 0 0-1.272-1.286 3.6 3.6 0 0 0-1.822-.466c-.679 0-1.284.155-1.827.466-.543.31-.97.74-1.278 1.292a3.678 3.678 0 0 0-.463 1.839c0 .677.154 1.285.463 1.838a3.37 3.37 0 0 0 1.278 1.292 3.65 3.65 0 0 0 1.828.46zm-5.076-.081h1.093l-2.507-3.621 2.396-3.404h-1.025l-2.106 3.05h-1.42v-3.05h-.938v7.025h.938v-3.093h1.396l2.173 3.093zm-12.194-.814a2.55 2.55 0 0 1-2.273-1.323c-.228-.41-.34-.87-.34-1.379s.112-.969.34-1.379a2.52 2.52 0 0 1 .939-.968 2.583 2.583 0 0 1 1.334-.355 2.518 2.518 0 0 1 2.253 1.323c.229.41.34.87.34 1.38 0 .509-.111.968-.34 1.378a2.58 2.58 0 0 1-.926.97 2.528 2.528 0 0 1-1.328.353zm0 .895a3.6 3.6 0 0 0 1.821-.466c.543-.31.97-.74 1.272-1.286.309-.546.457-1.161.457-1.845 0-.683-.154-1.298-.457-1.838a3.338 3.338 0 0 0-1.272-1.286 3.6 3.6 0 0 0-1.822-.466c-.679 0-1.284.155-1.827.466-.544.31-.97.74-1.278 1.292a3.677 3.677 0 0 0-.463 1.839c0 .677.154 1.285.463 1.838a3.37 3.37 0 0 0 1.278 1.292c.543.304 1.148.46 1.828.46zm-7.126-.876h-2.1v-2.38h2.1c.513 0 .895.094 1.155.287.26.192.389.484.389.888 0 .801-.513 1.205-1.544 1.205zm-2.1-5.441h1.866c.457 0 .815.1 1.062.298.246.199.37.484.37.857s-.123.658-.37.851c-.247.193-.606.292-1.069.292H65.11v-2.298h.006zm3.23 2.59c.334-.137.587-.336.772-.603.179-.267.272-.59.272-.975 0-.584-.204-1.03-.618-1.341-.413-.31-.988-.466-1.716-.466H64.17v7.025h3.063c.809 0 1.426-.168 1.852-.503.426-.336.636-.808.636-1.417 0-.453-.117-.826-.352-1.118-.228-.285-.574-.484-1.025-.602zm-5.34-3.379h-5.527v.876h2.29v6.149h.94v-6.15h2.296v-.875zm-8.41 7.106a3.61 3.61 0 0 0 1.438-.28c.439-.186.81-.46 1.118-.82l-.624-.633c-.512.559-1.142.844-1.89.844-.5 0-.95-.118-1.351-.354a2.537 2.537 0 0 1-.945-.969c-.229-.41-.34-.87-.34-1.378 0-.51.111-.97.34-1.38.228-.41.543-.732.945-.968a2.617 2.617 0 0 1 1.352-.354c.753 0 1.383.28 1.89.832l.623-.634a3.023 3.023 0 0 0-1.112-.82 3.603 3.603 0 0 0-1.438-.273 3.6 3.6 0 0 0-1.822.466c-.543.31-.97.74-1.272 1.286-.308.546-.457 1.161-.457 1.838s.155 1.299.457 1.845c.31.547.729.975 1.272 1.286a3.56 3.56 0 0 0 1.816.466zm-7.107-.876h-2.1v-2.38h2.1c.512 0 .895.094 1.154.287.26.192.39.484.39.888-.007.801-.52 1.205-1.544 1.205zm-2.1-5.441h1.865c.457 0 .815.1 1.062.298.247.199.37.484.37.857s-.123.658-.37.851c-.247.193-.599.292-1.068.292h-1.865v-2.298h.007zm3.23 2.59c.333-.137.586-.336.771-.603.18-.267.272-.59.272-.975 0-.584-.204-1.03-.617-1.341-.414-.31-.988-.466-1.717-.466h-2.883v7.025h3.062c.81 0 1.427-.168 1.853-.503.426-.336.636-.808.636-1.417 0-.453-.118-.826-.352-1.118-.229-.285-.575-.484-1.025-.602zm-6.113-3.379l-2.229 4.453-2.173-4.453h-1.025l2.698 5.33-.155.248c-.271.465-.623.701-1.043.701a1.84 1.84 0 0 1-.63-.13l-.247.801c.309.143.605.212.902.212.376 0 .722-.112 1.043-.342.321-.23.6-.572.834-1.031l2.976-5.789h-.951zm-7.576 0v3.354a4.33 4.33 0 0 1-1.859.441c-.555 0-.987-.143-1.29-.422-.303-.28-.457-.684-.457-1.205v-2.168h-.939v2.28c0 .77.223 1.36.674 1.776.45.416 1.086.621 1.901.621.6 0 1.254-.143 1.964-.429v2.783h.95v-7.031h-.944zm-11.997 6.15v-2.268h3.359v-.85h-3.36V42.59h3.773v-.876h-4.73v7.025h4.866v-.876h-3.908zm-6.063.061a2.55 2.55 0 0 1-2.273-1.323c-.228-.41-.34-.87-.34-1.379s.112-.969.34-1.379a2.52 2.52 0 0 1 .939-.968 2.583 2.583 0 0 1 1.334-.355c.487 0 .932.118 1.327.355.395.236.704.559.926.968.229.41.34.87.34 1.38 0 .509-.111.968-.34 1.378-.228.41-.537.733-.926.97-.395.235-.84.353-1.327.353zm0 .895a3.6 3.6 0 0 0 1.821-.466c.543-.31.97-.74 1.272-1.286.309-.546.457-1.161.457-1.845 0-.683-.154-1.298-.457-1.838a3.338 3.338 0 0 0-1.272-1.286 3.6 3.6 0 0 0-1.821-.466 3.6 3.6 0 0 0-1.828.466c-.543.31-.97.74-1.278 1.292a3.678 3.678 0 0 0-.463 1.839c0 .677.154 1.285.463 1.838a3.37 3.37 0 0 0 1.278 1.292 3.65 3.65 0 0 0 1.828.46zm-7.126-.876H7.644v-2.38h2.1c.512 0 .895.094 1.154.287.26.192.389.484.389.888 0 .801-.519 1.205-1.544 1.205zm-2.099-5.441h1.865c.457 0 .815.1 1.062.298.247.199.37.484.37.857s-.123.658-.37.851c-.247.193-.6.292-1.069.292H7.638v-2.298h.006zm3.23 2.59c.333-.137.586-.336.771-.603.18-.267.272-.59.272-.975 0-.584-.204-1.03-.618-1.341-.413-.31-.988-.466-1.716-.466H6.699v7.025h3.063c.809 0 1.426-.168 1.852-.503.426-.336.636-.808.636-1.417 0-.453-.117-.826-.352-1.118-.228-.285-.574-.484-1.025-.602zm-5.348-3.379H0v.876h2.29v6.149h.94v-6.15h2.296v-.875z"/></symbol><symbol viewBox="0 0 10 20" id="soc-fb" xmlns="http://www.w3.org/2000/svg"><path d="M9.615 0H7.212C4.519 0 2.769 1.935 2.769 4.932v2.269H.385C.173 7.2 0 7.388 0 7.617v3.288c0 .23.173.417.385.417h2.403v8.303c0 .23.174.417.385.417h3.154c.211 0 .385-.188.385-.417v-8.324h2.826c.212 0 .385-.188.385-.417V7.596a.428.428 0 0 0-.115-.291.366.366 0 0 0-.27-.125H6.692V5.265c0-.915.212-1.394 1.308-1.394h1.615c.212 0 .385-.187.385-.416V.416C10 .187 9.827 0 9.615 0z"/></symbol><symbol viewBox="0 0 31 20" id="soc-g" xmlns="http://www.w3.org/2000/svg"><path d="M10.88 12.06h4.843c-.852 2.422-3.153 4.161-5.845 4.141-3.268-.027-5.974-2.66-6.103-5.955-.135-3.533 2.673-6.453 6.15-6.453 1.59 0 3.038.607 4.134 1.61.257.239.65.239.907 0l1.779-1.685a.676.676 0 0 0 0-.975A9.817 9.817 0 0 0 10.12.007C4.648-.109.041 4.414 0 9.932-.04 15.485 4.418 20 9.918 20c5.291 0 9.614-4.174 9.905-9.44.007-.068.014-2.292.014-2.292h-8.958c-.365 0-.663.3-.663.668v2.456c0 .375.298.668.663.668zm17.164-3.568v-2.4a.584.584 0 0 0-.582-.587h-2.003a.584.584 0 0 0-.582.586v2.401h-2.381a.584.584 0 0 0-.582.587v2.02c0 .327.264.586.582.586h2.381v2.4c0 .328.264.587.582.587h2.003a.584.584 0 0 0 .582-.586v-2.401h2.381a.584.584 0 0 0 .582-.587V9.08a.584.584 0 0 0-.582-.587h-2.381z"/></symbol><symbol viewBox="0 0 36 20" id="soc-vk" xmlns="http://www.w3.org/2000/svg"><path d="M35.81 18.057a3.557 3.557 0 0 0-.125-.23c-.624-1.093-1.819-2.442-3.578-4.033l-.04-.039-.019-.019-.02-.019h-.02c-.8-.741-1.306-1.24-1.516-1.496-.387-.485-.472-.978-.262-1.476.15-.377.715-1.176 1.687-2.39.512-.646.919-1.164 1.22-1.554 2.16-2.8 3.1-4.59 2.81-5.363l-.111-.179c-.072-.108-.27-.21-.578-.3-.315-.09-.715-.109-1.201-.045L28.66.953c-.085-.032-.21-.026-.374.006-.165.038-.243.058-.243.058l-.092.044-.072.058a.795.795 0 0 0-.204.192c-.072.09-.138.198-.184.32a29.354 29.354 0 0 1-2.008 4.103 38.4 38.4 0 0 1-1.274 1.962c-.387.556-.709.959-.972 1.22a5.828 5.828 0 0 1-.715.627c-.21.16-.374.224-.486.198-.111-.025-.216-.05-.322-.07a1.167 1.167 0 0 1-.42-.447 2.072 2.072 0 0 1-.216-.71 7.09 7.09 0 0 1-.066-.741c-.006-.205 0-.499.007-.876.013-.377.02-.633.02-.767 0-.46.006-.965.026-1.508.02-.544.033-.972.046-1.285.013-.313.02-.652.02-1.004 0-.351-.02-.626-.066-.83a3.043 3.043 0 0 0-.197-.582A1.022 1.022 0 0 0 20.48.48a2.37 2.37 0 0 0-.63-.25c-.663-.147-1.503-.223-2.527-.236C15-.032 13.51.115 12.847.434a2.393 2.393 0 0 0-.71.55c-.222.27-.255.416-.091.442.748.108 1.28.37 1.595.786l.112.217c.085.16.177.441.262.837.086.403.145.844.171 1.33.06.888.06 1.65 0 2.282a35.233 35.233 0 0 1-.177 1.476c-.06.352-.138.64-.256.857a5.49 5.49 0 0 1-.223.403.288.288 0 0 1-.092.089c-.165.058-.329.09-.506.09s-.387-.084-.637-.256a4.248 4.248 0 0 1-.774-.703c-.27-.3-.571-.716-.913-1.253a22.424 22.424 0 0 1-1.05-1.898l-.302-.53a34.04 34.04 0 0 1-.768-1.49 25.771 25.771 0 0 1-.86-1.892 1.179 1.179 0 0 0-.453-.582l-.092-.057a1.053 1.053 0 0 0-.302-.154 1.973 1.973 0 0 0-.433-.121L1.214.895c-.525 0-.88.115-1.07.345l-.072.109A.557.557 0 0 0 0 1.662c0 .134.04.3.112.492A59.638 59.638 0 0 0 2.56 7.121c.88 1.598 1.648 2.876 2.298 3.848a45.66 45.66 0 0 0 1.989 2.755c.676.862 1.122 1.418 1.339 1.661.217.243.394.429.519.55l.466.441c.302.294.741.64 1.32 1.048.583.41 1.227.812 1.93 1.208.708.397 1.529.716 2.46.966a8.7 8.7 0 0 0 2.738.3h2.153c.44-.038.769-.173.992-.403l.072-.09a1.01 1.01 0 0 0 .138-.338c.046-.153.065-.32.065-.505a5.56 5.56 0 0 1 .125-1.413c.092-.421.197-.735.322-.946.118-.21.256-.39.4-.536.151-.147.256-.237.322-.262a.894.894 0 0 1 .15-.064c.303-.096.65 0 1.058.28.407.288.787.64 1.142 1.062.355.422.781.888 1.287 1.413.498.524.938.913 1.313 1.17l.374.217c.25.146.577.28.978.402.4.122.748.154 1.05.09l4.799-.07c.472 0 .847-.077 1.103-.23.262-.154.42-.32.466-.506.052-.185.052-.39.006-.62a2.393 2.393 0 0 0-.124-.492z"/></symbol><symbol viewBox="0 0 28 20" id="soc-yb" xmlns="http://www.w3.org/2000/svg"><path d="M22.187 0H5.813C2.606 0 0 2.63 0 5.868v8.258c0 3.244 2.606 5.868 5.813 5.868H22.18c3.213 0 5.813-2.63 5.813-5.868V5.868C28 2.63 25.394 0 22.187 0zm-3.935 10.405l-7.66 3.684a.304.304 0 0 1-.437-.282V6.205c0-.233.243-.38.444-.276l7.659 3.918a.311.311 0 0 1-.006.558z"/></symbol></svg>