<svg width="57" height="57" viewBox="0 0 57 57" xmlns="http://www.w3.org/2000/svg"><path d="M20.4816 24.5742C20.4816 24.5742 9.13819 24.7458 0 24.763V56.9912H11.4463C13.1453 52.6237 22.4122 33.7038 22.9785 32.6484C25.012 28.9074 24.0682 25.089 20.4816 24.5742Z" /><path d="M30.4344 38.1487C29.3533 37.9256 28.6411 39.1097 28.2206 39.7447L19.0996 57H34.7675C33.858 51.2167 31.6871 40.2595 31.6013 39.7189C31.5241 39.2212 31.3353 38.3375 30.4344 38.1487Z" /><path d="M27.9637 15.5135C26.6509 16.0283 23.1072 15.3333 21.863 12.2701C20.7647 9.58438 21.7257 6.68418 24.0081 5.79181C26.282 4.89944 29.0191 6.34954 30.1088 9.03522C31.1986 11.7209 30.2375 14.6211 27.9637 15.5135ZM48.9515 0H0V19.0057C6.95875 19.0915 22.7125 19.1859 23.9223 19.1516C32.0738 18.9285 34.9225 16.0455 38.1316 12.5875C39.6417 10.9572 45.4078 4.18726 48.9515 0Z" /><path d="M43.4183 14.3809C41.0244 16.9722 38.1499 19.4948 37.4292 23.0128C36.5797 27.1743 36.717 30.2375 37.2747 34.4248C38.3044 42.1901 39.866 49.1746 41.8224 57H56.9926V0C52.711 4.25591 44.8084 12.8793 43.4183 14.3809Z"/></svg>