<svg width="144" height="40" viewBox="0 0 144 40" xmlns="http://www.w3.org/2000/svg">
<path d="M76.6245 6.72867C77.1964 6.72867 77.6936 6.62861 78.1163 6.40347C78.5389 6.17833 78.8621 5.87814 79.1107 5.47789C79.3345 5.07764 79.4588 4.60235 79.4588 4.07702C79.4588 3.55169 79.3345 3.07639 79.1107 2.67614C78.887 2.27589 78.5638 1.9757 78.1163 1.75056C77.6936 1.52542 77.1964 1.42536 76.6245 1.42536H74.7599V6.70366H76.6245V6.72867ZM73.3428 0.224609H76.6991C77.5196 0.224609 78.2406 0.374703 78.887 0.699906C79.5334 1.02511 80.0058 1.47539 80.3538 2.05075C80.7019 2.62611 80.8759 3.30153 80.8759 4.07702C80.8759 4.8525 80.7019 5.50291 80.3538 6.10328C80.0058 6.67864 79.5085 7.12893 78.887 7.45413C78.2406 7.77933 77.5196 7.92943 76.6991 7.92943H73.3428V0.224609Z" />
<path d="M88.2602 6.72867V7.92943H82.4922V0.224609H88.111V1.42536H83.9342V3.42661H87.6386V4.60235H83.9342V6.72867H88.2602Z" />
<path d="M90.6214 7.80517C90.0744 7.63006 89.6269 7.40492 89.3037 7.12975L89.8009 6.02906C90.1242 6.27922 90.4971 6.47935 90.9446 6.62944C91.3921 6.77953 91.8645 6.85458 92.312 6.85458C92.8838 6.85458 93.3065 6.75452 93.5799 6.57941C93.8534 6.4043 94.0026 6.15414 94.0026 5.85395C94.0026 5.62881 93.928 5.4537 93.7788 5.30361C93.6297 5.15352 93.4308 5.05345 93.1822 4.97841C92.9335 4.90336 92.6103 4.8033 92.1877 4.70324C91.6159 4.55314 91.1186 4.42806 90.7706 4.27797C90.3976 4.12788 90.0993 3.92775 89.8507 3.62756C89.602 3.32738 89.4529 2.92713 89.4529 2.42681C89.4529 2.00155 89.5772 1.6013 89.8009 1.27609C90.0247 0.925875 90.3728 0.650703 90.8451 0.450578C91.3175 0.250453 91.8645 0.150391 92.5606 0.150391C93.033 0.150391 93.4805 0.200422 93.9529 0.3255C94.4004 0.450578 94.7982 0.600672 95.1214 0.825813L94.6739 1.9265C94.3258 1.72638 93.9777 1.57628 93.6297 1.47622C93.2567 1.37616 92.9087 1.32613 92.5606 1.32613C91.9888 1.32613 91.591 1.42619 91.3175 1.6013C91.044 1.80142 90.8949 2.05158 90.8949 2.35177C90.8949 2.57691 90.9695 2.75202 91.1186 2.90211C91.2678 3.0522 91.4667 3.15227 91.7153 3.22731C91.9639 3.30236 92.2871 3.40242 92.7098 3.50249C93.2816 3.62756 93.754 3.77766 94.102 3.92775C94.475 4.07784 94.7733 4.27797 95.0468 4.57816C95.2954 4.87834 95.4446 5.27859 95.4446 5.77891C95.4446 6.20417 95.3203 6.57941 95.0965 6.92963C94.8728 7.27985 94.5247 7.55502 94.0523 7.75514C93.5799 7.95527 93.0081 8.05533 92.3369 8.05533C91.7402 8.05533 91.1683 7.95527 90.6214 7.80517Z" />
<path d="M98.3537 0.224609H96.9365V7.92943H98.3537V0.224609Z" />
<path d="M105.788 4.00242H107.13V7.07935C106.733 7.40455 106.285 7.62969 105.738 7.8048C105.216 7.97991 104.669 8.05496 104.122 8.05496C103.351 8.05496 102.63 7.87985 102.009 7.55464C101.387 7.20442 100.89 6.72913 100.542 6.12875C100.194 5.52838 99.9951 4.85295 99.9951 4.07747C99.9951 3.327 100.169 2.65158 100.542 2.0512C100.89 1.45083 101.387 0.975532 102.034 0.625313C102.655 0.275094 103.376 0.125 104.172 0.125C104.818 0.125 105.39 0.225063 105.912 0.450203C106.434 0.675344 106.882 0.975532 107.23 1.37578L106.335 2.25133C105.738 1.65095 105.042 1.37578 104.222 1.37578C103.675 1.37578 103.202 1.50086 102.78 1.726C102.357 1.95114 102.034 2.27634 101.785 2.67659C101.537 3.07684 101.437 3.55214 101.437 4.07747C101.437 4.6028 101.561 5.05308 101.785 5.47835C102.034 5.8786 102.357 6.2038 102.78 6.45396C103.202 6.6791 103.675 6.80417 104.197 6.80417C104.793 6.80417 105.316 6.6791 105.763 6.40392V4.00242H105.788Z" />
<path d="M115.931 0.224609V7.92943H114.763L110.536 2.72617V7.92943H109.119V0.224609H110.288L114.514 5.45288V0.224609H115.931Z" />
<path d="M123.838 6.72867V7.92943H118.095V0.224609H123.689V1.42536H119.512V3.42661H123.216V4.60235H119.512V6.72867H123.838Z" />
<path d="M128.835 6.72867C129.406 6.72867 129.904 6.62861 130.326 6.40347C130.749 6.17833 131.072 5.87814 131.321 5.47789C131.544 5.07764 131.669 4.60235 131.669 4.07702C131.669 3.55169 131.544 3.07639 131.321 2.67614C131.097 2.27589 130.774 1.9757 130.326 1.75056C129.904 1.52542 129.406 1.42536 128.835 1.42536H126.97V6.70366H128.835V6.72867ZM125.553 0.224609H128.909C129.73 0.224609 130.451 0.374703 131.097 0.699906C131.743 1.02511 132.216 1.47539 132.564 2.05075C132.912 2.62611 133.086 3.30153 133.086 4.07702C133.086 4.8525 132.912 5.50291 132.564 6.10328C132.216 6.67864 131.718 7.12893 131.097 7.45413C130.451 7.77933 129.73 7.92943 128.909 7.92943H125.553V0.224609Z" />
<path d="M78.7378 21.6634C78.7378 20.9129 78.1908 20.5627 77.0721 20.5627H74.7599V22.7891H77.0721C78.166 22.7891 78.7378 22.4138 78.7378 21.6634ZM74.7848 17.3357V19.462H76.7986C77.2958 19.462 77.6687 19.3619 77.9422 19.1868C78.2157 19.0117 78.34 18.7365 78.34 18.3863C78.34 18.0361 78.2157 17.7609 77.9422 17.5858C77.6687 17.4107 77.2958 17.3106 76.7986 17.3106H74.7848V17.3357ZM79.782 20.6127C80.0306 20.9379 80.1549 21.3382 80.1549 21.8385C80.1549 22.5139 79.9063 23.0142 79.3842 23.3894C78.8621 23.7647 78.1163 23.9398 77.1466 23.9398H73.3428V16.21H76.9229C77.8179 16.21 78.514 16.3851 79.0113 16.7353C79.5085 17.0855 79.7571 17.5858 79.7571 18.2112C79.7571 18.5864 79.6577 18.9367 79.4837 19.2369C79.3096 19.537 79.061 19.7622 78.7627 19.9123C79.2102 20.0374 79.5334 20.2625 79.782 20.6127Z" />
<path d="M84.9284 21.1881V23.9148H83.5112V21.2131L80.5029 16.21H82.0195L84.2571 19.9623L86.5444 16.21H87.9367L84.9284 21.1881Z" />
<path d="M93.6551 17.4107H91.1191V16.21H97.6329V17.4107H95.097V23.9148H93.6551V17.4107Z" />
<path d="M100.219 16.21H98.8018V23.9148H100.219V16.21Z" />
<path d="M109.467 23.9148L109.442 18.8116L106.931 23.0392H106.285L103.774 18.8616V23.9148H102.406V16.21H103.575L106.633 21.3131L109.616 16.21H110.785L110.81 23.9148H109.467Z" />
<path d="M118.368 21.6634C118.368 20.9129 117.821 20.5627 116.702 20.5627H114.39V22.7891H116.702C117.796 22.7891 118.368 22.4138 118.368 21.6634ZM114.415 17.3357V19.462H116.428C116.926 19.462 117.299 19.3619 117.572 19.1868C117.846 19.0117 117.97 18.7365 117.97 18.3863C117.97 18.0361 117.846 17.7609 117.572 17.5858C117.299 17.4107 116.926 17.3106 116.428 17.3106H114.415V17.3357ZM119.412 20.6127C119.66 20.9379 119.785 21.3382 119.785 21.8385C119.785 22.5139 119.536 23.0142 119.014 23.3894C118.492 23.7647 117.746 23.9398 116.777 23.9398H112.973V16.21H116.553C117.448 16.21 118.144 16.3851 118.641 16.7353C119.138 17.0855 119.387 17.5858 119.387 18.2112C119.387 18.5864 119.288 18.9367 119.114 19.2369C118.94 19.537 118.691 19.7622 118.393 19.9123C118.84 20.0374 119.163 20.2625 119.412 20.6127Z" />
<path d="M127.169 22.714V23.9148H121.426V16.21H127.02V17.4107H122.843V19.412H126.547V20.5877H122.843V22.714H127.169Z" />
<path d="M133.384 17.811C133.061 17.5358 132.589 17.4107 131.967 17.4107H130.301V20.4876H131.967C132.589 20.4876 133.061 20.3626 133.384 20.0874C133.707 19.8122 133.857 19.437 133.857 18.9367C133.857 18.4614 133.707 18.0611 133.384 17.811ZM133.881 23.9148L132.315 21.6634C132.241 21.6634 132.141 21.6634 132.017 21.6634H130.277V23.9148H128.859V16.21H132.017C132.688 16.21 133.26 16.31 133.757 16.5352C134.254 16.7603 134.627 17.0605 134.901 17.4858C135.174 17.886 135.299 18.3863 135.299 18.9617C135.299 19.537 135.149 20.0374 134.876 20.4626C134.602 20.8879 134.18 21.1881 133.658 21.3882L135.423 23.9148H133.881Z" />
<path d="M139.625 20.6878L138.406 21.9385V23.9148H136.989V16.21H138.406V20.1624L142.21 16.21H143.801L140.569 19.6371L144 23.9148H142.335L139.625 20.6878Z" />
<path d="M78.6385 35.4468H79.9811V38.5237C79.5833 38.8489 79.1358 39.074 78.5888 39.2491C78.0667 39.4242 77.5197 39.4993 76.9728 39.4993C76.2021 39.4993 75.4811 39.3242 74.8595 38.999C74.238 38.6488 73.7407 38.1735 73.3927 37.5731C73.0446 36.9727 72.8457 36.2973 72.8457 35.5218C72.8457 34.7713 73.0197 34.0959 73.3927 33.4955C73.7407 32.8952 74.238 32.4199 74.8844 32.0696C75.5059 31.7194 76.2269 31.5693 77.0225 31.5693C77.6689 31.5693 78.2407 31.6694 78.7628 31.8945C79.2849 32.1197 79.7324 32.4199 80.0805 32.8201L79.1855 33.6957C78.5888 33.0953 77.8927 32.8201 77.0722 32.8201C76.5253 32.8201 76.0529 32.9452 75.6302 33.1703C75.2076 33.3955 74.8844 33.7207 74.6358 34.1209C74.3871 34.5212 74.2877 34.9965 74.2877 35.5218C74.2877 36.0471 74.412 36.4974 74.6358 36.9227C74.8844 37.3229 75.2076 37.6481 75.6302 37.8983C76.0529 38.1234 76.5253 38.2485 77.0474 38.2485C77.644 38.2485 78.1661 38.1234 78.6137 37.8483V35.4468H78.6385Z" />
<path d="M86.4702 33.2953C86.147 33.0202 85.6746 32.8951 85.053 32.8951H83.3873V35.972H85.053C85.6746 35.972 86.147 35.8469 86.4702 35.5718C86.7934 35.2966 86.9425 34.9214 86.9425 34.421C86.9425 33.9457 86.7934 33.5455 86.4702 33.2953ZM86.9674 39.3992L85.4011 37.1477C85.3265 37.1477 85.2271 37.1477 85.1028 37.1477H83.3624V39.3992H81.9453V31.6943H85.1028C85.774 31.6943 86.3459 31.7944 86.8431 32.0195C87.3403 32.2447 87.7133 32.5449 87.9867 32.9701C88.2602 33.3704 88.3845 33.8707 88.3845 34.4461C88.3845 35.0214 88.2354 35.5217 87.9619 35.947C87.6884 36.3723 87.2657 36.6724 86.7436 36.8726L88.5088 39.3992H86.9674Z" />
<path d="M95.0477 37.8987C95.4454 37.6735 95.7687 37.3483 96.0173 36.9231C96.241 36.4978 96.3653 36.0475 96.3653 35.5222C96.3653 34.9969 96.241 34.5466 96.0173 34.1213C95.7935 33.696 95.4703 33.3708 95.0477 33.1457C94.6499 32.9206 94.1775 32.7955 93.6554 32.7955C93.1333 32.7955 92.6858 32.9206 92.2631 33.1457C91.8653 33.3708 91.5421 33.696 91.2935 34.1213C91.0698 34.5466 90.9454 34.9969 90.9454 35.5222C90.9454 36.0475 91.0698 36.4978 91.2935 36.9231C91.5173 37.3483 91.8405 37.6735 92.2631 37.8987C92.6609 38.1238 93.1333 38.2489 93.6554 38.2489C94.1775 38.2489 94.625 38.1238 95.0477 37.8987ZM91.5421 38.9994C90.9206 38.6491 90.4233 38.1738 90.0753 37.5735C89.7272 36.9731 89.5283 36.2977 89.5283 35.5472C89.5283 34.7967 89.7023 34.1213 90.0753 33.5209C90.4233 32.9206 90.9206 32.4453 91.5421 32.095C92.1637 31.7448 92.8847 31.5947 93.6554 31.5947C94.4261 31.5947 95.1471 31.7698 95.7687 32.095C96.3902 32.4453 96.8874 32.9206 97.2355 33.5209C97.5836 34.1213 97.7825 34.7967 97.7825 35.5472C97.7825 36.2977 97.6084 36.9731 97.2355 37.5735C96.8874 38.1738 96.3902 38.6491 95.7687 38.9994C95.1471 39.3496 94.4261 39.4997 93.6554 39.4997C92.8847 39.4997 92.1637 39.3496 91.5421 38.9994Z" />
<path d="M100.218 38.5983C99.6216 37.9979 99.3232 37.1474 99.3232 36.0217V31.6689H100.74V35.9716C100.74 37.4976 101.387 38.2481 102.68 38.2481C103.972 38.2481 104.619 37.4976 104.619 35.9716V31.6689H106.011V36.0217C106.011 37.1474 105.713 37.9979 105.141 38.5983C104.544 39.1987 103.724 39.4988 102.68 39.4988C101.635 39.4988 100.815 39.1987 100.218 38.5983Z" />
<path d="M112.649 35.5718C112.973 35.2966 113.122 34.9214 113.122 34.4461C113.122 33.9457 112.973 33.5705 112.649 33.3204C112.326 33.0452 111.854 32.9201 111.232 32.9201H109.567V35.972H111.232C111.879 35.947 112.351 35.8219 112.649 35.5718ZM113.047 32.0195C113.544 32.2447 113.917 32.5449 114.191 32.9701C114.464 33.3704 114.589 33.8707 114.589 34.4461C114.589 34.9964 114.464 35.4967 114.191 35.897C113.917 36.3222 113.544 36.6224 113.047 36.8476C112.55 37.0727 111.978 37.1728 111.307 37.1728H109.567V39.3992H108.149V31.6943H111.307C111.978 31.6943 112.55 31.7944 113.047 32.0195Z" />
<path d="M11.6851 14.1094H0V40.0005H11.6851V14.1094Z" />
<path d="M67.7738 9.40588V0H16.3594V1.37586V9.40588H64.4423H67.7738Z" />
<path d="M11.6851 0H0V9.40588H11.6851V1.37586V0Z" />
<path d="M16.3842 35.2976H21.0583L21.0334 40.0005H67.7738V14.1094H16.3594L16.3842 35.2976Z" />
</svg>
