<svg width="19" height="20" viewBox="0 0 19 20" xmlns="http://www.w3.org/2000/svg">
<path d="M4.75 6C4.55 6 4.36 6.08 4.22 6.22C4.08 6.36 4 6.55 4 6.75C4 6.95 4.08 7.14 4.22 7.28C4.36 7.42 4.55 7.5 4.75 7.5H5.75C5.95 7.5 6.14 7.42 6.28 7.28C6.42 7.14 6.5 6.95 6.5 6.75C6.5 6.55 6.42 6.36 6.28 6.22C6.14 6.08 5.95 6 5.75 6H4.75Z"/>
<path d="M8.75 10.05H4.75C4.55 10.05 4.36 10.13 4.22 10.27C4.08 10.41 4 10.6 4 10.8C4 11 4.08 11.19 4.22 11.33C4.36 11.47 4.55 11.55 4.75 11.55H8.75C8.95 11.55 9.14 11.47 9.28 11.33C9.42 11.19 9.5 11 9.5 10.8C9.5 10.6 9.42 10.41 9.28 10.27C9.14 10.13 8.95 10.05 8.75 10.05Z"/>
<path d="M7.75 18H2.75C2.42 18 2.1 17.87 1.87 17.63C1.64 17.39 1.5 17.08 1.5 16.75V2.75C1.5 2.42 1.63 2.1 1.87 1.87C2.11 1.64 2.42 1.5 2.75 1.5H8V4.75C8 5.48 8.29 6.18 8.81 6.69C9.33 7.21 10.02 7.5 10.75 7.5H14V7.75C14 7.95 14.08 8.14 14.22 8.28C14.5 8.56 15 8.56 15.28 8.28C15.42 8.14 15.5 7.95 15.5 7.75V6.75C15.49 6.64 15.48 6.57 15.45 6.5L15.44 6.39C15.41 6.33 15.36 6.27 15.32 6.22L9.32 0.23C9.27 0.19 9.22 0.15 9.16 0.11H9.13L8.77 0H2.75C2.02 0 1.32 0.29 0.81 0.81C0.29 1.32 0 2.02 0 2.75V16.75C0 17.48 0.29 18.17 0.81 18.69C1.32 19.2 2.03 19.5 2.75 19.5H7.75C7.95 19.5 8.14 19.42 8.28 19.28C8.42 19.14 8.5 18.95 8.5 18.75C8.5 18.55 8.42 18.36 8.28 18.22C8.14 18.08 7.95 18 7.75 18ZM9.5 2.56L12.94 6H10.75C10.42 6 10.1 5.87 9.87 5.63C9.64 5.39 9.5 5.08 9.5 4.75V2.56Z"/>
<path d="M7.75 14.05H4.75C4.55 14.05 4.36 14.13 4.22 14.27C4.08 14.41 4 14.6 4 14.8C4 15 4.08 15.19 4.22 15.33C4.36 15.47 4.55 15.55 4.75 15.55H7.75C7.95 15.55 8.14 15.47 8.28 15.33C8.42 15.19 8.5 15 8.5 14.8C8.5 14.6 8.42 14.41 8.28 14.27C8.14 14.13 7.95 14.05 7.75 14.05Z"/>
<path d="M18.22 11.8C18.13 11.73 18.03 11.68 17.92 11.65C17.81 11.62 17.7 11.62 17.59 11.65C17.17 11.74 16.75 11.74 16.34 11.65C15.92 11.56 15.54 11.39 15.2 11.14C14.94 10.95 14.57 10.95 14.32 11.14C13.97 11.39 13.59 11.56 13.17 11.65C12.75 11.74 12.33 11.74 11.92 11.65C11.87 11.64 11.81 11.63 11.76 11.63C11.7 11.63 11.64 11.64 11.58 11.65C11.47 11.68 11.37 11.73 11.28 11.8C11.19 11.87 11.12 11.96 11.07 12.07C11.02 12.17 11 12.28 11 12.4V14.74C11 15.41 11.16 16.09 11.46 16.69C11.76 17.29 12.2 17.82 12.74 18.23L14.29 19.34C14.56 19.55 14.93 19.54 15.19 19.34L16.75 18.18C17.28 17.78 17.72 17.26 18.02 16.66C18.32 16.07 18.48 15.4 18.49 14.74V12.37C18.49 12.26 18.46 12.15 18.42 12.05C18.38 11.96 18.31 11.87 18.22 11.8ZM17 14.75C17 15.19 16.91 15.63 16.72 16.02C16.53 16.41 16.25 16.77 15.91 17.04L14.76 17.87L13.61 17.05C13.26 16.77 12.98 16.42 12.79 16.03C12.6 15.64 12.5 15.2 12.51 14.76V13.24L12.75 13.23C13.41 13.2 14.06 13.02 14.64 12.71L14.76 12.65L14.88 12.71C15.46 13.02 16.11 13.2 16.77 13.23H17V14.75Z"/></svg>