<svg width="36" height="36" viewBox="0 0 36 36" xmlns="http://www.w3.org/2000/svg"><path d="M31.98 14.325L29.145 13.38L30.48 10.71C30.6153 10.4305 30.6606 10.116 30.6096 9.80966C30.5585 9.50338 30.4137 9.22048 30.195 9.00001L27 5.805C26.7784 5.58313 26.4927 5.43631 26.1833 5.38519C25.8739 5.33407 25.5562 5.38122 25.275 5.52001L22.605 6.85501L21.66 4.02001C21.5602 3.72449 21.3708 3.46744 21.118 3.28463C20.8653 3.10181 20.5619 3.00232 20.25 3.00001H15.75C15.4355 2.99919 15.1288 3.09723 14.8731 3.28027C14.6174 3.4633 14.4256 3.72207 14.325 4.02001L13.38 6.85501L10.71 5.52001C10.4305 5.38467 10.116 5.33941 9.80966 5.39046C9.50338 5.44151 9.22048 5.58635 9.00001 5.805L5.805 9.00001C5.58313 9.22165 5.43631 9.50727 5.38519 9.81669C5.33407 10.1261 5.38122 10.4438 5.52001 10.725L6.85501 13.395L4.02001 14.34C3.72449 14.4398 3.46744 14.6292 3.28463 14.882C3.10181 15.1347 3.00232 15.4381 3.00001 15.75V20.25C2.99919 20.5645 3.09723 20.8712 3.28027 21.1269C3.4633 21.3827 3.72207 21.5744 4.02001 21.675L6.85501 22.62L5.52001 25.29C5.38467 25.5695 5.33941 25.8841 5.39046 26.1903C5.44151 26.4966 5.58635 26.7795 5.805 27L9.00001 30.195C9.22165 30.4169 9.50727 30.5637 9.81669 30.6148C10.1261 30.6659 10.4438 30.6188 10.725 30.48L13.395 29.145L14.34 31.98C14.4406 32.2779 14.6324 32.5367 14.8881 32.7197C15.1438 32.9028 15.4505 33.0008 15.765 33H20.265C20.5795 33.0008 20.8862 32.9028 21.1419 32.7197C21.3977 32.5367 21.5894 32.2779 21.69 31.98L22.635 29.145L25.305 30.48C25.5827 30.6119 25.8942 30.6553 26.1974 30.6044C26.5005 30.5534 26.7807 30.4105 27 30.195L30.195 27C30.4169 26.7784 30.5637 26.4927 30.6148 26.1833C30.6659 25.8739 30.6188 25.5562 30.48 25.275L29.145 22.605L31.98 21.66C32.2755 21.5602 32.5326 21.3708 32.7154 21.118C32.8982 20.8653 32.9977 20.5619 33 20.25V15.75C33.0008 15.4355 32.9028 15.1288 32.7197 14.8731C32.5367 14.6174 32.2779 14.4256 31.98 14.325ZM30 19.17L28.2 19.77C27.7861 19.9043 27.4063 20.127 27.0871 20.4227C26.7678 20.7183 26.5167 21.0799 26.3512 21.4824C26.1857 21.8848 26.1096 22.3184 26.1284 22.7532C26.1472 23.1879 26.2604 23.6134 26.46 24L27.315 25.71L25.665 27.36L24 26.46C23.6153 26.2684 23.194 26.1616 22.7645 26.147C22.335 26.1323 21.9073 26.2101 21.5105 26.3751C21.1137 26.5401 20.7569 26.7884 20.4644 27.1033C20.1719 27.4181 19.9504 27.7921 19.815 28.2L19.215 30H16.83L16.23 28.2C16.0957 27.7861 15.873 27.4063 15.5774 27.0871C15.2817 26.7678 14.9201 26.5167 14.5176 26.3512C14.1152 26.1857 13.6816 26.1096 13.2468 26.1284C12.8121 26.1472 12.3867 26.2604 12 26.46L10.29 27.315L8.64001 25.665L9.54001 24C9.73965 23.6134 9.85278 23.1879 9.87157 22.7532C9.89036 22.3184 9.81435 21.8848 9.64881 21.4824C9.48327 21.0799 9.23217 20.7183 8.91292 20.4227C8.59367 20.127 8.21392 19.9043 7.8 19.77L6.00001 19.17V16.83L7.8 16.23C8.21392 16.0957 8.59367 15.873 8.91292 15.5774C9.23217 15.2817 9.48327 14.9201 9.64881 14.5176C9.81435 14.1152 9.89036 13.6816 9.87157 13.2468C9.85278 12.8121 9.73965 12.3867 9.54001 12L8.685 10.335L10.335 8.685L12 9.54001C12.3867 9.73965 12.8121 9.85278 13.2468 9.87157C13.6816 9.89036 14.1152 9.81435 14.5176 9.64881C14.9201 9.48327 15.2817 9.23217 15.5774 8.91292C15.873 8.59367 16.0957 8.21392 16.23 7.8L16.83 6.00001H19.17L19.77 7.8C19.9043 8.21392 20.127 8.59367 20.4227 8.91292C20.7183 9.23217 21.0799 9.48327 21.4824 9.64881C21.8848 9.81435 22.3184 9.89036 22.7532 9.87157C23.1879 9.85278 23.6134 9.73965 24 9.54001L25.71 8.685L27.36 10.335L26.46 12C26.2684 12.3847 26.1616 12.806 26.147 13.2355C26.1323 13.6651 26.2101 14.0927 26.3751 14.4895C26.5401 14.8864 26.7884 15.2431 27.1033 15.5356C27.4181 15.8281 27.7921 16.0496 28.2 16.185L30 16.785V19.17ZM18 12C16.8133 12 15.6533 12.3519 14.6666 13.0112C13.6799 13.6705 12.9109 14.6075 12.4567 15.7039C12.0026 16.8003 11.8838 18.0067 12.1153 19.1705C12.3468 20.3344 12.9182 21.4035 13.7574 22.2426C14.5965 23.0818 15.6656 23.6532 16.8295 23.8847C17.9933 24.1162 19.1997 23.9974 20.2961 23.5433C21.3925 23.0892 22.3295 22.3201 22.9888 21.3334C23.6481 20.3467 24 19.1867 24 18C24 16.4087 23.3679 14.8826 22.2426 13.7574C21.1174 12.6321 19.5913 12 18 12V12ZM18 21C17.4067 21 16.8266 20.8241 16.3333 20.4944C15.8399 20.1648 15.4554 19.6962 15.2284 19.1481C15.0013 18.5999 14.9419 17.9967 15.0576 17.4147C15.1734 16.8328 15.4591 16.2982 15.8787 15.8787C16.2982 15.4591 16.8328 15.1734 17.4147 15.0576C17.9967 14.9419 18.5999 15.0013 19.1481 15.2284C19.6962 15.4554 20.1648 15.8399 20.4944 16.3333C20.8241 16.8266 21 17.4067 21 18C21 18.7957 20.6839 19.5587 20.1213 20.1213C19.5587 20.6839 18.7957 21 18 21Z"/></svg>
