<svg width="36" height="36" viewBox="0 0 36 36" xmlns="http://www.w3.org/2000/svg">
<path fill-rule="evenodd" clip-rule="evenodd" d="M7.8 2.1C8.08328 1.72229 8.52786 1.5 9 1.5H27C27.4721 1.5 27.9167 1.72229 28.2 2.1L32.7 8.1C32.8947 8.35964 33 8.67544 33 9V30C33 31.1935 32.5259 32.3381 31.682 33.182C30.8381 34.0259 29.6935 34.5 28.5 34.5H7.5C6.30653 34.5 5.16193 34.0259 4.31802 33.182C3.47411 32.3381 3 31.1935 3 30V9C3 8.67544 3.10527 8.35964 3.3 8.1L7.8 2.1ZM9.75 4.5L6 9.5V30C6 30.3978 6.15804 30.7794 6.43934 31.0607C6.72064 31.342 7.10218 31.5 7.5 31.5H28.5C28.8978 31.5 29.2794 31.342 29.5607 31.0607C29.842 30.7794 30 30.3978 30 30V9.5L26.25 4.5H9.75Z"/>
<path fill-rule="evenodd" clip-rule="evenodd" d="M12 13.5C12.8284 13.5 13.5 14.1716 13.5 15C13.5 16.1935 13.9741 17.3381 14.818 18.182C15.6619 19.0259 16.8065 19.5 18 19.5C19.1935 19.5 20.3381 19.0259 21.182 18.182C22.0259 17.3381 22.5 16.1935 22.5 15C22.5 14.1716 23.1716 13.5 24 13.5C24.8284 13.5 25.5 14.1716 25.5 15C25.5 16.9891 24.7098 18.8968 23.3033 20.3033C21.8968 21.7098 19.9891 22.5 18 22.5C16.0109 22.5 14.1032 21.7098 12.6967 20.3033C11.2902 18.8968 10.5 16.9891 10.5 15C10.5 14.1716 11.1716 13.5 12 13.5Z"/>
<path fill-rule="evenodd" clip-rule="evenodd" d="M3 9C3 8.17157 3.67157 7.5 4.5 7.5H31.5C32.3284 7.5 33 8.17157 33 9C33 9.82843 32.3284 10.5 31.5 10.5H4.5C3.67157 10.5 3 9.82843 3 9Z"/>
</svg>
