<svg width="36" height="36" viewBox="0 0 36 36" xmlns="http://www.w3.org/2000/svg"><path d="M16.935 22.935C16.8705 23.0063 16.8104 23.0814 16.755 23.16C16.6982 23.2436 16.6528 23.3344 16.62 23.43C16.5768 23.515 16.5464 23.606 16.53 23.7C16.5226 23.7999 16.5226 23.9001 16.53 24C16.5249 24.1968 16.566 24.392 16.65 24.57C16.7174 24.7561 16.8249 24.9252 16.9648 25.0652C17.1048 25.2052 17.2739 25.3126 17.46 25.38C17.6396 25.4594 17.8337 25.5003 18.03 25.5003C18.2263 25.5003 18.4205 25.4594 18.6 25.38C18.7861 25.3126 18.9552 25.2052 19.0952 25.0652C19.2352 24.9252 19.3426 24.7561 19.41 24.57C19.4766 24.3876 19.5072 24.194 19.5 24C19.5011 23.8026 19.4633 23.6069 19.3887 23.4241C19.314 23.2414 19.204 23.0752 19.065 22.935C18.9256 22.7944 18.7597 22.6828 18.5769 22.6067C18.3941 22.5305 18.198 22.4913 18 22.4913C17.802 22.4913 17.6059 22.5305 17.4231 22.6067C17.2404 22.6828 17.0745 22.7944 16.935 22.935ZM18 3C15.0333 3 12.1332 3.87973 9.66645 5.52796C7.19972 7.17618 5.27713 9.51886 4.14181 12.2597C3.0065 15.0006 2.70945 18.0166 3.28823 20.9264C3.86701 23.8361 5.29562 26.5088 7.3934 28.6066C9.49119 30.7044 12.1639 32.133 15.0737 32.7118C17.9834 33.2906 20.9994 32.9935 23.7403 31.8582C26.4811 30.7229 28.8238 28.8003 30.472 26.3336C32.1203 23.8668 33 20.9667 33 18C33 16.0302 32.612 14.0796 31.8582 12.2597C31.1044 10.4399 29.9995 8.78628 28.6066 7.3934C27.2137 6.00052 25.5601 4.89563 23.7403 4.14181C21.9204 3.38799 19.9698 3 18 3V3ZM18 30C15.6266 30 13.3066 29.2962 11.3332 27.9776C9.35977 26.6591 7.8217 24.7849 6.91345 22.5922C6.0052 20.3995 5.76756 17.9867 6.23058 15.6589C6.69361 13.3311 7.83649 11.1929 9.51472 9.51472C11.193 7.83649 13.3312 6.6936 15.6589 6.23058C17.9867 5.76755 20.3995 6.00519 22.5922 6.91345C24.7849 7.8217 26.6591 9.35977 27.9776 11.3332C29.2962 13.3065 30 15.6266 30 18C30 21.1826 28.7357 24.2348 26.4853 26.4853C24.2349 28.7357 21.1826 30 18 30V30ZM18 10.5C17.2096 10.4995 16.433 10.7072 15.7484 11.1022C15.0637 11.4971 14.4952 12.0655 14.1 12.75C13.9915 12.9207 13.9186 13.1116 13.8858 13.3113C13.8529 13.5109 13.8608 13.7151 13.9089 13.9116C13.9571 14.1081 14.0445 14.2928 14.1658 14.4547C14.2872 14.6165 14.4401 14.7521 14.6152 14.8534C14.7904 14.9546 14.9842 15.0194 15.185 15.0438C15.3858 15.0682 15.5895 15.0517 15.7838 14.9953C15.9781 14.9389 16.159 14.8439 16.3156 14.7158C16.4722 14.5877 16.6012 14.4293 16.695 14.25C16.8272 14.0211 17.0175 13.8312 17.2466 13.6995C17.4758 13.5678 17.7357 13.499 18 13.5C18.3978 13.5 18.7794 13.658 19.0607 13.9393C19.342 14.2206 19.5 14.6022 19.5 15C19.5 15.3978 19.342 15.7794 19.0607 16.0607C18.7794 16.342 18.3978 16.5 18 16.5C17.6022 16.5 17.2207 16.658 16.9393 16.9393C16.658 17.2206 16.5 17.6022 16.5 18V19.5C16.5 19.8978 16.658 20.2794 16.9393 20.5607C17.2207 20.842 17.6022 21 18 21C18.3978 21 18.7794 20.842 19.0607 20.5607C19.342 20.2794 19.5 19.8978 19.5 19.5V19.23C20.4921 18.87 21.326 18.1728 21.8562 17.2603C22.3863 16.3478 22.5788 15.2779 22.4001 14.2378C22.2214 13.1977 21.6828 12.2535 20.8785 11.5703C20.0742 10.887 19.0553 10.5082 18 10.5V10.5Z"/></svg>