<svg width="24" height="24" viewBox="0 0 24 24" xmlns="http://www.w3.org/2000/svg">
<path fill-rule="evenodd" clip-rule="evenodd" d="M18.1147 22.4H21.9299C22.7901 22.4 23.4689 21.6567 23.4689 20.7707V5.34206C23.4689 4.45789 22.7899 3.71472 21.9299 3.71472H18.1147C17.2549 3.71472 16.5757 4.4558 16.5757 5.34206V20.7726C16.5757 21.6568 17.2547 22.4 18.1147 22.4ZM18.1284 5.34206C18.1284 5.30269 18.1394 5.27332 18.1497 5.25659H21.8949C21.9053 5.27332 21.9162 5.30269 21.9162 5.34206V20.7707C21.9162 20.8101 21.9053 20.8395 21.8949 20.8562H18.1497C18.1394 20.8395 18.1284 20.8101 18.1284 20.7707V5.34206Z" />
<path fill-rule="evenodd" clip-rule="evenodd" d="M10.1366 22.4H14.3341C15.1943 22.4 15.8731 21.6567 15.8731 20.7708V3.62735C15.8731 2.74317 15.1941 2 14.3341 2H10.1366C9.27677 2 8.59766 2.74109 8.59766 3.62735V20.7727C8.59766 21.6568 9.2766 22.4 10.1366 22.4ZM10.1503 3.62735C10.1503 3.58798 10.1613 3.55861 10.1716 3.54188H14.2991C14.3095 3.55861 14.3205 3.58798 14.3205 3.62735V20.7708C14.3205 20.8101 14.3095 20.8395 14.2991 20.8562H10.1716C10.1613 20.8395 10.1503 20.8101 10.1503 20.7708V3.62735Z" />
<path fill-rule="evenodd" clip-rule="evenodd" d="M2.53897 22.4H6.35416L6.52842 22.4C7.18602 22.3088 7.8949 21.4955 7.89313 20.7722L7.89313 10.4862C7.89313 9.60205 7.21419 8.85888 6.35416 8.85888H2.53897C1.67911 8.85888 1 9.59996 1 10.4862V20.7726C1 21.6568 1.67895 22.4 2.53897 22.4ZM2.55263 10.4843C2.55263 10.4464 2.56282 10.4178 2.57279 10.4008H6.3192C6.32951 10.4175 6.34051 10.4469 6.34051 10.4862V20.7707C6.34051 20.8101 6.32951 20.8395 6.3192 20.8562H2.57393C2.56362 20.8395 2.55263 20.8101 2.55263 20.7707V10.4843Z" />
</svg>
