<svg width="38" height="38" viewBox="0 0 38 38" fill="none" xmlns="http://www.w3.org/2000/svg">
<g clip-path="url(#clip0)">
<path d="M26.5659 15.9736L16.8829 10.3755C16.3488 10.0689 15.7455 9.91064 15.1323 9.91064C14.5191 9.91064 13.9157 10.0689 13.3816 10.3755C12.8475 10.6821 12.4025 11.1272 12.0958 11.6514C11.7892 12.1855 11.6211 12.7888 11.6211 13.4021V24.5983C11.6211 25.2115 11.7892 25.8149 12.0958 26.349C12.4025 26.8831 12.8475 27.3281 13.3816 27.6249C14.4399 28.2381 15.8246 28.2381 16.8829 27.6249L26.5659 22.0267C27.1 21.7201 27.5352 21.275 27.8418 20.7409C28.1484 20.2068 28.3067 19.6035 28.3067 18.9903C28.3067 18.3771 28.1484 17.7737 27.8418 17.2396C27.5352 16.7154 27.0901 16.2802 26.5659 15.9736ZM14.7564 25.2412V12.7592L25.5571 19.0002L14.7564 25.2412Z" fill="#201600"/>
<path d="M36.5561 11.7303C35.5967 9.41593 34.212 7.33889 32.4416 5.56845C30.6612 3.78813 28.5842 2.40344 26.2698 1.44404C23.9554 0.484643 21.5025 0 19.0001 0C15.2318 0 11.5821 1.10776 8.44677 3.20458C5.31142 5.30141 2.8882 8.24883 1.45405 11.7303C0.0100146 15.2119 -0.365831 19.0099 0.37597 22.709C1.10788 26.4081 2.90798 29.771 5.57847 32.4315C8.24895 35.0921 11.6118 36.8922 15.301 37.634C19.0001 38.3758 22.7981 38 26.2797 36.556C29.7612 35.1119 32.7086 32.6887 34.8054 29.5632C36.9023 26.4279 38.01 22.7782 38.01 19.0099C38.0001 16.4878 37.5155 14.0448 36.5561 11.7303ZM30.2162 30.216C27.2193 33.2129 23.2333 34.8647 19.0001 34.8647C15.8549 34.8647 12.7987 33.9448 10.1875 32.1942C7.5665 30.4435 5.5488 27.9807 4.34213 25.0729C3.13547 22.165 2.82886 18.9901 3.44208 15.9042C4.0553 12.8183 5.55869 10.0094 7.78409 7.78397C10.0095 5.55856 12.8184 4.05518 15.9043 3.44196C18.9902 2.82874 22.1651 3.13535 25.073 4.34201C27.9809 5.54867 30.4436 7.56637 32.1943 10.1874C33.9449 12.8084 34.8648 15.8548 34.8648 19C34.8648 23.2332 33.213 27.2192 30.2162 30.216Z" fill="#201600"/>
</g>
<defs>
<clipPath id="clip0">
<rect width="38" height="38" fill="white"/>
</clipPath>
</defs>
</svg>
