<svg width="24" height="24" viewBox="0 0 24 24" xmlns="http://www.w3.org/2000/svg">
<path fill-rule="evenodd" clip-rule="evenodd" d="M23.7296 0.270363C24.0901 0.630847 24.0901 1.21531 23.7296 1.57579L1.57579 23.7296C1.21531 24.0901 0.630847 24.0901 0.270363 23.7296C-0.090121 23.3692 -0.090121 22.7847 0.270363 22.4242L22.4242 0.270363C22.7847 -0.090121 23.3692 -0.090121 23.7296 0.270363Z"/>
<path fill-rule="evenodd" clip-rule="evenodd" d="M0.270363 0.270363C0.630847 -0.090121 1.21531 -0.090121 1.57579 0.270363L23.7296 22.4242C24.0901 22.7847 24.0901 23.3692 23.7296 23.7296C23.3692 24.0901 22.7847 24.0901 22.4242 23.7296L0.270363 1.57579C-0.090121 1.21531 -0.090121 0.630847 0.270363 0.270363Z"/>
</svg>
