<svg width="60" height="72" viewBox="0 0 60 72" xmlns="http://www.w3.org/2000/svg">
<path d="M20.7 56.4V55H14.7V61.6H20.9V60.2H16.2V59H20.3V57.6H16.2V56.4H20.7Z" />
<path d="M24.7 55L21.8 61.6H23.4L23.8 60.6H27.9L28.3 61.6H29.9L27.1 55H24.7ZM24.4 59.3L25.6 56.3H26.2L27.4 59.3H24.4Z" />
<path d="M37.6 59.5C37.6 58.3 36.7 57.7 35.3 57.5L33.3 57.3C32.7 57.3 32.4 57.2 32.4 56.8C32.4 56.4 32.7 56.1 34 56.1C35 56.1 35.8 56.4 36.6 56.9L37.4 55.6C36.4 54.8 35.3 54.6 34.1 54.6C32.4 54.6 31 55.3 31 56.7C31 57.9 31.8 58.4 33.2 58.6L35.4 58.9C36 59 36.2 59.1 36.2 59.5C36.2 60 35.5 60.3 34.4 60.3C33.3 60.3 32.4 60 31.5 59.4L30.8 60.6C31.8 61.4 32.8 61.7 34.2 61.7C36.1 61.7 37.6 61 37.6 59.5Z" />
<path d="M42.6 61.7V60L45.7 55H44L41.9 58.5H41.8L39.7 55H38L41.1 60V61.7H42.6Z" />
<path d="M5.5 67.5L3.5 67.3C2.9 67.3 2.6 67.2 2.6 66.8C2.6 66.4 2.9 66.1 4.2 66.1C5.2 66.1 6 66.4 6.8 66.9L7.6 65.6C6.6 64.8 5.5 64.6 4.3 64.6C2.6 64.6 1.2 65.3 1.2 66.7C1.2 67.9 2 68.4 3.4 68.6L5.6 68.9C6.2 69 6.4 69.1 6.4 69.5C6.4 70 5.7 70.3 4.6 70.3C3.5 70.3 2.6 70 1.7 69.4L1 70.6C2 71.4 3 71.7 4.4 71.7C6.3 71.7 7.8 71 7.8 69.5C7.8 68.3 6.9 67.7 5.5 67.5Z" />
<path d="M10.2 65H8.7V71.6H14.8V70.2H10.2V65Z" />
<path d="M17.2 65H15.7V71.6H17.2V65Z" />
<path d="M21.9 65H18.5V71.6H21.9C23.7 71.6 25.5 70.3 25.5 68.3C25.5 66.3 23.7 65 21.9 65ZM21.8 70.2H19.9V66.2H21.8C23 66.2 23.9 67.1 23.9 68.2C23.9 69.4 23 70.2 21.8 70.2Z" />
<path d="M28 69H32.1V67.6H28V66.4H32.5V65H26.5V71.6H32.7V70.2H28V69Z" />
<path d="M42.7 68C43.1 67.7 43.3 67.3 43.3 66.9C43.3 66.2 43.1 65.7 42.6 65.4C42 65 41.3 64.8 40.2 64.8C39.2 64.8 38.4 65 37.4 65.7L38.1 66.7C38.8 66.3 39.4 66.1 40.3 66.1C41.4 66.1 41.8 66.3 41.8 66.8C41.8 67.1 41.6 67.3 41.2 67.3L38.8 67.4V68.7H41.1C41.8 68.7 42.1 69 42.1 69.5C42.1 70.2 41.4 70.5 40.1 70.5C39.2 70.5 38.5 70.3 37.7 69.7L37 70.8C37.9 71.5 38.9 71.8 40.1 71.8C41.3 71.8 42.2 71.7 42.8 71.2C43.4 70.8 43.7 70.2 43.7 69.5C43.7 68.8 43.4 68.3 42.7 68Z" />
<path d="M48.4 67.1C47.6 67.1 47 67.2 46.3 67.5C46.5 66.5 47.2 66.1 48.3 66.1C49.2 66.1 49.8 66.2 50.6 66.6L51.2 65.4C50.3 64.9 49.4 64.7 48.3 64.7C46.2 64.7 44.8 66.2 44.8 68.2C44.8 70.3 45.8 71.7 48.1 71.7C50 71.7 51.3 70.8 51.3 69.4C51.3 67.7 50 67.1 48.4 67.1ZM48.2 70.4C46.8 70.4 46.3 69.9 46.2 68.7C47 68.6 47.5 68.5 48.2 68.5C49.3 68.5 49.8 68.7 49.8 69.4C49.8 70.1 49.3 70.4 48.2 70.4Z" />
<path d="M55.8 64.8C53.8 64.8 52.2 66.1 52.2 68.3C52.2 70.5 53.8 71.8 55.8 71.8C57.8 71.8 59.4 70.5 59.4 68.3C59.4 66.1 57.8 64.8 55.8 64.8ZM55.8 70.5C54.4 70.5 53.6 69.7 53.6 68.3C53.6 66.9 54.4 66.1 55.8 66.1C57.2 66.1 57.9 66.9 57.9 68.3C57.9 69.7 57.2 70.5 55.8 70.5Z" />
<path d="M44.5 30.4C49 31.7 51.8 33.5 51.8 35.3C51.8 36.6 50.3 37.9 47.6 39.1C44.7 40.4 38.3 41.7 35.9 41.7C33.6 41.8 33 41.8 31.9 41.8C31.4 41.8 30.9 42.2 30.9 42.8C30.9 43.3 31.3 43.8 31.9 43.8C31.9 43.8 33 43.8 36.1 43.7C39.2 43.6 45.3 42.3 48.4 40.9C52.8 39 53.8 36.8 53.8 35.3C53.7 32.5 50.6 30.1 45 28.5C44.5 28.4 43.9 28.7 43.8 29.2C43.7 29.7 44 30.3 44.5 30.4Z" />
<path d="M24.7 43.7L22.7 45.9C22.3 46.3 22.4 46.9 22.8 47.3C23 47.5 23.2 47.6 23.5 47.6C23.8 47.6 24 47.5 24.2 47.3L27.8 43.3C28 43.1 28.1 42.9 28.1 42.6V42.5C28.1 42.3 28 42 27.9 41.9L24.5 37.8C24.1 37.4 23.5 37.3 23.1 37.7C22.7 38.1 22.6 38.7 23 39.1L25.2 41.7C20.6 41.3 16.4 40.5 13.3 39.3C10.3 38.1 8.5 36.6 8.5 35.3C8.5 33.7 10.8 32 14.7 30.8C15.2 30.6 15.5 30.1 15.3 29.6C15.1 29.1 14.6 28.8 14.1 29C11.8 29.7 10 30.6 8.7 31.6C7.2 32.8 6.5 34 6.5 35.4C6.5 37.7 8.6 39.7 12.5 41.2C15.7 42.5 20 43.3 24.7 43.7Z" />
<path d="M17.9 35.4C17.9 35.4 18 35.4 18.1 35.4C18.5 35.4 18.9 35.1 19 34.8L22.2 23.7C22.8 24.2 23.5 24.4 24.2 24.4H36C36.8 24.4 37.5 24.1 38 23.7L41.2 34.7C41.3 35.1 41.7 35.4 42.1 35.4C42.1 35.4 42.2 35.3 42.3 35.3C42.8 35.2 43 34.7 42.9 34.2L39.3 21.6C39.3 21.5 39.3 21.4 39.3 21.2C39.3 19.4 37.8 18 36.1 18H24.2C22.4 18 21 19.4 21 21.2C21 21.3 21 21.3 21 21.4L17.3 34.3C17.1 34.8 17.4 35.3 17.9 35.4ZM24.2 19.9H36.1C36.8 19.9 37.3 20.3 37.4 20.9C37.3 21.1 37.3 21.3 37.4 21.5V21.6C37.3 22.2 36.7 22.7 36.1 22.7H24.2C23.5 22.7 22.9 22.2 22.8 21.4C22.8 21.3 22.8 21.2 22.8 21.1C22.9 20.4 23.5 19.9 24.2 19.9Z" />
<path d="M21.9 8.8C21.4 9.3 20.6 9.9 20.6 11.2C20.6 12.5 21.3 13.2 21.9 13.7C22.4 14.1 22.6 14.3 22.6 14.7C22.6 15.2 23 15.6 23.5 15.6C24 15.6 24.4 15.2 24.4 14.6C24.4 13.3 23.7 12.7 23.1 12.2C22.6 11.8 22.4 11.6 22.4 11.2C22.4 10.7 22.6 10.5 23.1 10.1C23.6 9.6 24.4 9 24.4 7.7C24.4 6.4 23.7 5.8 23.1 5.3C22.6 4.9 22.4 4.7 22.4 4.3C22.4 3.9 22.6 3.7 23.1 3.3C23.6 2.8 24.4 2.2 24.4 0.9C24.4 0.4 24 0 23.5 0C23 0 22.6 0.4 22.6 0.9C22.6 1.3 22.4 1.5 21.9 1.9C21.4 2.4 20.6 3 20.6 4.3C20.6 5.6 21.3 6.2 21.9 6.8C22.4 7.2 22.6 7.4 22.6 7.8C22.6 8.2 22.4 8.4 21.9 8.8Z" />
<path d="M28.9 8.8C28.4 9.3 27.6 9.9 27.6 11.2C27.6 12.5 28.4 13.2 28.9 13.7C29.4 14.1 29.6 14.3 29.6 14.7C29.6 15.2 30 15.6 30.5 15.6C31 15.6 31.4 15.2 31.4 14.6C31.4 13.3 30.7 12.7 30.1 12.2C29.6 11.8 29.4 11.6 29.4 11.2C29.4 10.7 29.6 10.5 30.1 10.1C30.6 9.6 31.4 9 31.4 7.7C31.4 6.4 30.7 5.8 30.1 5.3C29.6 4.9 29.4 4.7 29.4 4.3C29.4 3.9 29.6 3.7 30.1 3.3C30.6 2.8 31.4 2.2 31.4 0.9C31.4 0.4 31 0 30.5 0C30 0 29.6 0.4 29.6 0.9C29.6 1.3 29.4 1.5 28.9 1.9C28.4 2.4 27.6 3 27.6 4.3C27.6 5.6 28.4 6.2 28.9 6.8C29.4 7.2 29.6 7.4 29.6 7.8C29.6 8.2 29.4 8.4 28.9 8.8Z" />
<path d="M36 8.9C35.5 9.4 34.7 10 34.7 11.3C34.7 12.6 35.4 13.2 36 13.7C36.5 14.1 36.7 14.3 36.7 14.7C36.7 15.2 37.1 15.6 37.6 15.6C38.1 15.6 38.5 15.2 38.5 14.8C38.5 13.5 37.8 12.9 37.2 12.4C36.7 12 36.5 11.8 36.5 11.4C36.5 10.9 36.7 10.7 37.2 10.3C37.7 9.8 38.5 9.2 38.5 7.9C38.5 6.6 37.8 6 37.2 5.5C36.7 5.1 36.5 4.9 36.5 4.5C36.5 4.1 36.7 3.9 37.2 3.5C37.7 3 38.5 2.4 38.5 1.1C38.5 0.6 38.1 0.2 37.6 0.2C37.1 0.2 36.7 0.6 36.7 1.1C36.7 1.5 36.5 1.7 36 2.1C35.5 2.6 34.7 3.2 34.7 4.5C34.7 5.8 35.4 6.4 36 6.9C36.5 7.3 36.7 7.5 36.7 7.9C36.7 8.3 36.5 8.5 36 8.9Z" />
</svg>
