<svg width="40" height="50" viewBox="0 0 40 50" xmlns="http://www.w3.org/2000/svg">
<path d="M7.182 8.369C8.54 8.537 9.576 8.999 10.29 9.755C11.004 10.511 11.361 11.456 11.361 12.59C11.361 13.444 11.144 14.221 10.71 14.921C10.276 15.621 9.618 16.181 8.736 16.601C7.868 17.007 6.804 17.21 5.544 17.21C4.494 17.21 3.479 17.063 2.499 16.769C1.533 16.461 0.707 16.041 0.021 15.509L1.197 13.388C1.729 13.836 2.373 14.193 3.129 14.459C3.899 14.711 4.69 14.837 5.502 14.837C6.468 14.837 7.224 14.641 7.77 14.249C8.33 13.843 8.61 13.297 8.61 12.611C8.61 11.925 8.344 11.393 7.812 11.015C7.294 10.623 6.496 10.427 5.418 10.427H4.074V8.558L7.413 4.589H0.735V2.3H10.752V4.127L7.182 8.369ZM19.8247 7.928C20.7907 7.928 21.6587 8.117 22.4287 8.495C23.1987 8.859 23.8007 9.384 24.2347 10.07C24.6687 10.756 24.8857 11.547 24.8857 12.443C24.8857 13.395 24.6477 14.235 24.1717 14.963C23.6957 15.677 23.0517 16.23 22.2397 16.622C21.4277 17.014 20.5177 17.21 19.5097 17.21C17.4937 17.21 15.9257 16.58 14.8057 15.32C13.6997 14.06 13.1467 12.254 13.1467 9.902C13.1467 8.25 13.4477 6.843 14.0497 5.681C14.6517 4.505 15.4917 3.616 16.5697 3.014C17.6617 2.398 18.9217 2.09 20.3497 2.09C21.1057 2.09 21.8127 2.174 22.4707 2.342C23.1427 2.496 23.7237 2.727 24.2137 3.035L23.2057 5.093C22.4777 4.617 21.5467 4.379 20.4127 4.379C18.9987 4.379 17.8927 4.813 17.0947 5.681C16.2967 6.549 15.8977 7.802 15.8977 9.44V9.461C16.3317 8.957 16.8847 8.579 17.5567 8.327C18.2287 8.061 18.9847 7.928 19.8247 7.928ZM19.3627 15.068C20.2167 15.068 20.9097 14.844 21.4417 14.396C21.9737 13.934 22.2397 13.325 22.2397 12.569C22.2397 11.799 21.9737 11.19 21.4417 10.742C20.9097 10.294 20.1957 10.07 19.2997 10.07C18.4177 10.07 17.6967 10.308 17.1367 10.784C16.5907 11.26 16.3177 11.862 16.3177 12.59C16.3177 13.304 16.5837 13.899 17.1157 14.375C17.6617 14.837 18.4107 15.068 19.3627 15.068ZM32.4447 17.21C31.2687 17.21 30.2187 16.916 29.2947 16.328C28.3707 15.726 27.6427 14.858 27.1107 13.724C26.5787 12.576 26.3127 11.218 26.3127 9.65C26.3127 8.082 26.5787 6.731 27.1107 5.597C27.6427 4.449 28.3707 3.581 29.2947 2.993C30.2187 2.391 31.2687 2.09 32.4447 2.09C33.6207 2.09 34.6707 2.391 35.5947 2.993C36.5327 3.581 37.2677 4.449 37.7997 5.597C38.3317 6.731 38.5977 8.082 38.5977 9.65C38.5977 11.218 38.3317 12.576 37.7997 13.724C37.2677 14.858 36.5327 15.726 35.5947 16.328C34.6707 16.916 33.6207 17.21 32.4447 17.21ZM32.4447 14.837C33.4947 14.837 34.3207 14.403 34.9227 13.535C35.5387 12.667 35.8467 11.372 35.8467 9.65C35.8467 7.928 35.5387 6.633 34.9227 5.765C34.3207 4.897 33.4947 4.463 32.4447 4.463C31.4087 4.463 30.5827 4.897 29.9667 5.765C29.3647 6.633 29.0637 7.928 29.0637 9.65C29.0637 11.372 29.3647 12.667 29.9667 13.535C30.5827 14.403 31.4087 14.837 32.4447 14.837Z"/>
<path d="M19.9951 26C8.59602 26 0 30.2582 0 35.9159C0 40.6639 6.17654 44.5523 15.3627 45.5818L16.3954 45.7018L14.7922 47.2911C14.6447 47.4411 14.5365 47.611 14.4578 47.8009C14.3791 47.9908 14.3398 48.2007 14.3398 48.4107C14.3398 48.6206 14.3791 48.8305 14.4578 49.0204C14.5365 49.2103 14.6545 49.3903 14.8021 49.5302C14.9496 49.6801 15.1266 49.8001 15.3135 49.88C15.6971 50.04 16.1298 50.04 16.5134 49.88C16.7003 49.8001 16.8773 49.6801 17.0248 49.5302L21.1261 45.3619C21.2638 45.222 21.372 45.0421 21.4409 44.8521C21.5982 44.4523 21.5982 44.0225 21.4409 43.6426C21.3622 43.4327 21.254 43.2628 21.1065 43.1129L17.015 38.9546C16.4249 38.3549 15.3922 38.3549 14.8021 38.9546C14.507 39.2545 14.3398 39.6543 14.3398 40.0841C14.3398 40.504 14.507 40.9138 14.8021 41.2137L16.1987 42.5131L14.6349 42.2932C8.07475 41.3536 3.12761 38.6147 3.12761 35.9259C3.12761 32.7372 10.3467 29.1787 20.0148 29.1787C29.6828 29.1787 36.8822 32.7272 36.8822 35.9159C36.8822 38.2149 33.1743 40.6439 27.8731 41.8134C27.6568 41.8534 27.46 41.9334 27.2928 42.0533C27.1158 42.1733 26.9683 42.3232 26.8601 42.4931C26.7421 42.6731 26.6634 42.863 26.624 43.0729C26.5847 43.2828 26.5847 43.4927 26.6339 43.7026C26.6732 43.9025 26.7617 44.1025 26.8699 44.2724C26.988 44.4423 27.1355 44.5923 27.3125 44.7022C27.4896 44.8122 27.6764 44.8921 27.8731 44.9321C28.0797 44.9721 28.2862 44.9721 28.4829 44.9221C35.6922 43.3128 40 39.9442 40 35.9159C40 30.2582 31.404 26 19.9951 26Z"/></svg>