<svg width="60" height="72" viewBox="0 0 60 72" xmlns="http://www.w3.org/2000/svg">
<path d="M9.5 56.2H8V62.8H9.5V56.2Z"/>
<path d="M14.4 58.7H10.6V60H14.4V58.7Z"/>
<path d="M14.1 57.5H16.8V62.8H18.3V57.5H21V56.2H14.1V57.5Z"/>
<path d="M25.4 56C23.4 56 21.7 57.4 21.7 59.5C21.7 61.6 23.4 63 25.4 63C27.4 63 29.1 61.6 29.1 59.5C29.1 57.4 27.4 56 25.4 56ZM25.4 61.7C24.1 61.7 23.2 60.9 23.2 59.5C23.2 58.1 24.2 57.3 25.4 57.3C26.6 57.3 27.6 58.1 27.6 59.5C27.6 60.9 26.6 61.7 25.4 61.7Z"/>
<path d="M35.4 59.6C35.4 60.9 34.8 61.7 33.5 61.7C32.2 61.7 31.6 60.9 31.6 59.6V56.2H30.1V59.6C30.1 61.8 31.4 63 33.5 63C35.6 63 36.9 61.8 36.9 59.6V56.2H35.4V59.6Z"/>
<path d="M41.6 57.3C42.6 57.3 43.3 57.7 43.8 58.4L45 57.7C44.3 56.5 43.1 55.9 41.6 55.9C39.5 55.9 37.9 57.3 37.9 59.4C37.9 61.6 39.5 62.9 41.6 62.9C43.2 62.9 44.3 62.3 45 61.1L43.8 60.4C43.3 61.1 42.7 61.5 41.6 61.5C40.3 61.5 39.4 60.7 39.4 59.4C39.4 58.1 40.3 57.3 41.6 57.3Z"/>
<path d="M51.3 56.2V58.7H47.6V56.2H46.1V62.8H47.6V60H51.3V62.8H52.8V56.2H51.3Z"/>
<path d="M27.7 7.6C28.2 7.6 28.6 7.2 28.6 6.7V0.9C28.6 0.4 28.2 0 27.7 0C27.2 0 26.8 0.4 26.8 0.9V6.7C26.7 7.2 27.2 7.6 27.7 7.6Z"/>
<path d="M33.3 13.2C33.3 13.7 33.7 14.1 34.2 14.1H40C40.5 14.1 40.9 13.7 40.9 13.2C40.9 12.7 40.5 12.3 40 12.3H34.2C33.7 12.3 33.3 12.7 33.3 13.2Z"/>
<path d="M15.4 14.1H21.2C21.7 14.1 22.1 13.7 22.1 13.2C22.1 12.7 21.7 12.3 21.2 12.3H15.4C14.9 12.3 14.5 12.7 14.5 13.2C14.5 13.7 14.9 14.1 15.4 14.1Z"/>
<path d="M21.7 8.5C21.9 8.7 22.1 8.8 22.4 8.8C22.7 8.8 22.9 8.7 23.1 8.5C23.5 8.1 23.5 7.5 23.1 7.2L20.4 4.5C20 4.1 19.4 4.1 19.1 4.5C18.7 4.9 18.7 5.5 19.1 5.8L21.7 8.5Z"/>
<path d="M33 8.8C33.2 8.8 33.5 8.7 33.7 8.5L36.4 5.8C36.8 5.4 36.8 4.8 36.4 4.5C36 4.1 35.4 4.1 35.1 4.5L32.4 7.2C32 7.6 32 8.2 32.4 8.5C32.5 8.7 32.8 8.8 33 8.8Z"/>
<path d="M18 26.8C16.4 27.7 15.7 29.8 16.6 31.5L20.9 40.5C22 42.8 23.7 44.7 25.8 46C27.9 47.3 30.4 48.1 32.9 48.1C36.3 48.1 39.6 46.8 42 44.5C45.8 40.4 46.1 36.9 46.2 36.5C46.2 36.1 46.3 35 46.3 34.7V24.8H46.4C46.4 22.9 44.8 21.3 42.9 21.3C42.3 21.3 41.7 21.5 41.2 21.8C40.8 20.4 39.4 19.3 37.9 19.3C36.9 19.3 36 19.7 35.4 20.4C34.8 19.7 33.9 19.3 32.9 19.3C32.3 19.3 31.8 19.4 31.3 19.7V13.2C31.3 11.3 29.7 9.7 27.8 9.7C25.9 9.7 24.3 11.3 24.3 13.2V30.2L22.9 28C21.9 26.3 19.7 25.8 18 26.8ZM24.4 34.1C24.6 34.5 25.1 34.6 25.5 34.5C25.9 34.4 26.2 34 26.2 33.6V13.2C26.2 12.3 26.9 11.6 27.8 11.6C28.7 11.6 29.4 12.3 29.4 13.2V28.9C29.4 29.4 29.8 29.8 30.3 29.8C30.8 29.8 31.2 29.4 31.2 28.9V22.8C31.2 21.9 31.9 21.2 32.8 21.2C33.7 21.2 34.4 21.9 34.4 22.8V28.9C34.4 29.4 34.8 29.8 35.3 29.8C35.8 29.8 36.2 29.4 36.2 28.9V22.8C36.2 21.9 36.9 21.2 37.8 21.2C38.7 21.2 39.4 21.9 39.4 22.8V28.9C39.4 29.4 39.8 29.8 40.3 29.8C40.8 29.8 41.2 29.4 41.2 28.9V24.8C41.2 23.9 41.9 23.2 42.8 23.2C43.7 23.2 44.4 23.9 44.4 24.8V34.6C44.4 35.3 44.3 35.8 44.2 36.8C44.1 37.8 43.2 40.4 40.9 43C40.9 43 40.8 43 40.8 43.1C38.7 45.1 35.9 46.2 33 46.2C28.6 46.2 24.5 43.6 22.6 39.7L18.3 30.7C17.9 29.9 18.2 28.9 19 28.5C19.8 28 20.8 28.3 21.3 29.1L24.4 34.1Z"/>
</svg>
