<svg width="39" height="38" viewBox="0 0 39 38" xmlns="http://www.w3.org/2000/svg">
<path d="M16.8386 16.1242C18.1311 16.1242 19.1789 15.0764 19.1789 13.7839C19.1789 12.4913 18.1311 11.4435 16.8386 11.4435C15.5461 11.4435 14.4983 12.4913 14.4983 13.7839C14.4983 15.0764 15.5461 16.1242 16.8386 16.1242Z"/>
<path d="M36.0494 22.3975C34.9443 21.3574 33.5466 20.6748 32.0189 20.4798V8.58313C32.0189 7.31546 31.4988 6.1778 30.6862 5.33268C29.8411 4.48757 28.7034 4 27.4357 4H8.58313C7.31546 4 6.1778 4.52007 5.33268 5.33268C4.48757 6.1778 4 7.31546 4 8.58313V27.9883C4 29.256 4.52007 30.3936 5.33268 31.2388C6.1778 32.0839 7.31546 32.5714 8.58313 32.5714H26.8181C28.0208 33.5466 29.516 34.1642 31.1737 34.1642C33.0915 34.1642 34.8143 33.3841 36.0494 32.1489C37.2846 30.9137 38.0647 29.191 38.0647 27.2732C38.0647 25.3554 37.2846 23.6327 36.0494 22.3975ZM5.72274 8.58313C5.72274 7.80303 6.04778 7.08793 6.56785 6.60036C7.08793 6.08029 7.80303 5.75524 8.58313 5.75524H27.4357C28.2158 5.75524 28.9309 6.08029 29.451 6.60036C29.9711 7.12043 30.2961 7.83553 30.2961 8.61564V18.757L25.4855 13.9464C25.1604 13.6213 24.6078 13.5888 24.2503 13.9464L17.0018 21.2274L12.0936 16.2867C11.7686 15.9617 11.216 15.9291 10.8584 16.2867L5.72274 21.4874V8.58313ZM8.55063 30.8812V30.8487C7.77052 30.8487 7.05542 30.5237 6.53535 30.0036C6.04778 29.4835 5.72274 28.7684 5.72274 27.9883V23.9253L11.476 18.1395L16.3842 23.0476C16.7093 23.3727 17.2618 23.3727 17.6194 23.0476L24.8679 15.7666L29.6135 20.5448C29.516 20.5773 29.4185 20.6098 29.321 20.6423C29.191 20.6748 29.061 20.7073 28.8984 20.7723C28.7684 20.8048 28.6384 20.8698 28.5084 20.9023C28.4109 20.9348 28.3459 20.9673 28.2483 21.0324C28.1183 21.0974 28.0208 21.1299 27.9233 21.1949C27.7608 21.2924 27.5983 21.3899 27.4357 21.4874C27.3382 21.5524 27.2732 21.5849 27.1757 21.6499C27.1107 21.6824 27.0782 21.7149 27.0132 21.7475C26.7206 21.9425 26.4606 22.17 26.2331 22.43C24.9979 23.6652 24.2178 25.388 24.2178 27.3057C24.2178 27.7933 24.2828 28.2483 24.3803 28.7359C24.4128 28.8659 24.4453 28.9634 24.4778 29.0935C24.5753 29.4185 24.6403 29.7436 24.8029 30.0686V30.1011C24.9329 30.3611 25.0629 30.6537 25.2254 30.8812H8.55063ZM34.7817 30.9137C33.8391 31.8563 32.5714 32.4089 31.1412 32.4089C29.7761 32.4089 28.5084 31.8563 27.5983 30.9787C27.4682 30.8487 27.3382 30.6862 27.2082 30.5562C27.1107 30.4587 27.0132 30.3286 26.9157 30.1986C26.7856 30.0361 26.6881 29.8411 26.5906 29.646C26.5256 29.516 26.4606 29.4185 26.3956 29.2885C26.3306 29.126 26.2656 28.9309 26.2331 28.7359C26.2006 28.6059 26.1356 28.4434 26.1031 28.3134C26.038 27.9883 26.0055 27.6308 26.0055 27.2732C26.0055 25.843 26.5906 24.5753 27.5007 23.6327C28.4109 22.6901 29.711 22.1375 31.1412 22.1375C32.5714 22.1375 33.8391 22.7226 34.7817 23.6327C35.7244 24.5753 36.277 25.843 36.277 27.2732C36.277 28.7034 35.6919 29.9711 34.7817 30.9137Z"/>
<path d="M32.5385 27.5007L32.0185 28.0208V24.4453C32.0185 23.9577 31.6284 23.5677 31.1408 23.5677C30.6533 23.5677 30.2632 23.9577 30.2632 24.4453V28.0208L29.7431 27.5007C29.4181 27.1757 28.8655 27.1757 28.508 27.5007C28.1829 27.8258 28.1829 28.3783 28.508 28.7359L30.5233 30.7512C30.5883 30.8162 30.6858 30.8812 30.8158 30.9462C30.9133 30.9787 31.0108 31.0112 31.1083 31.0112C31.1408 31.0112 31.1408 31.0112 31.1408 31.0112C31.1733 31.0112 31.1733 31.0112 31.1733 31.0112C31.2709 31.0112 31.3684 30.9787 31.4659 30.9462C31.5634 30.9137 31.6609 30.8487 31.7584 30.7512L33.7737 28.7359C34.0987 28.4108 34.0987 27.8583 33.7737 27.5007C33.4161 27.1432 32.8636 27.1432 32.5385 27.5007Z"/>
</svg>
