<svg width="38" height="38" viewBox="0 0 38 38" xmlns="http://www.w3.org/2000/svg">
<path d="M36.9213 9.06597C36.8499 9.06351 35.3822 9.01396 33.2279 9.06157V4.64448C33.2279 3.99334 32.6719 3.47691 32.0172 3.53071C27.7216 3.88932 22.2564 5.78746 19 9.24956C15.7436 5.78746 10.2784 3.88932 5.98276 3.53071C5.32931 3.47751 4.77213 3.99163 4.77213 4.64448V9.18101C3.54808 9.13482 2.39027 9.10226 1.1508 9.06582C0.525667 9.04607 0 9.54961 0 10.1829V30.5368C0 31.125 0.455777 31.6125 1.04262 31.6519C5.48847 31.9511 12.9356 31.9848 18.5616 34.3843C19.063 34.5985 19.5131 34.3525 19.4386 34.3843C25.0644 31.9849 32.5102 31.9513 36.9575 31.6519C37.5443 31.6125 38.0002 31.125 38.0002 30.5368V10.1829C38 9.58083 37.5231 9.08698 36.9213 9.06597V9.06597ZM30.9926 5.90154V25.0571C27.7696 25.7781 23.685 27.3166 20.1176 30.5787C20.1176 29.5948 20.1176 11.8994 20.1176 11.3673C22.5631 8.3161 27.1943 6.47705 30.9926 5.90154V5.90154ZM7.00742 5.90154C10.8057 6.47705 15.4369 8.3161 17.8824 11.3673V30.5787C14.315 27.3166 10.2304 25.7781 7.00742 25.0571V5.90154ZM2.23529 29.4851V11.334C3.0356 11.3577 3.89157 11.3844 4.77213 11.418V25.9681C4.77213 26.5058 5.15511 26.9673 5.68361 27.0665C8.23564 27.5455 11.5543 28.5852 14.6474 30.824C10.2345 29.8342 5.61551 29.6752 2.23529 29.4851ZM35.7647 29.4851C32.39 29.6749 27.7672 29.8338 23.3526 30.824C26.4456 28.5852 29.7644 27.5455 32.3163 27.0665C32.8448 26.9673 33.2278 26.5058 33.2278 25.9681V11.2976C34.2565 11.2746 35.1326 11.2743 35.7646 11.28V29.4851H35.7647Z"/>
<path d="M14.9842 13.9418C14.1186 13.3388 12.6262 12.5985 11.0336 12.3294C10.4252 12.2261 9.84818 12.6366 9.74529 13.2452C9.64246 13.8538 10.0525 14.4306 10.6612 14.5334C11.8908 14.7412 13.0701 15.3326 13.7064 15.7759C14.2127 16.1286 14.9094 16.0044 15.2624 15.4978C15.6152 14.9913 15.4907 14.2947 14.9842 13.9418V13.9418Z"/>
<path d="M14.8723 20.2359C14.0759 19.7496 12.5181 18.8961 11.0336 18.6453C10.4252 18.5421 9.84818 18.9524 9.74529 19.5611C9.64246 20.1697 10.0525 20.7464 10.6612 20.8493C11.8176 21.0447 13.1766 21.8195 13.7072 22.1436C14.2347 22.4655 14.9222 22.2985 15.2436 21.7723C15.5653 21.2455 15.3991 20.5577 14.8723 20.2359V20.2359Z"/>
<path d="M24.2937 15.776C24.93 15.3326 26.1094 14.7412 27.339 14.5334C27.9476 14.4306 28.3576 13.8538 28.2549 13.2452C28.1521 12.6366 27.5751 12.2259 26.9666 12.3294C25.374 12.5985 23.8816 13.3388 23.0159 13.9419C22.5095 14.2947 22.385 14.9914 22.7378 15.4978C23.0908 16.0046 23.7877 16.1285 24.2937 15.776V15.776Z"/>
<path d="M26.9658 18.6454C25.4813 18.8962 23.9235 19.7496 23.1271 20.236C22.6003 20.5577 22.434 21.2456 22.7558 21.7724C23.0775 22.2991 23.7653 22.4653 24.2922 22.1437C24.8228 21.8196 26.1817 21.0448 27.3382 20.8494C27.9468 20.7465 28.3568 20.1698 28.2541 19.5612C28.1512 18.9525 27.5743 18.5419 26.9658 18.6454V18.6454Z"/>
</svg>