<svg width="24" height="24" viewBox="0 0 24 24" xmlns="http://www.w3.org/2000/svg">
<path d="M12.0002 1.5C10.3897 1.49993 8.80065 1.87037 7.35614 2.58266C5.91164 3.29496 4.65035 4.33001 3.66987 5.60775C2.68939 6.88548 2.01599 8.37165 1.70177 9.95128C1.38755 11.5309 1.44093 13.1616 1.85778 14.7173C2.27463 16.273 3.04378 17.712 4.10573 18.9229C5.16768 20.1337 6.49395 21.0841 7.98194 21.7004C9.46994 22.3167 11.0798 22.5824 12.6869 22.477C14.294 22.3716 15.8554 21.8979 17.2501 21.0926C17.3756 21.0269 17.4865 20.9366 17.5762 20.827C17.6658 20.7174 17.7324 20.5907 17.7718 20.4547C17.8113 20.3187 17.8228 20.1762 17.8057 20.0356C17.7887 19.895 17.7433 19.7593 17.6725 19.6367C17.6016 19.5141 17.5067 19.4071 17.3934 19.3222C17.2801 19.2372 17.1508 19.1761 17.0132 19.1424C16.8757 19.1087 16.7327 19.1032 16.593 19.1261C16.4533 19.1491 16.3196 19.2001 16.2001 19.2761C14.5989 20.2006 12.7373 20.5709 10.9041 20.3296C9.07087 20.0883 7.36852 19.2489 6.061 17.9416C4.75348 16.6342 3.91387 14.9319 3.67237 13.0988C3.43087 11.2656 3.80098 9.40395 4.72531 7.80256C5.64963 6.20117 7.07651 4.94951 8.78467 4.24169C10.4928 3.53387 12.3868 3.40943 14.1729 3.88769C15.959 4.36595 17.5374 5.42017 18.6632 6.88686C19.7891 8.35356 20.3996 10.1508 20.4 11.9998V12.7873C20.4 13.2746 20.2065 13.7419 19.8619 14.0865C19.5173 14.4311 19.0499 14.6247 18.5626 14.6247C18.0753 14.6247 17.6079 14.4311 17.2633 14.0865C16.9187 13.7419 16.7251 13.2746 16.7251 12.7873V8.32485C16.7251 8.04638 16.6145 7.77931 16.4176 7.5824C16.2207 7.38549 15.9536 7.27487 15.6751 7.27487C15.431 7.26944 15.1926 7.34929 15.0009 7.50069C14.8093 7.65209 14.6764 7.86556 14.6252 8.10435C13.8533 7.57052 12.9387 7.28148 12.0002 7.27487C11.2098 7.26542 10.4296 7.45444 9.7311 7.82464C9.03262 8.19483 8.43818 8.73435 8.00224 9.3938C7.5663 10.0532 7.30278 10.8115 7.23581 11.5992C7.16885 12.3869 7.30059 13.1788 7.61896 13.9023C7.93733 14.6259 8.43216 15.258 9.05812 15.7408C9.68409 16.2236 10.4212 16.5416 11.2019 16.6657C11.9826 16.7898 12.782 16.7161 13.5268 16.4512C14.2716 16.1864 14.9381 15.7389 15.4652 15.1497C15.964 15.7958 16.6519 16.2703 17.433 16.5073C18.214 16.7444 19.0496 16.7321 19.8234 16.4722C20.5972 16.2124 21.2708 15.7179 21.7505 15.0574C22.2302 14.397 22.4922 13.6035 22.5 12.7873V11.9998C22.5 10.6209 22.2284 9.25557 21.7008 7.98168C21.1731 6.70779 20.3997 5.5503 19.4247 4.57531C18.4497 3.60032 17.2922 2.82691 16.0183 2.29925C14.7444 1.77158 13.3791 1.5 12.0002 1.5V1.5ZM12.0002 14.6247C11.4811 14.6247 10.9736 14.4708 10.5419 14.1823C10.1102 13.8939 9.77378 13.4839 9.5751 13.0043C9.37642 12.5246 9.32444 11.9969 9.42573 11.4877C9.52701 10.9785 9.77701 10.5108 10.1441 10.1437C10.5112 9.77655 10.9789 9.52655 11.4881 9.42526C11.9973 9.32398 12.5251 9.37596 13.0048 9.57464C13.4844 9.77331 13.8944 10.1098 14.1828 10.5414C14.4712 10.9731 14.6252 11.4806 14.6252 11.9998C14.6252 12.6959 14.3486 13.3636 13.8563 13.8559C13.3641 14.3482 12.6964 14.6247 12.0002 14.6247V14.6247Z"/>
</svg>
