<svg width="38" height="38" viewBox="0 0 38 38" xmlns="http://www.w3.org/2000/svg">
<path d="M21.4001 23.3501H18.1001C17.9542 23.3501 17.8143 23.2921 17.7112 23.189C17.608 23.0858 17.5501 22.9459 17.5501 22.8001V20.7359C17.4709 20.7046 17.3944 20.6727 17.3196 20.6402L15.8599 22.0999C15.7568 22.2031 15.6169 22.261 15.4711 22.2611C15.3252 22.261 15.1854 22.2031 15.0822 22.0999L12.7502 19.7679C12.6471 19.6648 12.5892 19.5249 12.5892 19.3791C12.5892 19.2332 12.6471 19.0933 12.7502 18.9902L14.2099 17.53C14.1769 17.4557 14.1456 17.3793 14.1142 17.3001H12.0501C11.9042 17.3001 11.7643 17.2421 11.6612 17.139C11.558 17.0358 11.5001 16.8959 11.5001 16.75V13.45C11.5001 13.3042 11.558 13.1643 11.6612 13.0611C11.7643 12.958 11.9042 12.9 12.0501 12.9H14.1142C14.1456 12.8208 14.1769 12.7444 14.2099 12.6696L12.7502 11.2099C12.6471 11.1067 12.5892 10.9669 12.5892 10.821C12.5892 10.6752 12.6471 10.5353 12.7502 10.4322L15.0822 8.10017C15.1873 8.0008 15.3265 7.94543 15.4711 7.94543C15.6157 7.94543 15.7549 8.0008 15.8599 8.10017L17.3196 9.55987C17.3944 9.52742 17.4709 9.49552 17.5501 9.46417V7.40002C17.5501 7.25415 17.608 7.11425 17.7112 7.01111C17.8143 6.90796 17.9542 6.85001 18.1001 6.85001H21.4001C21.546 6.85001 21.6859 6.90796 21.789 7.01111C21.8922 7.11425 21.9501 7.25415 21.9501 7.40002V9.46417C22.0293 9.49552 22.1058 9.52742 22.1806 9.55987L23.6403 8.10017C23.7434 7.99702 23.8833 7.93905 24.0291 7.93902C24.175 7.93905 24.3148 7.99702 24.418 8.10017L26.75 10.4322C26.8531 10.5353 26.911 10.6752 26.911 10.821C26.911 10.9669 26.8531 11.1067 26.75 11.2099L25.2903 12.6696C25.3233 12.7444 25.3546 12.8208 25.386 12.9H27.4501C27.596 12.9 27.7359 12.958 27.839 13.0611C27.9422 13.1643 28.0001 13.3042 28.0001 13.45V16.75C28.0001 16.8959 27.9422 17.0358 27.839 17.139C27.7359 17.2421 27.596 17.3001 27.4501 17.3001H25.386C25.3546 17.3793 25.3233 17.4557 25.2903 17.53L26.75 18.9902C26.8531 19.0933 26.911 19.2332 26.911 19.3791C26.911 19.5249 26.8531 19.6648 26.75 19.7679L24.418 22.0999C24.3129 22.1993 24.1737 22.2547 24.0291 22.2547C23.8845 22.2547 23.7454 22.1993 23.6403 22.0999L22.1806 20.6402C22.1058 20.6727 22.0293 20.7046 21.9501 20.7359V22.8001C21.9501 22.9459 21.8922 23.0858 21.789 23.189C21.6859 23.2921 21.546 23.3501 21.4001 23.3501ZM18.6501 22.2501H20.8501V20.3471C20.8501 20.2307 20.887 20.1173 20.9554 20.0232C21.0239 19.9291 21.1205 19.8592 21.2313 19.8235C21.5065 19.7385 21.7728 19.627 22.0266 19.4907C22.1309 19.4335 22.251 19.4117 22.3688 19.4285C22.4867 19.4454 22.5958 19.5 22.68 19.5842L24.0291 20.9334L25.5829 19.3791L24.2343 18.0299C24.1502 17.9458 24.0957 17.8367 24.0788 17.719C24.062 17.6013 24.0837 17.4814 24.1408 17.3771C24.2767 17.1231 24.3882 16.8568 24.4735 16.5817C24.5092 16.4709 24.579 16.3742 24.6731 16.3056C24.7672 16.237 24.8807 16.2001 24.9971 16.2H26.9001V14H24.9971C24.8807 14 24.7672 13.9631 24.6731 13.8945C24.579 13.8259 24.5092 13.7292 24.4735 13.6183C24.3882 13.3432 24.2767 13.0769 24.1408 12.823C24.0837 12.7187 24.062 12.5987 24.0788 12.481C24.0957 12.3633 24.1502 12.2543 24.2343 12.1702L25.5829 10.821L24.0291 9.26672L22.68 10.6159C22.5958 10.7001 22.4867 10.7547 22.3688 10.7715C22.251 10.7884 22.1309 10.7666 22.0266 10.7094C21.7727 10.574 21.5064 10.4635 21.2313 10.3794C21.1201 10.3435 21.0232 10.2732 20.9546 10.1785C20.8861 10.0839 20.8495 9.96987 20.8501 9.85302V7.95002H18.6501V9.85302C18.6501 9.9694 18.6132 10.0828 18.5448 10.1769C18.4763 10.271 18.3797 10.3409 18.2689 10.3766C17.9938 10.4607 17.7275 10.5712 17.4736 10.7066C17.3693 10.7638 17.2492 10.7856 17.1314 10.7688C17.0135 10.7519 16.9044 10.6973 16.8202 10.6131L15.4711 9.26672L13.9201 10.821L15.2687 12.1702C15.3527 12.2543 15.4073 12.3633 15.4241 12.481C15.441 12.5987 15.4193 12.7187 15.3622 12.823C15.2262 13.0769 15.1148 13.3432 15.0294 13.6183C14.9937 13.7296 14.9233 13.8267 14.8287 13.8953C14.7341 13.9639 14.62 14.0006 14.5031 14H12.6001V16.2H14.5031C14.6195 16.2001 14.733 16.237 14.8271 16.3056C14.9212 16.3742 14.9911 16.4709 15.0267 16.5817C15.112 16.8568 15.2235 17.1231 15.3594 17.3771C15.4165 17.4814 15.4382 17.6013 15.4214 17.719C15.4045 17.8367 15.35 17.9458 15.2659 18.0299L13.9201 19.3791L15.4738 20.9334L16.823 19.5842C16.9071 19.5 17.0163 19.4454 17.1341 19.4285C17.2519 19.4117 17.372 19.4335 17.4764 19.4907C17.7301 19.627 17.9965 19.7385 18.2717 19.8235C18.3819 19.8597 18.4779 19.9298 18.5459 20.0238C18.6138 20.1179 18.6503 20.231 18.6501 20.3471V22.2501Z"/>
<path d="M19.7503 18.4001C19.0976 18.4001 18.4596 18.2065 17.9169 17.8439C17.3742 17.4813 16.9512 16.9659 16.7014 16.3629C16.4517 15.7599 16.3863 15.0964 16.5137 14.4563C16.641 13.8161 16.9553 13.2281 17.4168 12.7666C17.8783 12.3051 18.4663 11.9908 19.1065 11.8635C19.7466 11.7361 20.4101 11.8015 21.0131 12.0512C21.6161 12.301 22.1315 12.724 22.4941 13.2667C22.8567 13.8094 23.0503 14.4474 23.0503 15.1001C23.0494 15.975 22.7014 16.8139 22.0828 17.4326C21.4641 18.0512 20.6252 18.3992 19.7503 18.4001ZM19.7503 12.9C19.3151 12.9 18.8898 13.0291 18.528 13.2708C18.1662 13.5126 17.8842 13.8562 17.7177 14.2582C17.5512 14.6601 17.5076 15.1025 17.5925 15.5293C17.6774 15.956 17.8869 16.348 18.1946 16.6557C18.5023 16.9634 18.8943 17.1729 19.3211 17.2578C19.7478 17.3427 20.1902 17.2991 20.5922 17.1326C20.9942 16.9661 21.3378 16.6841 21.5795 16.3223C21.8212 15.9605 21.9503 15.5352 21.9503 15.1001C21.9503 14.5166 21.7185 13.957 21.3059 13.5444C20.8933 13.1318 20.3337 12.9 19.7503 12.9Z"/>
<path d="M31.9501 27.2001C32.096 27.2001 32.2359 27.1421 32.339 27.039C32.4421 26.9359 32.5001 26.796 32.5001 26.6501V3.55C32.5001 3.40413 32.4421 3.26424 32.339 3.16109C32.2359 3.05795 32.096 3 31.9501 3H8.30001C7.42506 3.00087 6.5862 3.34883 5.96752 3.96752C5.34883 4.5862 5.00087 5.42506 5 6.30001V29.4001C5.00087 30.275 5.34883 31.1139 5.96752 31.7326C6.5862 32.3513 7.42506 32.6992 8.30001 32.7001H9.95002V35.4501C9.95004 35.5589 9.98231 35.6652 10.0427 35.7556C10.1032 35.846 10.1891 35.9165 10.2896 35.9581C10.39 35.9998 10.5006 36.0107 10.6073 35.9894C10.714 35.9682 10.812 35.9159 10.8889 35.839L12.7 34.0278L14.5112 35.839C14.5881 35.9159 14.6861 35.9682 14.7928 35.9894C14.8994 36.0107 15.01 35.9998 15.1105 35.9581C15.211 35.9165 15.2969 35.846 15.3573 35.7556C15.4177 35.6652 15.45 35.5589 15.45 35.4501V32.7001H31.9501C32.096 32.7001 32.2359 32.6422 32.339 32.539C32.4421 32.4359 32.5001 32.296 32.5001 32.1501C32.5001 32.0042 32.4421 31.8643 32.339 31.7612C32.2359 31.658 32.096 31.6001 31.9501 31.6001C31.3666 31.6001 30.807 31.3683 30.3945 30.9557C29.9819 30.5432 29.7501 29.9836 29.7501 29.4001C29.7501 28.8166 29.9819 28.257 30.3945 27.8445C30.807 27.4319 31.3666 27.2001 31.9501 27.2001ZM14.35 34.1224L13.0889 32.8613C12.9857 32.7581 12.8459 32.7002 12.7 32.7002C12.5542 32.7002 12.4143 32.7581 12.3112 32.8613L11.05 34.1224V29.9501H14.35V34.1224ZM29.4971 31.6001H15.45V29.9501H27.0001C27.1459 29.9501 27.2858 29.8922 27.389 29.789C27.4921 29.6859 27.5501 29.546 27.5501 29.4001C27.5501 29.2542 27.4921 29.1143 27.389 29.0112C27.2858 28.908 27.1459 28.8501 27.0001 28.8501H7.75001C7.60414 28.8501 7.46425 28.908 7.3611 29.0112C7.25795 29.1143 7.20001 29.2542 7.20001 29.4001C7.20001 29.546 7.25795 29.6859 7.3611 29.789C7.46425 29.8922 7.60414 29.9501 7.75001 29.9501H9.95002V31.6001H8.30001C7.71653 31.6001 7.15695 31.3683 6.74437 30.9557C6.33179 30.5432 6.1 29.9836 6.1 29.4001C6.1 28.8166 6.33179 28.257 6.74437 27.8445C7.15695 27.4319 7.71653 27.2001 8.30001 27.2001H29.4971C28.9519 27.8032 28.6501 28.5872 28.6501 29.4001C28.6501 30.213 28.9519 30.997 29.4971 31.6001ZM8.30001 26.1001C7.48798 26.1001 6.70456 26.4 6.1 26.9421V6.30001C6.1 5.71653 6.33179 5.15695 6.74437 4.74437C7.15695 4.33179 7.71653 4.1 8.30001 4.1H31.4001V26.1001H8.30001Z"/>
</svg>