<svg width="32" height="32" viewBox="0 0 32 32" xmlns="http://www.w3.org/2000/svg">
<path d="M25.7299 26H21.9147C21.177 26 20.5757 25.3586 20.5757 24.5726V9.14206C20.5757 8.35417 21.177 7.71472 21.9147 7.71472H25.7299C26.4676 7.71472 27.0689 8.35607 27.0689 9.14206V24.5707C27.0689 25.3586 26.4676 26 25.7299 26ZM21.9147 8.85659C21.8263 8.85659 21.7284 8.9784 21.7284 9.14206V24.5707C21.7284 24.7344 21.8263 24.8562 21.9147 24.8562H25.7299C25.8183 24.8562 25.9162 24.7344 25.9162 24.5707V9.14206C25.9162 8.9784 25.8183 8.85659 25.7299 8.85659H21.9147Z"/>
<path d="M18.1341 26H13.9366C13.1989 26 12.5977 25.3586 12.5977 24.5727V7.42735C12.5977 6.63945 13.1989 6 13.9366 6H18.1341C18.8718 6 19.4731 6.64136 19.4731 7.42735V24.5707C19.4731 25.3586 18.8718 26 18.1341 26ZM13.9366 7.14188C13.8483 7.14188 13.7503 7.26368 13.7503 7.42735V24.5707C13.7503 24.7344 13.8483 24.8562 13.9366 24.8562H18.1341C18.2225 24.8562 18.3205 24.7344 18.3205 24.5707V7.42735C18.3205 7.26368 18.2225 7.14188 18.1341 7.14188H13.9366Z"/>
<path d="M10.1542 26H6.33897C5.60129 26 5 25.3586 5 24.5726V14.2862C5 13.4983 5.60129 12.8589 6.33897 12.8589H10.1542C10.8918 12.8589 11.4931 13.5002 11.4931 14.2862V24.5726C11.4951 25.3586 10.8938 26 10.1542 26ZM6.33897 13.9989C6.2506 13.9989 6.15263 14.1207 6.15263 14.2843V24.5707C6.15263 24.7344 6.2506 24.8562 6.33897 24.8562H10.1542C10.2425 24.8562 10.3405 24.7344 10.3405 24.5707V14.2862C10.3405 14.1226 10.2425 14.0008 10.1542 14.0008H6.33897V13.9989Z"/>
</svg>