<svg width="18" height="23" viewBox="0 0 18 23" xmlns="http://www.w3.org/2000/svg">
<path d="M17.4691 12.1773C17.4964 14.4695 16.4664 19.0182 8.73682 22.0803C1.00722 19.0182 -0.0227877 14.4695 0.00455755 12.1773C0.00455755 11.6655 0 3.83212 0 3.67634C0.0820359 3.67634 0.20509 3.6808 0.287126 3.6808C4.13825 3.6808 7.42425 2.15418 8.73682 0C9.57997 1.37974 11.2298 2.49689 13.3126 3.1289C13.2989 3.14225 13.2853 3.1556 13.2716 3.17341L12.2325 4.41072C11.011 3.97455 9.91723 3.38259 9.01939 2.65267L8.73226 2.42122L8.44514 2.65267C6.80898 3.98345 4.51653 4.8647 1.99165 5.14065L1.59058 5.18516V8.18053C1.59058 10.0899 1.59058 11.9325 1.59058 12.1729V12.1862V12.1907C1.5678 14.0778 2.44285 17.6384 8.5454 20.3089L8.72771 20.389L8.91001 20.3089C15.0126 17.6384 15.8876 14.0734 15.8648 12.1907V12.1862V12.1729C15.8648 12.0305 15.8648 11.3139 15.8648 10.357L17.46 8.45648C17.4691 10.268 17.4691 11.9503 17.4691 12.1773Z"/>
<path d="M3.59082 10.4547L5.2133 8.74116L8.73172 11.8923L14.8981 4.53516L16.7484 6.01727L8.96871 15.2972L3.59082 10.4547Z"/>
</svg>
