<svg width="141" height="49" viewBox="0 0 141 49" xmlns="http://www.w3.org/2000/svg">
<path d="M53.1552 12.2306C54.4827 13.7959 55.1433 16.1375 55.1433 19.2679V31.4108H49.9321V20.212C49.9321 18.5288 49.6357 17.2741 49.0492 16.448C48.4564 15.6219 47.6167 15.2058 46.5238 15.2058C45.3013 15.2058 44.3319 15.6716 43.6156 16.6033C42.8994 17.535 42.5474 18.9201 42.5474 20.7648V31.4046H37.3362V20.212C37.3362 16.8766 36.2001 15.2058 33.9279 15.2058C32.7239 15.2058 31.7668 15.6716 31.0568 16.6033C30.3467 17.535 29.9886 18.9201 29.9886 20.7648V31.4046H24.7773V10.5909H29.754V12.6406C30.4208 11.7462 31.242 11.0629 32.2114 10.5909C33.1808 10.1188 34.2428 9.88281 35.4036 9.88281C36.6755 9.88281 37.8178 10.1809 38.8428 10.771C39.8677 11.3611 40.6889 12.2244 41.3126 13.3549C42.0473 12.2493 42.9797 11.3983 44.1034 10.7959C45.2272 10.1934 46.4621 9.88902 47.7957 9.88902C50.0371 9.88902 51.8277 10.6654 53.1552 12.2306Z M10.8053 26.1111C10.8053 26.1111 9.34196 27.0925 8.11324 27.1608C7.04506 27.2167 6.58815 27.1173 5.93983 26.3844C5.40883 25.7881 5.1495 24.4962 5.22977 22.8937V15.1732H11.7006V10.5769H5.23594V4.32227H0V22.9248C0 24.2912 0.104966 25.5272 0.321072 26.5956C0.537178 27.6763 0.91382 28.6142 1.44482 29.3782C1.982 30.1484 2.71059 30.7508 3.62441 31.1546C4.52588 31.5583 5.66198 31.7633 6.99566 31.7633C8.08854 31.7633 9.05793 31.6328 9.87296 31.3844C10.6756 31.1359 12.4107 30.2726 12.4107 30.2726L10.8053 26.1111Z M73.6608 20.7205C73.6608 22.8012 73.1298 24.4534 72.0863 25.6335C71.0428 26.8075 69.5795 27.1304 67.7333 27.1304C65.9304 27.1304 64.7634 26.4969 64.3312 26.2857V16.0124C64.7696 15.7391 65.3438 15.4845 66.0539 15.2609C66.7886 15.0248 67.579 14.9068 68.4064 14.9068C70.2216 14.9068 71.5615 15.4969 72.3951 16.6522C73.2348 17.8137 73.6608 18.7143 73.6608 20.7205ZM78.4213 16.3416C77.9829 15 77.347 13.8323 76.5258 12.8758C75.7046 11.9193 74.6611 11.1677 73.4324 10.646C72.2036 10.1304 70.7959 9.86335 69.2399 9.86335C66.7578 9.86335 64.8869 10.8571 64.3189 11.2857V2L59.0273 2.03106V29.7702C59.0273 29.7702 61.4724 31.764 67.7642 31.764C69.5054 31.764 71.0922 31.5093 72.4753 31.0062C73.8584 30.5031 75.0562 29.7578 76.0318 28.8012C77.0074 27.8447 77.7668 26.677 78.2917 25.3354C78.8165 23.9938 79.0758 22.4658 79.0758 20.795C79.082 19.1863 78.8597 17.6832 78.4213 16.3416Z M118.031 10.3717L116.913 15.4027C116.351 15.1854 115.839 15.0549 114.851 15.0549C112.585 15.0549 110.214 17.8375 110.214 19.9121V31.4027H105.009L104.99 10.5767H109.948L109.967 13.2288C111.702 11.0239 114.388 9.63256 118.031 10.3717Z M131.467 20.5776L139.506 10.5839H133.437L126.101 19.6832V2H120.859V31.4099H126.101V21.795L134.351 31.4099H140.815L131.467 20.5776Z M91.6978 14.1499C94.3342 14.1499 96.5077 16.2058 96.767 18.8455H86.6285C86.8878 16.212 89.0551 14.1499 91.6978 14.1499ZM101.774 22.566C101.861 21.9946 101.904 21.4107 101.904 20.8082C101.904 20.6902 101.898 20.5722 101.898 20.4542C101.879 19.9076 101.83 19.3672 101.737 18.8455C100.892 13.8331 97.1128 9.82688 92.0003 9.82688C91.883 9.82688 91.7657 9.81445 91.6484 9.81445C85.7332 9.81445 81.3926 14.7337 81.3926 20.802C81.3926 26.8704 85.9864 31.7896 91.6484 31.7896C91.7657 31.7896 91.883 31.7834 92.0003 31.7772C92.13 31.7834 92.2535 31.7896 92.3831 31.7896C95.6432 31.7896 98.5699 30.3735 100.583 28.1188L99.848 27.4045L97.5511 25.1809C95.353 27.448 91.9818 28.0691 89.2835 26.4728C87.7831 25.5846 86.8632 24.2554 86.5606 22.5598H101.774V22.566Z M15.6469 10.5901H20.8334V31.4037H15.6469V10.5901ZM18.3513 0C19.8393 0 21.3274 1.20497 21.3274 3.09938C21.3274 5.22981 19.8393 6.42857 18.3513 6.42857C16.5916 6.42857 15.1035 5.2236 15.1035 3.09938C15.1035 1.20497 16.5916 0 18.3513 0Z M136.03 46.1798L137.474 42.7388L138.919 46.1798H136.03ZM139.994 48.7388H141L137.956 41.714H137.005L133.967 48.7388H134.955L135.69 46.9811H139.253L139.994 48.7388ZM134.066 41.714H128.54V42.5898H130.831V48.7388H131.769V42.5898H134.066V41.714ZM125.514 45.7388H123.884V42.5898H125.514C126.12 42.5898 126.583 42.7264 126.904 42.9935C127.225 43.2668 127.385 43.6519 127.385 44.1612C127.385 44.6705 127.225 45.0618 126.904 45.3289C126.583 45.6022 126.12 45.7388 125.514 45.7388ZM125.539 41.714H122.927V48.7388H123.884V46.6084H125.539C126.41 46.6084 127.089 46.391 127.589 45.9562C128.089 45.5214 128.336 44.9252 128.336 44.1612C128.336 43.3972 128.089 42.801 127.589 42.3662C127.095 41.9314 126.41 41.714 125.539 41.714ZM117.821 47.9252C117.327 47.9252 116.883 47.8072 116.487 47.5711C116.086 47.3351 115.777 47.0121 115.549 46.6022C115.32 46.1923 115.209 45.7326 115.209 45.2233C115.209 44.714 115.32 44.2544 115.549 43.8444C115.777 43.4345 116.086 43.1115 116.487 42.8755C116.889 42.6395 117.333 42.5214 117.821 42.5214C118.315 42.5214 118.753 42.6395 119.149 42.8755C119.544 43.1115 119.852 43.4345 120.075 43.8444C120.303 44.2544 120.414 44.714 120.414 45.2233C120.414 45.7326 120.303 46.1923 120.075 46.6022C119.846 47.0121 119.538 47.3351 119.149 47.5711C118.753 47.8072 118.315 47.9252 117.821 47.9252ZM117.821 48.8196C118.494 48.8196 119.099 48.6643 119.643 48.3537C120.186 48.0432 120.612 47.6146 120.914 47.068C121.223 46.5215 121.371 45.9065 121.371 45.2233C121.371 44.5401 121.217 43.9252 120.914 43.3848C120.606 42.8382 120.186 42.4096 119.643 42.0991C119.099 41.7885 118.494 41.6332 117.821 41.6332C117.142 41.6332 116.537 41.7885 115.993 42.0991C115.45 42.4096 115.024 42.8382 114.715 43.391C114.407 43.9376 114.252 44.5525 114.252 45.2295C114.252 45.9065 114.407 46.5152 114.715 47.068C115.024 47.6146 115.45 48.0494 115.993 48.36C116.537 48.6643 117.142 48.8196 117.821 48.8196ZM106.25 45.2171C106.25 44.5277 106.472 43.9935 106.923 43.6084C107.374 43.2295 108.028 43.0121 108.88 42.9562V47.4718C108.035 47.4159 107.386 47.1985 106.929 46.8134C106.479 46.4283 106.25 45.9003 106.25 45.2171ZM109.776 47.4718V42.9562C110.615 43.0121 111.27 43.2295 111.727 43.6146C112.184 43.9997 112.412 44.5277 112.412 45.2047C112.412 45.8941 112.19 46.4283 111.739 46.8134C111.282 47.1985 110.634 47.4221 109.776 47.4718ZM113.332 45.2171C113.332 44.2916 113.024 43.5649 112.4 43.037C111.776 42.5028 110.906 42.2171 109.782 42.1674V41.4531H108.893V42.1674C107.763 42.2171 106.886 42.5028 106.262 43.0308C105.639 43.5587 105.33 44.2916 105.33 45.2171C105.33 46.1426 105.639 46.8693 106.262 47.3972C106.886 47.9252 107.763 48.2109 108.893 48.2606V49.0059H109.782V48.2606C110.912 48.2233 111.789 47.9376 112.406 47.4097C113.017 46.8755 113.332 46.1426 113.332 45.2171ZM103.848 48.7388L103.836 41.714H103.052L100.292 46.6519L97.4947 41.714H96.7106V48.7388H97.6306V43.6519L100.051 47.8879H100.489L102.91 43.6208L102.922 48.7388H103.848ZM91.6105 47.9252C91.1165 47.9252 90.672 47.8072 90.2768 47.5711C89.8755 47.3351 89.5667 47.0121 89.3383 46.6022C89.1098 46.1923 88.9987 45.7326 88.9987 45.2233C88.9987 44.714 89.1098 44.2544 89.3383 43.8444C89.5667 43.4345 89.8755 43.1115 90.2768 42.8755C90.6781 42.6395 91.1227 42.5214 91.6105 42.5214C92.1044 42.5214 92.5428 42.6395 92.938 42.8755C93.3332 43.1115 93.6419 43.4345 93.8642 43.8444C94.0926 44.2544 94.2038 44.714 94.2038 45.2233C94.2038 45.7326 94.0926 46.1923 93.8642 46.6022C93.6357 47.0121 93.327 47.3351 92.938 47.5711C92.5428 47.8072 92.0983 47.9252 91.6105 47.9252ZM91.6105 48.8196C92.2835 48.8196 92.8886 48.6643 93.432 48.3537C93.9753 48.0432 94.4013 47.6146 94.7039 47.068C95.0126 46.5215 95.1608 45.9065 95.1608 45.2233C95.1608 44.5401 95.0064 43.9252 94.7039 43.3848C94.3952 42.8382 93.9753 42.4096 93.432 42.0991C92.8886 41.7885 92.2835 41.6332 91.6105 41.6332C90.9313 41.6332 90.3262 41.7885 89.7828 42.0991C89.2395 42.4096 88.8134 42.8382 88.5047 43.391C88.196 43.9376 88.0416 44.5525 88.0416 45.2295C88.0416 45.9065 88.196 46.5152 88.5047 47.068C88.8134 47.6146 89.2395 48.0494 89.7828 48.36C90.32 48.6643 90.9313 48.8196 91.6105 48.8196ZM86.5351 48.7388H87.628L85.1211 45.1177L87.5168 41.714H86.4919L84.3864 44.7637H82.9662V41.714H82.0277V48.7388H82.9662V45.6457H84.3617L86.5351 48.7388ZM74.3405 47.9252C73.8466 47.9252 73.402 47.8072 73.0068 47.5711C72.6055 47.3351 72.2968 47.0121 72.0683 46.6022C71.8399 46.1923 71.7287 45.7326 71.7287 45.2233C71.7287 44.714 71.8399 44.2544 72.0683 43.8444C72.2968 43.4345 72.6055 43.1115 73.0068 42.8755C73.4082 42.6395 73.8527 42.5214 74.3405 42.5214C74.8345 42.5214 75.2729 42.6395 75.668 42.8755C76.0632 43.1115 76.3719 43.4345 76.5942 43.8444C76.8226 44.2544 76.9338 44.714 76.9338 45.2233C76.9338 45.7326 76.8226 46.1923 76.5942 46.6022C76.3657 47.0121 76.057 47.3351 75.668 47.5711C75.2729 47.8072 74.8345 47.9252 74.3405 47.9252ZM74.3405 48.8196C75.0135 48.8196 75.6186 48.6643 76.162 48.3537C76.7053 48.0432 77.1314 47.6146 77.4339 47.068C77.7426 46.5215 77.8908 45.9065 77.8908 45.2233C77.8908 44.5401 77.7365 43.9252 77.4339 43.3848C77.1252 42.8382 76.7053 42.4096 76.162 42.0991C75.6186 41.7885 75.0135 41.6332 74.3405 41.6332C73.6613 41.6332 73.0562 41.7885 72.5129 42.0991C71.9695 42.4096 71.5435 42.8382 71.2348 43.391C70.926 43.9376 70.7717 44.5525 70.7717 45.2295C70.7717 45.9065 70.926 46.5152 71.2348 47.068C71.5435 47.6146 71.9695 48.0494 72.5129 48.36C73.0562 48.6643 73.6613 48.8196 74.3405 48.8196ZM67.2152 47.9438H65.1159V45.5649H67.2152C67.7277 45.5649 68.1105 45.6581 68.3698 45.8506C68.6291 46.0432 68.7588 46.3351 68.7588 46.7388C68.7588 47.5401 68.2463 47.9438 67.2152 47.9438ZM65.1159 42.5028H66.9806C67.4375 42.5028 67.7956 42.6022 68.0426 42.801C68.2895 42.9997 68.413 43.2854 68.413 43.6581C68.413 44.0308 68.2895 44.3165 68.0426 44.509C67.7956 44.7016 67.4375 44.801 66.9744 44.801H65.1097V42.5028H65.1159ZM68.3451 45.0929C68.6785 44.9562 68.9317 44.7575 69.1169 44.4904C69.296 44.2233 69.3886 43.9003 69.3886 43.5152C69.3886 42.9314 69.1848 42.4842 68.7711 42.1736C68.3575 41.8631 67.7832 41.7078 67.0546 41.7078H64.1712V48.7326H67.2337C68.0426 48.7326 68.66 48.5649 69.086 48.2295C69.5121 47.8941 69.722 47.4221 69.722 46.8134C69.722 46.36 69.6047 45.9873 69.3701 45.6954C69.1416 45.4096 68.7958 45.2109 68.3451 45.0929ZM63.0042 41.714H57.4781V42.5898H59.7688V48.7388H60.7073V42.5898H63.0042V41.714ZM54.5946 48.8196C55.1194 48.8196 55.601 48.7264 56.0332 48.5401C56.4716 48.3538 56.8421 48.0805 57.1508 47.7202L56.5272 47.0867C56.0147 47.6457 55.3849 47.9314 54.6378 47.9314C54.1377 47.9314 53.6869 47.8134 53.2856 47.5774C52.8843 47.3413 52.5694 47.0183 52.3409 46.6084C52.1124 46.1985 52.0013 45.7388 52.0013 45.2295C52.0013 44.7202 52.1124 44.2606 52.3409 43.8506C52.5694 43.4407 52.8843 43.1177 53.2856 42.8817C53.6869 42.6457 54.1377 42.5277 54.6378 42.5277C55.3911 42.5277 56.0209 42.8072 56.5272 43.36L57.1508 42.7264C56.8421 42.3662 56.4716 42.0929 56.0394 41.9065C55.6072 41.7202 55.1256 41.6332 54.6008 41.6332C53.9277 41.6332 53.3227 41.7885 52.7793 42.0991C52.2359 42.4096 51.8099 42.8382 51.5074 43.3848C51.1986 43.9314 51.0504 44.5463 51.0504 45.2233C51.0504 45.9003 51.2048 46.5215 51.5074 47.068C51.8161 47.6146 52.2359 48.0432 52.7793 48.3537C53.3165 48.6643 53.9216 48.8196 54.5946 48.8196ZM47.4878 47.9438H45.3885V45.5649H47.4878C48.0003 45.5649 48.3831 45.6581 48.6424 45.8506C48.9017 46.0432 49.0314 46.3351 49.0314 46.7388C49.0252 47.5401 48.5127 47.9438 47.4878 47.9438ZM45.3885 42.5028H47.2532C47.7101 42.5028 48.0682 42.6022 48.3152 42.801C48.5621 42.9997 48.6856 43.2854 48.6856 43.6581C48.6856 44.0308 48.5621 44.3165 48.3152 44.509C48.0682 44.7016 47.7162 44.801 47.247 44.801H45.3823V42.5028H45.3885ZM48.6177 45.0929C48.9511 44.9562 49.2043 44.7575 49.3895 44.4904C49.5686 44.2233 49.6612 43.9003 49.6612 43.5152C49.6612 42.9314 49.4574 42.4842 49.0437 42.1736C48.6301 41.8631 48.0558 41.7078 47.3272 41.7078H44.4438V48.7326H47.5063C48.3152 48.7326 48.9326 48.5649 49.3586 48.2295C49.7847 47.8941 49.9946 47.4221 49.9946 46.8134C49.9946 46.36 49.8773 45.9873 49.6427 45.6954C49.4142 45.4096 49.0684 45.2109 48.6177 45.0929ZM42.505 41.714L40.276 46.1674L38.1026 41.714H37.0776L39.7759 47.0432L39.6215 47.2916C39.3498 47.7575 38.9979 47.9935 38.578 47.9935C38.3928 47.9935 38.1829 47.95 37.9482 47.8631L37.7013 48.6643C38.01 48.8072 38.3064 48.8755 38.6027 48.8755C38.9794 48.8755 39.3251 48.7637 39.6462 48.5339C39.9673 48.3041 40.2451 47.9624 40.4798 47.5028L43.4559 41.714H42.505ZM34.9289 41.714V45.068C34.3115 45.36 33.6879 45.509 33.0704 45.509C32.5147 45.509 32.0825 45.3662 31.78 45.0867C31.4774 44.8072 31.323 44.4034 31.323 43.8817V41.714H30.3845V43.9935C30.3845 44.7637 30.6068 45.3537 31.0575 45.7699C31.5083 46.186 32.1442 46.391 32.9593 46.391C33.5582 46.391 34.2127 46.2482 34.9228 45.9624V48.7451H35.8736V41.714H34.9289ZM22.9319 47.8631V45.596H26.2909V44.7451H22.9319V42.5898H26.7045V41.714H21.9749V48.7388H26.8404V47.8631H22.9319ZM16.8686 47.9252C16.3747 47.9252 15.9301 47.8072 15.5349 47.5711C15.1336 47.3351 14.8249 47.0121 14.5964 46.6022C14.368 46.1923 14.2568 45.7326 14.2568 45.2233C14.2568 44.714 14.368 44.2544 14.5964 43.8444C14.8249 43.4345 15.1336 43.1115 15.5349 42.8755C15.9363 42.6395 16.3808 42.5214 16.8686 42.5214C17.3564 42.5214 17.801 42.6395 18.1961 42.8755C18.5913 43.1115 18.9 43.4345 19.1223 43.8444C19.3508 44.2544 19.4619 44.714 19.4619 45.2233C19.4619 45.7326 19.3508 46.1923 19.1223 46.6022C18.8939 47.0121 18.5851 47.3351 18.1961 47.5711C17.801 47.8072 17.3564 47.9252 16.8686 47.9252ZM16.8686 48.8196C17.5416 48.8196 18.1467 48.6643 18.6901 48.3537C19.2334 48.0432 19.6595 47.6146 19.962 47.068C20.2708 46.5215 20.4189 45.9065 20.4189 45.2233C20.4189 44.5401 20.2646 43.9252 19.962 43.3848C19.6533 42.8382 19.2334 42.4096 18.6901 42.0991C18.1467 41.7885 17.5416 41.6332 16.8686 41.6332C16.1894 41.6332 15.5843 41.7885 15.041 42.0991C14.4976 42.4096 14.0716 42.8382 13.7629 43.391C13.4542 43.9376 13.2998 44.5525 13.2998 45.2295C13.2998 45.9065 13.4542 46.5152 13.7629 47.068C14.0716 47.6146 14.4976 48.0494 15.041 48.36C15.5782 48.6643 16.1894 48.8196 16.8686 48.8196ZM9.7433 47.9438H7.64398V45.5649H9.7433C10.2558 45.5649 10.6386 45.6581 10.8979 45.8506C11.1573 46.0432 11.2869 46.3351 11.2869 46.7388C11.2869 47.5401 10.7683 47.9438 9.7433 47.9438ZM7.64398 42.5028H9.50867C9.96558 42.5028 10.3237 42.6022 10.5707 42.801C10.8177 42.9997 10.9411 43.2854 10.9411 43.6581C10.9411 44.0308 10.8177 44.3165 10.5707 44.509C10.3237 44.7016 9.97176 44.801 9.5025 44.801H7.63781V42.5028H7.64398ZM10.8732 45.0929C11.2066 44.9562 11.4598 44.7575 11.645 44.4904C11.8241 44.2233 11.9167 43.9003 11.9167 43.5152C11.9167 42.9314 11.713 42.4842 11.2993 42.1736C10.8856 41.8631 10.3114 41.7078 9.58276 41.7078H6.69929V48.7326H9.76182C10.5707 48.7326 11.1881 48.5649 11.6142 48.2295C12.0402 47.8941 12.2501 47.4221 12.2501 46.8134C12.2501 46.36 12.1328 45.9873 11.8982 45.6954C11.6697 45.4096 11.324 45.2109 10.8732 45.0929ZM5.52614 41.714H0V42.5898H2.29073V48.7388H3.22924V42.5898H5.52614V41.714Z"/>
</svg>