<svg width="10" height="20" viewBox="0 0 10 20" xmlns="http://www.w3.org/2000/svg">
<path d="M9.61538 0H7.21154C4.51923 0 2.76923 1.93548 2.76923 4.93236V7.20083H0.384615C0.173077 7.20083 0 7.38814 0 7.61707V10.9053C0 11.1342 0.173077 11.3215 0.384615 11.3215H2.78846V19.6254C2.78846 19.8543 2.96154 20.0416 3.17308 20.0416H6.32692C6.53846 20.0416 6.71154 19.8543 6.71154 19.6254V11.3007H9.53846C9.75 11.3007 9.92308 11.1134 9.92308 10.8845V7.59626C9.92308 7.4922 9.88462 7.38814 9.80769 7.30489C9.73077 7.22165 9.63462 7.18002 9.53846 7.18002H6.69231V5.26535C6.69231 4.34964 6.90385 3.87097 8 3.87097H9.61538C9.82692 3.87097 10 3.68366 10 3.45474V0.416233C10 0.187305 9.82692 0 9.61538 0Z"/>
</svg>