<svg width="31" height="20" viewBox="0 0 31 20" xmlns="http://www.w3.org/2000/svg">
<path d="M10.8791 12.0605H15.7233C14.8708 14.4821 12.5705 16.2215 9.87781 16.201C6.61003 16.1737 3.90379 13.5407 3.77524 10.246C3.63993 6.71261 6.44765 3.7931 9.92517 3.7931C11.5151 3.7931 12.9629 4.4002 14.059 5.40293C14.3161 5.64167 14.7085 5.64167 14.9655 5.40293L16.7449 3.71807C17.0223 3.45204 17.0223 3.00866 16.7449 2.74263C15.0129 1.08506 12.6855 0.0550421 10.1214 0.00729315C4.648 -0.108669 0.0406245 4.41384 3.08714e-05 9.93226C-0.0405628 15.4848 4.41797 20.0005 9.91841 20.0005C15.2091 20.0005 19.5323 15.8258 19.8233 10.5598C19.83 10.4916 19.8368 8.26787 19.8368 8.26787H10.8791C10.5138 8.26787 10.2161 8.568 10.2161 8.93635V11.392C10.2161 11.7672 10.5138 12.0605 10.8791 12.0605Z"/>
<path d="M28.0436 8.49244V6.09135C28.0436 5.76393 27.7797 5.50472 27.4617 5.50472H25.4591C25.1344 5.50472 24.8773 5.77075 24.8773 6.09135V8.49244H22.4958C22.171 8.49244 21.9139 8.75847 21.9139 9.07907V11.0982C21.9139 11.4256 22.1778 11.6848 22.4958 11.6848H24.8773V14.0859C24.8773 14.4133 25.1411 14.6725 25.4591 14.6725H27.4617C27.7865 14.6725 28.0436 14.4065 28.0436 14.0859V11.6848H30.4251C30.7498 11.6848 31.0069 11.4188 31.0069 11.0982V9.07907C31.0069 8.75165 30.7431 8.49244 30.4251 8.49244H28.0436Z"/>
</svg>
