<svg width="36" height="20" viewBox="0 0 36 20" xmlns="http://www.w3.org/2000/svg">
<path d="M35.8096 18.0571C35.7637 17.9677 35.7243 17.891 35.6849 17.827C35.0613 16.734 33.8665 15.3854 32.1072 13.7938L32.0678 13.7555L32.0481 13.7363L32.0284 13.7171H32.0088C31.2079 12.9757 30.7024 12.4771 30.4923 12.2214C30.105 11.7356 30.0197 11.2435 30.2298 10.7449C30.3807 10.3678 30.9453 9.56881 31.9169 8.35437C32.4289 7.70879 32.8359 7.19106 33.1379 6.80116C35.2976 4.00154 36.2363 2.21183 35.9475 1.43842L35.8359 1.25945C35.7637 1.15079 35.5667 1.04852 35.2582 0.959033C34.9431 0.869548 34.5427 0.850372 34.0569 0.914291L28.6608 0.952641C28.5755 0.920682 28.4508 0.927074 28.2867 0.959033C28.1225 0.997384 28.0438 1.01656 28.0438 1.01656L27.9519 1.0613L27.8797 1.11883C27.814 1.15718 27.7484 1.2211 27.6761 1.31058C27.6039 1.40007 27.5383 1.50873 27.4923 1.63017C26.9015 3.10029 26.2385 4.46814 25.4836 5.73372C25.0241 6.48796 24.5974 7.13992 24.2101 7.69601C23.8228 8.2521 23.5011 8.65478 23.2385 8.91685C22.9759 9.17891 22.7396 9.38984 22.523 9.54325C22.3129 9.70304 22.1488 9.76696 22.0372 9.74139C21.9256 9.71582 21.8206 9.69026 21.7155 9.67108C21.5383 9.56242 21.4004 9.41541 21.2954 9.22365C21.1904 9.0319 21.1182 8.7954 21.0788 8.51416C21.0394 8.22653 21.0197 7.98364 21.0131 7.77271C21.0066 7.56817 21.0131 7.27415 21.0197 6.89703C21.0328 6.51992 21.0394 6.26424 21.0394 6.13001C21.0394 5.6698 21.046 5.16485 21.0656 4.62155C21.0853 4.07824 21.0985 3.64999 21.1116 3.33679C21.1247 3.02359 21.1313 2.68482 21.1313 2.33327C21.1313 1.98172 21.1116 1.70688 21.0656 1.50234C21.0197 1.30419 20.954 1.10605 20.8687 0.920682C20.7834 0.73532 20.6521 0.588308 20.4814 0.479647C20.3107 0.377378 20.1007 0.294284 19.8512 0.230366C19.1882 0.0833541 18.3479 0.00665228 17.3239 -0.00613136C15 -0.0316986 13.5098 0.115313 12.8468 0.434904C12.5842 0.569132 12.3479 0.748103 12.1379 0.984601C11.9147 1.25306 11.8818 1.40007 12.046 1.42564C12.7943 1.5343 13.326 1.79636 13.6411 2.21183L13.7527 2.42915C13.8381 2.58895 13.93 2.87019 14.0153 3.26648C14.1007 3.66916 14.1597 4.1102 14.186 4.59598C14.2451 5.48444 14.2451 6.24507 14.186 6.87786C14.1204 7.51065 14.0613 8.00282 14.0088 8.35437C13.9497 8.70592 13.8709 8.99355 13.7527 9.21087C13.6411 9.42819 13.5624 9.56242 13.5295 9.61356C13.4902 9.66469 13.4639 9.69026 13.4376 9.70304C13.2735 9.76057 13.1094 9.79253 12.9322 9.79253C12.7549 9.79253 12.5449 9.70943 12.2954 9.53685C12.046 9.36427 11.7834 9.13417 11.5208 8.83375C11.2516 8.53334 10.9497 8.11787 10.6083 7.58096C10.2735 7.04404 9.91904 6.41125 9.55799 5.68259L9.25602 5.15207C9.06565 4.8133 8.80963 4.31474 8.48797 3.66277C8.15974 3.01081 7.87746 2.38441 7.62801 1.77079C7.52954 1.51512 7.37856 1.32337 7.17506 1.18914L7.08315 1.13161C7.02407 1.08048 6.91904 1.02934 6.78118 0.978209C6.64333 0.920682 6.49891 0.882331 6.34792 0.856764L1.21444 0.895115C0.689278 0.895115 0.334792 1.01017 0.14442 1.24027L0.0722101 1.34893C0.0196937 1.43203 0 1.52791 0 1.66213C0 1.79636 0.0393873 1.96255 0.111597 2.1543C0.859956 3.8737 1.68053 5.52279 2.56018 7.12075C3.43983 8.7187 4.20788 9.99707 4.85777 10.9686C5.50766 11.9402 6.17068 12.8606 6.84683 13.7235C7.52298 14.5864 7.96937 15.1425 8.186 15.3854C8.40263 15.6283 8.57987 15.8136 8.7046 15.9351L9.17068 16.3761C9.47265 16.6701 9.91247 17.0153 10.4902 17.4244C11.0744 17.8334 11.7177 18.2361 12.4201 18.6324C13.1291 19.0287 13.9497 19.3483 14.8818 19.5976C15.8206 19.8469 16.733 19.9491 17.6193 19.898H19.7724C20.2123 19.8596 20.5405 19.7254 20.7637 19.4953L20.8359 19.4058C20.8884 19.3355 20.9344 19.2205 20.9737 19.0671C21.0197 18.9137 21.0394 18.7475 21.0394 18.5621C21.0263 18.038 21.0656 17.565 21.1641 17.1495C21.256 16.7276 21.3611 16.4145 21.4858 16.2035C21.6039 15.9926 21.7418 15.8136 21.8862 15.6666C22.0372 15.5196 22.1422 15.4301 22.2079 15.4045C22.267 15.3726 22.3195 15.3534 22.3589 15.3406C22.6608 15.2447 23.0088 15.3406 23.4158 15.6219C23.8228 15.9095 24.2035 16.261 24.558 16.6829C24.9125 17.1048 25.3392 17.5714 25.8446 18.0955C26.3435 18.6196 26.7834 19.0095 27.1576 19.2652L27.5317 19.4825C27.7812 19.6295 28.1094 19.7638 28.5098 19.8852C28.9103 20.0067 29.2582 20.0386 29.5602 19.9747L34.3589 19.9044C34.8315 19.9044 35.2057 19.8277 35.4617 19.6743C35.7243 19.5209 35.8818 19.3547 35.9278 19.1693C35.9803 18.984 35.9803 18.7794 35.9344 18.5493C35.895 18.3128 35.849 18.153 35.8096 18.0571Z"/>
</svg>